<svg preserveAspectRatio="none" width="100%" height="100%" overflow="visible" style="display: block;" viewBox="0 0 620.983 114.744" fill="none" xmlns="http://www.w3.org/2000/svg">
<g id="Group 16">
<g id="Vector">
<path d="M10.4692 61.2237C10.2104 61.5479 9.95152 61.7857 9.62795 61.8073C9.39067 61.8073 9.15339 61.6128 8.91611 61.4182L2.61739 54.6529C2.40168 54.3503 2.25069 54.0477 2.27226 53.6154C2.27226 53.2912 2.48797 52.8589 2.74682 52.5347C10.0809 44.0618 16.5954 31.6119 20.0899 19.9617C20.3919 19.0971 20.8233 18.6432 21.5351 18.7081L29.9478 19.9401C30.6596 20.0049 30.9401 20.7398 30.6381 21.8205C29.9047 24.5224 29.1065 27.008 28.2006 29.6017L73.4133 27.0945C74.1467 27.0512 74.5134 27.57 74.4487 28.521L73.8663 37.772C73.8016 38.723 73.3701 39.285 72.6367 39.3283L48.2831 40.6684L47.5497 52.4915L68.905 51.3027C69.6384 51.2594 70.0051 51.7782 69.9404 52.7292L69.3148 62.6286C69.2501 63.5797 68.8187 64.1416 68.0853 64.1849L46.73 65.3737L45.824 79.7473L73.025 78.2343C73.7584 78.191 74.1251 78.7098 74.0604 79.6608L73.4564 89.128C73.3917 90.079 72.9603 90.641 72.2269 90.6842L45.0259 92.1972L43.7316 112.731C43.6669 113.682 43.2355 114.244 42.5021 114.287L34.2188 114.741C33.4854 114.784 33.1187 114.266 33.1834 113.315L34.4777 92.7808L1.04271 94.6397C0.309301 94.6829 -0.0574051 94.1641 0.00730774 93.2131L0.611295 83.746C0.676007 82.7949 1.10743 82.233 1.84084 82.1897L11.6556 81.6494L13.144 57.9167C12.2596 59.1271 11.3968 60.143 10.4261 61.2453L10.4692 61.2237ZM37.7565 41.2519L22.8294 42.0733C20.6939 46.4394 18.4073 50.4813 15.8404 54.2422L37.0231 53.075L37.7565 41.2519ZM36.2034 65.9357L23.3687 66.6489L22.4627 81.0225L35.2974 80.3093L36.2034 65.9357Z" fill="url(#paint0_linear_300_1577)"/>
<path d="M10.4692 61.2237C10.2104 61.5479 9.95152 61.7857 9.62795 61.8073C9.39067 61.8073 9.15339 61.6128 8.91611 61.4182L2.61739 54.6529C2.40168 54.3503 2.25069 54.0477 2.27226 53.6154C2.27226 53.2912 2.48797 52.8589 2.74682 52.5347C10.0809 44.0618 16.5954 31.6119 20.0899 19.9617C20.3919 19.0971 20.8233 18.6432 21.5351 18.7081L29.9478 19.9401C30.6596 20.0049 30.9401 20.7398 30.6381 21.8205C29.9047 24.5224 29.1065 27.008 28.2006 29.6017L73.4133 27.0945C74.1467 27.0512 74.5134 27.57 74.4487 28.521L73.8663 37.772C73.8016 38.723 73.3701 39.285 72.6367 39.3283L48.2831 40.6684L47.5497 52.4915L68.905 51.3027C69.6384 51.2594 70.0051 51.7782 69.9404 52.7292L69.3148 62.6286C69.2501 63.5797 68.8187 64.1416 68.0853 64.1849L46.73 65.3737L45.824 79.7473L73.025 78.2343C73.7584 78.191 74.1251 78.7098 74.0604 79.6608L73.4564 89.128C73.3917 90.079 72.9603 90.641 72.2269 90.6842L45.0259 92.1972L43.7316 112.731C43.6669 113.682 43.2355 114.244 42.5021 114.287L34.2188 114.741C33.4854 114.784 33.1187 114.266 33.1834 113.315L34.4777 92.7808L1.04271 94.6397C0.309301 94.6829 -0.0574051 94.1641 0.00730774 93.2131L0.611295 83.746C0.676007 82.7949 1.10743 82.233 1.84084 82.1897L11.6556 81.6494L13.144 57.9167C12.2596 59.1271 11.3968 60.143 10.4261 61.2453L10.4692 61.2237ZM37.7565 41.2519L22.8294 42.0733C20.6939 46.4394 18.4073 50.4813 15.8404 54.2422L37.0231 53.075L37.7565 41.2519ZM36.2034 65.9357L23.3687 66.6489L22.4627 81.0225L35.2974 80.3093L36.2034 65.9357Z" fill="var(--fill-1, white)"/>
</g>
<g id="Vector_2">
<path d="M87.8239 22.4476L95.2874 22.0369C96.0208 21.9937 96.3875 22.5125 96.3228 23.4635L93.044 75.7273C95.611 74.6249 98.1132 73.5442 100.464 72.3554L104.045 15.5094C104.11 14.5584 104.541 13.9964 105.275 13.9531L112.911 13.5209C113.644 13.4776 114.011 13.9964 113.946 14.9474L108.834 96.2826C108.92 96.1745 109.007 96.0664 109.093 96.0664C115.909 91.7652 121.496 86.5777 126.004 80.5905C121.345 69.8265 118.584 54.5883 118.023 37.6426V37.3184C118.088 36.5835 118.433 36.1296 119.102 35.8918L127.687 33.19H128.011C128.571 33.1468 128.873 33.5574 128.895 34.4004C129.283 47.542 130.448 58.6086 133.511 67.8812C138.58 56.8794 141.341 43.7811 142.442 28.7807L118.174 30.1208C117.441 30.164 117.074 29.6452 117.139 28.6942L117.721 19.5297C117.786 18.5786 118.217 18.0167 118.951 17.9734L153.119 16.0714C153.853 16.0281 154.219 16.5469 154.155 17.4979L153.831 22.707C152.343 42.6355 148.589 63.6231 139.378 80.1582C142.787 85.2808 147.273 89.7983 153.011 93.624C153.637 94.0131 153.831 94.748 153.378 95.6125L147.726 106.852C147.446 107.392 147.101 107.738 146.777 107.76C146.605 107.76 146.367 107.673 146.152 107.479C140.996 103.307 135.711 97.4498 131.958 91.3977C127.083 98.2495 120.827 104.95 114.809 109.424C114.55 109.532 114.399 109.662 114.14 109.662C113.817 109.662 113.515 109.489 113.299 108.97L108.683 98.6169L108.014 109.251C107.95 110.202 107.518 110.764 106.785 110.807L99.1486 111.24C98.4152 111.283 98.0485 110.764 98.1132 109.813L99.6232 85.9725C93.346 89.3011 86.8532 92.0894 80.8349 94.0131H80.5113C79.9505 94.0563 79.6485 93.6456 79.6053 92.8027L79.1523 81.9954V81.6712C79.2171 80.9147 79.5622 80.4824 80.2309 80.223C81.1369 79.9637 82.1291 79.5962 83.1214 79.3152L86.5943 23.9606C86.659 23.0096 87.0905 22.4476 87.8239 22.4044V22.4476Z" fill="url(#paint1_linear_300_1577)"/>
<path d="M87.8239 22.4476L95.2874 22.0369C96.0208 21.9937 96.3875 22.5125 96.3228 23.4635L93.044 75.7273C95.611 74.6249 98.1132 73.5442 100.464 72.3554L104.045 15.5094C104.11 14.5584 104.541 13.9964 105.275 13.9531L112.911 13.5209C113.644 13.4776 114.011 13.9964 113.946 14.9474L108.834 96.2826C108.92 96.1745 109.007 96.0664 109.093 96.0664C115.909 91.7652 121.496 86.5777 126.004 80.5905C121.345 69.8265 118.584 54.5883 118.023 37.6426V37.3184C118.088 36.5835 118.433 36.1296 119.102 35.8918L127.687 33.19H128.011C128.571 33.1468 128.873 33.5574 128.895 34.4004C129.283 47.542 130.448 58.6086 133.511 67.8812C138.58 56.8794 141.341 43.7811 142.442 28.7807L118.174 30.1208C117.441 30.164 117.074 29.6452 117.139 28.6942L117.721 19.5297C117.786 18.5786 118.217 18.0167 118.951 17.9734L153.119 16.0714C153.853 16.0281 154.219 16.5469 154.155 17.4979L153.831 22.707C152.343 42.6355 148.589 63.6231 139.378 80.1582C142.787 85.2808 147.273 89.7983 153.011 93.624C153.637 94.0131 153.831 94.748 153.378 95.6125L147.726 106.852C147.446 107.392 147.101 107.738 146.777 107.76C146.605 107.76 146.367 107.673 146.152 107.479C140.996 103.307 135.711 97.4498 131.958 91.3977C127.083 98.2495 120.827 104.95 114.809 109.424C114.55 109.532 114.399 109.662 114.14 109.662C113.817 109.662 113.515 109.489 113.299 108.97L108.683 98.6169L108.014 109.251C107.95 110.202 107.518 110.764 106.785 110.807L99.1486 111.24C98.4152 111.283 98.0485 110.764 98.1132 109.813L99.6232 85.9725C93.346 89.3011 86.8532 92.0894 80.8349 94.0131H80.5113C79.9505 94.0563 79.6485 93.6456 79.6053 92.8027L79.1523 81.9954V81.6712C79.2171 80.9147 79.5622 80.4824 80.2309 80.223C81.1369 79.9637 82.1291 79.5962 83.1214 79.3152L86.5943 23.9606C86.659 23.0096 87.0905 22.4476 87.8239 22.4044V22.4476Z" fill="var(--fill-1, white)"/>
</g>
<g id="Vector_3">
<path d="M233.104 18.8598C230.709 44.1271 220.895 62.3913 204.63 71.5774C204.371 71.6855 204.22 71.7071 204.048 71.7071C203.638 71.7287 203.336 71.5342 203.12 71.1235L199.539 64.9634C194.966 82.5143 185.518 96.0882 170.419 103.697C170.246 103.805 170.074 103.934 169.923 103.934C169.513 103.956 169.211 103.653 168.909 103.243L163.667 92.8244C163.516 92.5218 163.451 92.3057 163.473 91.9815C163.516 91.4411 163.861 91.0088 164.53 90.7495C183.21 83.2492 190.027 67.4923 191.342 46.3966C191.429 44.9052 191.537 43.4138 191.558 41.7279C191.601 40.8849 192.054 40.3229 192.788 40.2797L201.718 39.8907C202.452 39.8474 202.818 40.2581 202.775 41.2091C202.775 42.4844 202.71 43.6516 202.624 44.8187C202.322 49.5955 201.804 54.0913 200.963 58.4791C210.994 53.4645 217.594 43.349 219.795 31.5475C205.752 32.3256 186.424 33.6008 167.571 34.8545C166.838 34.8977 166.471 34.379 166.536 33.4279L167.226 22.4694C167.291 21.5184 167.722 20.9564 168.456 20.9132L232.09 17.39C232.91 17.3468 233.276 17.8655 233.125 18.8166L233.104 18.8598Z" fill="url(#paint2_linear_300_1577)"/>
<path d="M233.104 18.8598C230.709 44.1271 220.895 62.3913 204.63 71.5774C204.371 71.6855 204.22 71.7071 204.048 71.7071C203.638 71.7287 203.336 71.5342 203.12 71.1235L199.539 64.9634C194.966 82.5143 185.518 96.0882 170.419 103.697C170.246 103.805 170.074 103.934 169.923 103.934C169.513 103.956 169.211 103.653 168.909 103.243L163.667 92.8244C163.516 92.5218 163.451 92.3057 163.473 91.9815C163.516 91.4411 163.861 91.0088 164.53 90.7495C183.21 83.2492 190.027 67.4923 191.342 46.3966C191.429 44.9052 191.537 43.4138 191.558 41.7279C191.601 40.8849 192.054 40.3229 192.788 40.2797L201.718 39.8907C202.452 39.8474 202.818 40.2581 202.775 41.2091C202.775 42.4844 202.71 43.6516 202.624 44.8187C202.322 49.5955 201.804 54.0913 200.963 58.4791C210.994 53.4645 217.594 43.349 219.795 31.5475C205.752 32.3256 186.424 33.6008 167.571 34.8545C166.838 34.8977 166.471 34.379 166.536 33.4279L167.226 22.4694C167.291 21.5184 167.722 20.9564 168.456 20.9132L232.09 17.39C232.91 17.3468 233.276 17.8655 233.125 18.8166L233.104 18.8598Z" fill="var(--fill-1, white)"/>
</g>
<g id="Vector_4">
<path d="M246.628 66.3896L239.962 69.113H239.617C239.207 69.1562 238.948 68.8104 238.927 68.1835C238.711 60.5753 237.46 52.0375 235.389 45.3587C235.324 45.1858 235.281 44.9048 235.281 44.7319C235.303 44.278 235.54 43.9105 236.036 43.7808L242.335 41.5329C242.486 41.4249 242.551 41.4249 242.68 41.4249C243.025 41.4249 243.284 41.6626 243.457 42.0949C245.743 48.4928 247.21 57.0305 247.49 64.8117V65.0711C247.426 65.6979 247.124 66.1734 246.628 66.3896ZM238.366 89.236C261.08 82.903 271.326 67.2109 273.829 37.4262C273.872 36.6048 274.325 36.1293 274.95 36.1942L282.22 36.9723C282.845 37.0371 283.082 37.5559 283.018 38.3772C278.898 71.9661 267.465 91.3542 244.017 99.2651C243.866 99.3732 243.802 99.3732 243.672 99.3732C243.327 99.3732 243.068 99.2219 242.81 98.7896L237.848 90.9003C237.654 90.641 237.546 90.3816 237.546 90.1006C237.568 89.7332 237.87 89.3657 238.366 89.236ZM251.869 39.2634L258.362 36.9939C258.362 36.9939 258.578 36.8858 258.707 36.8858C259.052 36.8858 259.311 37.1236 259.505 37.5775C261.317 43.9105 262.763 52.9021 262.698 60.5969V60.7698C262.655 61.3966 262.418 61.8721 261.835 62.0883L255.191 64.6388C255.04 64.7468 254.911 64.7469 254.846 64.7469C254.372 64.7685 254.113 64.4226 254.156 63.6877C254.156 56.1659 253.099 47.4337 251.157 40.9277C251.114 40.6684 251.05 40.4738 251.05 40.3009C251.093 39.7605 251.373 39.4579 251.869 39.2634Z" fill="url(#paint3_linear_300_1577)"/>
<path d="M246.628 66.3896L239.962 69.113H239.617C239.207 69.1562 238.948 68.8104 238.927 68.1835C238.711 60.5753 237.46 52.0375 235.389 45.3587C235.324 45.1858 235.281 44.9048 235.281 44.7319C235.303 44.278 235.54 43.9105 236.036 43.7808L242.335 41.5329C242.486 41.4249 242.551 41.4249 242.68 41.4249C243.025 41.4249 243.284 41.6626 243.457 42.0949C245.743 48.4928 247.21 57.0305 247.49 64.8117V65.0711C247.426 65.6979 247.124 66.1734 246.628 66.3896ZM238.366 89.236C261.08 82.903 271.326 67.2109 273.829 37.4262C273.872 36.6048 274.325 36.1293 274.95 36.1942L282.22 36.9723C282.845 37.0371 283.082 37.5559 283.018 38.3772C278.898 71.9661 267.465 91.3542 244.017 99.2651C243.866 99.3732 243.802 99.3732 243.672 99.3732C243.327 99.3732 243.068 99.2219 242.81 98.7896L237.848 90.9003C237.654 90.641 237.546 90.3816 237.546 90.1006C237.568 89.7332 237.87 89.3657 238.366 89.236ZM251.869 39.2634L258.362 36.9939C258.362 36.9939 258.578 36.8858 258.707 36.8858C259.052 36.8858 259.311 37.1236 259.505 37.5775C261.317 43.9105 262.763 52.9021 262.698 60.5969V60.7698C262.655 61.3966 262.418 61.8721 261.835 62.0883L255.191 64.6388C255.04 64.7468 254.911 64.7469 254.846 64.7469C254.372 64.7685 254.113 64.4226 254.156 63.6877C254.156 56.1659 253.099 47.4337 251.157 40.9277C251.114 40.6684 251.05 40.4738 251.05 40.3009C251.093 39.7605 251.373 39.4579 251.869 39.2634Z" fill="var(--fill-1, white)"/>
</g>
<g id="Vector_5">
<path d="M293.783 96.8665H293.697C293.2 96.8881 292.898 96.6071 292.704 95.9803L288.735 84.6327C288.671 84.3085 288.606 84.114 288.627 83.8978C288.671 83.2494 289.016 82.8171 289.684 82.6658C320.876 74.0416 331.446 50.2225 335.393 29.7536C320.531 30.7911 301.915 32.1312 288.11 33.0174C287.376 33.0606 287.096 32.5419 287.139 31.5908L287.851 20.2C287.916 19.249 288.261 18.687 289.08 18.6438L339.405 15.7474C339.298 14.9045 339.276 13.9534 339.341 13.0024C339.772 6.08577 344.345 0.314719 349.63 0.0121163C354.915 -0.290486 358.862 5.11312 358.431 11.9433C357.978 18.968 353.34 24.739 348.055 25.0416C342.339 61.9591 325.233 87.0967 294.128 96.7584L293.804 96.8881L293.783 96.8665ZM348.487 18.1034C350.838 17.9737 352.866 15.3151 353.06 12.2243C353.254 9.24148 351.528 6.90713 349.177 7.03681C346.912 7.1665 344.798 9.717 344.604 12.6998C344.41 15.7907 346.2 18.2331 348.465 18.1034H348.487Z" fill="url(#paint4_linear_300_1577)"/>
<path d="M293.783 96.8665H293.697C293.2 96.8881 292.898 96.6071 292.704 95.9803L288.735 84.6327C288.671 84.3085 288.606 84.114 288.627 83.8978C288.671 83.2494 289.016 82.8171 289.684 82.6658C320.876 74.0416 331.446 50.2225 335.393 29.7536C320.531 30.7911 301.915 32.1312 288.11 33.0174C287.376 33.0606 287.096 32.5419 287.139 31.5908L287.851 20.2C287.916 19.249 288.261 18.687 289.08 18.6438L339.405 15.7474C339.298 14.9045 339.276 13.9534 339.341 13.0024C339.772 6.08577 344.345 0.314719 349.63 0.0121163C354.915 -0.290486 358.862 5.11312 358.431 11.9433C357.978 18.968 353.34 24.739 348.055 25.0416C342.339 61.9591 325.233 87.0967 294.128 96.7584L293.804 96.8881L293.783 96.8665ZM348.487 18.1034C350.838 17.9737 352.866 15.3151 353.06 12.2243C353.254 9.24148 351.528 6.90713 349.177 7.03681C346.912 7.1665 344.798 9.717 344.604 12.6998C344.41 15.7907 346.2 18.2331 348.465 18.1034H348.487Z" fill="var(--fill-1, white)"/>
</g>
<g id="Group 17">
<g id="Vector_6">
<path d="M411.398 28.8676L451.024 26.6629C451.52 26.6413 451.779 26.9871 451.736 27.6355L447.939 88.0695C447.896 88.718 447.594 89.107 447.098 89.1286L407.472 91.3333C406.976 91.3549 406.717 91.0091 406.761 90.3607L410.557 29.9267C410.6 29.2782 410.902 28.8892 411.398 28.8676ZM441.123 80.8287L441.727 71.1022L415.13 72.572L414.526 82.2985L441.123 80.8287ZM442.266 62.6942L442.849 53.4864L416.252 54.9562L415.669 64.164L442.266 62.6942ZM443.366 45.1L443.949 35.8274L417.352 37.2972L416.769 46.5698L443.366 45.1Z" fill="url(#paint5_linear_300_1577)"/>
<path d="M411.398 28.8676L451.024 26.6629C451.52 26.6413 451.779 26.9871 451.736 27.6355L447.939 88.0695C447.896 88.718 447.594 89.107 447.098 89.1286L407.472 91.3333C406.976 91.3549 406.717 91.0091 406.761 90.3607L410.557 29.9267C410.6 29.2782 410.902 28.8892 411.398 28.8676ZM441.123 80.8287L441.727 71.1022L415.13 72.572L414.526 82.2985L441.123 80.8287ZM442.266 62.6942L442.849 53.4864L416.252 54.9562L415.669 64.164L442.266 62.6942ZM443.366 45.1L443.949 35.8274L417.352 37.2972L416.769 46.5698L443.366 45.1Z" fill="var(--fill-1, white)"/>
</g>
<g id="Vector_7">
<path d="M461.853 90.165C461.4 90.1866 461.141 89.9056 461.012 89.3437L459.674 82.2109C459.631 82.0596 459.631 81.9299 459.653 81.8434C459.674 81.3247 459.976 81.0221 460.473 81.0005C465.412 80.9356 466.254 79.8765 466.512 76.0075L467.138 66C464.981 66.7782 462.888 67.4698 460.904 68.0967C460.796 68.0967 460.731 68.1831 460.667 68.1831C460.278 68.1831 460.084 67.8589 460.041 67.3401L459.653 60.1425V59.9264C459.696 59.4076 459.933 59.105 460.386 59.0186C462.587 58.4566 465.089 57.592 467.699 56.7274L468.475 44.2991L462.522 44.6234C462.026 44.645 461.767 44.2991 461.81 43.6507L462.22 37.0799C462.263 36.4315 462.565 36.0424 463.061 36.0208L469.015 35.6966L469.727 24.5219C469.77 23.8735 470.072 23.4844 470.568 23.4628L475.853 23.1602C476.349 23.1386 476.608 23.4844 476.564 24.1328L475.853 35.3075L480.318 35.0697C480.814 35.0481 481.073 35.394 481.03 36.0424L480.62 42.6132C480.577 43.2616 480.275 43.6507 479.779 43.6723L475.313 43.9101L474.688 54.004C476.457 53.2475 478.118 52.4262 479.498 51.6913C479.671 51.6048 479.779 51.54 479.908 51.5184C480.232 51.5184 480.383 51.8426 480.339 52.4478L479.886 59.6886C479.843 60.2722 479.649 60.6397 479.326 60.8126C477.837 61.6339 476.047 62.4553 474.105 63.2766L473.178 78.0393C472.574 87.6145 468.885 89.9273 461.81 90.165H461.853ZM482.928 55.5819L508.339 54.1769C508.835 54.1553 509.093 54.5011 509.05 55.1496L507.152 85.1937C507.109 85.8421 506.807 86.2312 506.311 86.2528L480.9 87.6577C480.404 87.6793 480.145 87.3335 480.188 86.6851L482.087 56.641C482.13 55.9925 482.432 55.6035 482.928 55.5819ZM491.492 43.0887C492.829 43.0887 494.77 43.0455 496.669 42.959C498.61 42.851 500.573 42.678 501.91 42.5267C504.607 42.1593 505.275 41.0353 505.923 36.0424C506.03 35.2427 506.44 34.9185 506.915 35.1778L511.833 37.4474C512.264 37.6419 512.415 37.9877 512.308 38.6578C510.97 48.4923 508.49 50.0053 503.399 50.5025C501.393 50.6754 498.934 50.8915 496.539 51.0212C493.649 51.1725 490.801 51.259 488.795 51.3022C483.855 51.3671 482.281 49.7027 482.691 43.3481L483.92 23.8302C483.963 23.1602 484.265 22.7927 484.761 22.7711L490.219 22.4685C490.715 22.4469 490.974 22.7927 490.931 23.4412L490.521 30.0984C496.323 28.8232 503.291 26.5537 507.864 23.7438C508.037 23.6573 508.144 23.5925 508.317 23.5709C508.533 23.5709 508.748 23.7005 508.899 24.0464L511.423 29.1474C511.531 29.3635 511.574 29.5797 511.553 29.7958C511.553 30.0768 511.402 30.3794 511.056 30.5523C504.887 33.9458 496.798 36.3018 490.068 37.5338L489.852 40.8192C489.766 42.3538 490.219 42.9806 491.492 43.0671V43.0887ZM501.112 73.7164L487.803 74.4513L487.458 80.0062L500.767 79.2713L501.112 73.7164ZM501.846 61.8717L488.536 62.6066L488.213 67.8589L501.522 67.124L501.846 61.8717Z" fill="url(#paint6_linear_300_1577)"/>
<path d="M461.853 90.165C461.4 90.1866 461.141 89.9056 461.012 89.3437L459.674 82.2109C459.631 82.0596 459.631 81.9299 459.653 81.8434C459.674 81.3247 459.976 81.0221 460.473 81.0005C465.412 80.9356 466.254 79.8765 466.512 76.0075L467.138 66C464.981 66.7782 462.888 67.4698 460.904 68.0967C460.796 68.0967 460.731 68.1831 460.667 68.1831C460.278 68.1831 460.084 67.8589 460.041 67.3401L459.653 60.1425V59.9264C459.696 59.4076 459.933 59.105 460.386 59.0186C462.587 58.4566 465.089 57.592 467.699 56.7274L468.475 44.2991L462.522 44.6234C462.026 44.645 461.767 44.2991 461.81 43.6507L462.22 37.0799C462.263 36.4315 462.565 36.0424 463.061 36.0208L469.015 35.6966L469.727 24.5219C469.77 23.8735 470.072 23.4844 470.568 23.4628L475.853 23.1602C476.349 23.1386 476.608 23.4844 476.564 24.1328L475.853 35.3075L480.318 35.0697C480.814 35.0481 481.073 35.394 481.03 36.0424L480.62 42.6132C480.577 43.2616 480.275 43.6507 479.779 43.6723L475.313 43.9101L474.688 54.004C476.457 53.2475 478.118 52.4262 479.498 51.6913C479.671 51.6048 479.779 51.54 479.908 51.5184C480.232 51.5184 480.383 51.8426 480.339 52.4478L479.886 59.6886C479.843 60.2722 479.649 60.6397 479.326 60.8126C477.837 61.6339 476.047 62.4553 474.105 63.2766L473.178 78.0393C472.574 87.6145 468.885 89.9273 461.81 90.165H461.853ZM482.928 55.5819L508.339 54.1769C508.835 54.1553 509.093 54.5011 509.05 55.1496L507.152 85.1937C507.109 85.8421 506.807 86.2312 506.311 86.2528L480.9 87.6577C480.404 87.6793 480.145 87.3335 480.188 86.6851L482.087 56.641C482.13 55.9925 482.432 55.6035 482.928 55.5819ZM491.492 43.0887C492.829 43.0887 494.77 43.0455 496.669 42.959C498.61 42.851 500.573 42.678 501.91 42.5267C504.607 42.1593 505.275 41.0353 505.923 36.0424C506.03 35.2427 506.44 34.9185 506.915 35.1778L511.833 37.4474C512.264 37.6419 512.415 37.9877 512.308 38.6578C510.97 48.4923 508.49 50.0053 503.399 50.5025C501.393 50.6754 498.934 50.8915 496.539 51.0212C493.649 51.1725 490.801 51.259 488.795 51.3022C483.855 51.3671 482.281 49.7027 482.691 43.3481L483.92 23.8302C483.963 23.1602 484.265 22.7927 484.761 22.7711L490.219 22.4685C490.715 22.4469 490.974 22.7927 490.931 23.4412L490.521 30.0984C496.323 28.8232 503.291 26.5537 507.864 23.7438C508.037 23.6573 508.144 23.5925 508.317 23.5709C508.533 23.5709 508.748 23.7005 508.899 24.0464L511.423 29.1474C511.531 29.3635 511.574 29.5797 511.553 29.7958C511.553 30.0768 511.402 30.3794 511.056 30.5523C504.887 33.9458 496.798 36.3018 490.068 37.5338L489.852 40.8192C489.766 42.3538 490.219 42.9806 491.492 43.0671V43.0887ZM501.112 73.7164L487.803 74.4513L487.458 80.0062L500.767 79.2713L501.112 73.7164ZM501.846 61.8717L488.536 62.6066L488.213 67.8589L501.522 67.124L501.846 61.8717Z" fill="var(--fill-1, white)"/>
</g>
<g id="Vector_8">
<path d="M526.694 66.6924C526.737 64.0771 526.91 60.4891 527.168 56.4039L527.816 46.98L520.158 47.7582C519.662 47.7798 519.403 47.4339 519.446 46.7855L519.856 39.4798V39.3285C519.899 38.7449 520.201 38.4423 520.654 38.3343L528.527 37.5345L529.347 25.4088C529.39 24.7604 529.692 24.3713 530.188 24.3497L536.379 24.0039C536.875 23.9823 537.134 24.3929 537.091 25.063C536.724 28.932 536.422 32.9523 536.077 36.778L552.795 35.0489C553.032 31.1799 553.226 27.246 553.356 23.5932C553.399 22.8583 553.701 22.4909 554.197 22.4476L560.215 22.1883C560.711 22.1666 560.97 22.5125 560.927 23.1609C560.754 26.6625 560.517 30.5314 560.28 34.3356L568.391 33.4494C568.887 33.4278 569.102 33.7736 569.102 34.422L568.693 41.7926C568.649 42.4626 568.412 42.8301 567.894 42.8517L559.568 43.7595C559.18 48.0824 558.727 51.9514 558.231 54.5451C556.958 61.6779 553.96 64.1851 549.796 64.92C548.783 65.1146 547.661 65.2659 546.496 65.3307C545.374 65.3955 544.21 65.3739 542.937 65.3739C542.441 65.3956 542.182 65.1362 542.16 64.5526L541.19 56.9659L541.146 56.6849C541.19 56.1013 541.492 55.7987 541.966 55.9068C544.835 56.1878 546.841 56.231 548.243 55.9933C550.142 55.669 550.897 54.3938 551.22 52.7079C551.544 50.9355 551.846 48.0175 552.169 44.4944L535.344 46.2235C535.107 49.0766 534.934 51.8433 534.783 54.329C534.524 58.6302 534.33 62.2831 534.287 64.9849C534.201 70.021 535.452 72.0528 539.421 72.4851C540.521 72.5716 542.247 72.7012 544.576 72.5716C548.265 72.377 553.463 71.707 560.215 70.1724H560.388C560.841 70.1291 561.1 70.4966 560.992 71.0802L560.431 79.0559C560.388 79.7043 559.805 80.115 558.792 80.3095C553.679 81.1093 549.322 81.5632 545.655 81.7577C542.203 81.9522 539.421 81.8874 537.328 81.7145C530.534 81.0012 526.37 76.6351 526.672 66.714L526.694 66.6924Z" fill="url(#paint7_linear_300_1577)"/>
<path d="M526.694 66.6924C526.737 64.0771 526.91 60.4891 527.168 56.4039L527.816 46.98L520.158 47.7582C519.662 47.7798 519.403 47.4339 519.446 46.7855L519.856 39.4798V39.3285C519.899 38.7449 520.201 38.4423 520.654 38.3343L528.527 37.5345L529.347 25.4088C529.39 24.7604 529.692 24.3713 530.188 24.3497L536.379 24.0039C536.875 23.9823 537.134 24.3929 537.091 25.063C536.724 28.932 536.422 32.9523 536.077 36.778L552.795 35.0489C553.032 31.1799 553.226 27.246 553.356 23.5932C553.399 22.8583 553.701 22.4909 554.197 22.4476L560.215 22.1883C560.711 22.1666 560.97 22.5125 560.927 23.1609C560.754 26.6625 560.517 30.5314 560.28 34.3356L568.391 33.4494C568.887 33.4278 569.102 33.7736 569.102 34.422L568.693 41.7926C568.649 42.4626 568.412 42.8301 567.894 42.8517L559.568 43.7595C559.18 48.0824 558.727 51.9514 558.231 54.5451C556.958 61.6779 553.96 64.1851 549.796 64.92C548.783 65.1146 547.661 65.2659 546.496 65.3307C545.374 65.3955 544.21 65.3739 542.937 65.3739C542.441 65.3956 542.182 65.1362 542.16 64.5526L541.19 56.9659L541.146 56.6849C541.19 56.1013 541.492 55.7987 541.966 55.9068C544.835 56.1878 546.841 56.231 548.243 55.9933C550.142 55.669 550.897 54.3938 551.22 52.7079C551.544 50.9355 551.846 48.0175 552.169 44.4944L535.344 46.2235C535.107 49.0766 534.934 51.8433 534.783 54.329C534.524 58.6302 534.33 62.2831 534.287 64.9849C534.201 70.021 535.452 72.0528 539.421 72.4851C540.521 72.5716 542.247 72.7012 544.576 72.5716C548.265 72.377 553.463 71.707 560.215 70.1724H560.388C560.841 70.1291 561.1 70.4966 560.992 71.0802L560.431 79.0559C560.388 79.7043 559.805 80.115 558.792 80.3095C553.679 81.1093 549.322 81.5632 545.655 81.7577C542.203 81.9522 539.421 81.8874 537.328 81.7145C530.534 81.0012 526.37 76.6351 526.672 66.714L526.694 66.6924Z" fill="var(--fill-1, white)"/>
</g>
<g id="Vector_9">
<path d="M578.679 63.8826C578.463 63.8826 578.248 63.7529 578.097 63.4719L574.947 57.1605C574.84 56.9444 574.753 56.7282 574.775 56.5121C574.775 56.2095 574.969 55.9285 575.206 55.6907C586.553 45.7481 595.203 37.902 603.335 30.5315C597.122 31.0935 590.651 31.7419 584.784 32.2174C584.288 32.239 584.029 31.8932 584.072 31.2448L584.482 23.7878C584.525 23.1394 584.827 22.7503 585.323 22.7287L615.932 21.0428C616.428 21.0211 616.687 21.367 616.644 22.0154L616.299 28.3052C616.256 28.8888 616.083 29.2563 615.717 29.5805L600.574 42.6572C602.321 42.1168 604.068 41.8142 605.751 41.7062C610.216 41.4684 614.12 42.8517 616.924 45.7481C619.901 48.9254 621.26 53.7454 620.937 58.8464C620.505 65.5685 617.162 72.8094 610.712 77.4781C607.11 79.9421 602.299 81.52 597.726 81.7578C593.649 81.9739 589.767 81.1742 587.178 78.9911C584.331 76.5919 583.058 72.8094 583.295 69.0917C583.49 66.0873 584.611 63.1261 586.639 60.9646C588.602 58.8897 591.298 57.6576 594.016 57.5063C599.538 57.2037 604.931 61.4834 603.658 72.0529C605.362 71.2963 606.98 70.3453 608.275 69.243C611.618 66.5196 613.171 62.9316 613.365 59.711C613.516 57.2902 612.891 54.9991 611.704 53.3996C609.698 50.6762 606.096 49.0551 601.631 49.2928C597.122 49.5522 591.751 51.6704 586.229 56.5553C584.331 58.4141 582.023 60.7269 579.24 63.5584C579.003 63.7961 578.83 63.8826 578.658 63.8826H578.679ZM590.824 71.3612C592.096 73.0471 594.34 73.7172 596.842 73.6523C597.058 72.831 597.166 72.0961 597.209 71.3828C597.489 66.9951 595.203 64.423 592.981 64.5526C592.247 64.5959 591.514 64.8553 590.932 65.4605C590.22 66.1521 589.831 67.1248 589.767 68.1406C589.702 69.3078 590.069 70.5182 590.845 71.3612H590.824Z" fill="url(#paint8_linear_300_1577)"/>
<path d="M578.679 63.8826C578.463 63.8826 578.248 63.7529 578.097 63.4719L574.947 57.1605C574.84 56.9444 574.753 56.7282 574.775 56.5121C574.775 56.2095 574.969 55.9285 575.206 55.6907C586.553 45.7481 595.203 37.902 603.335 30.5315C597.122 31.0935 590.651 31.7419 584.784 32.2174C584.288 32.239 584.029 31.8932 584.072 31.2448L584.482 23.7878C584.525 23.1394 584.827 22.7503 585.323 22.7287L615.932 21.0428C616.428 21.0211 616.687 21.367 616.644 22.0154L616.299 28.3052C616.256 28.8888 616.083 29.2563 615.717 29.5805L600.574 42.6572C602.321 42.1168 604.068 41.8142 605.751 41.7062C610.216 41.4684 614.12 42.8517 616.924 45.7481C619.901 48.9254 621.26 53.7454 620.937 58.8464C620.505 65.5685 617.162 72.8094 610.712 77.4781C607.11 79.9421 602.299 81.52 597.726 81.7578C593.649 81.9739 589.767 81.1742 587.178 78.9911C584.331 76.5919 583.058 72.8094 583.295 69.0917C583.49 66.0873 584.611 63.1261 586.639 60.9646C588.602 58.8897 591.298 57.6576 594.016 57.5063C599.538 57.2037 604.931 61.4834 603.658 72.0529C605.362 71.2963 606.98 70.3453 608.275 69.243C611.618 66.5196 613.171 62.9316 613.365 59.711C613.516 57.2902 612.891 54.9991 611.704 53.3996C609.698 50.6762 606.096 49.0551 601.631 49.2928C597.122 49.5522 591.751 51.6704 586.229 56.5553C584.331 58.4141 582.023 60.7269 579.24 63.5584C579.003 63.7961 578.83 63.8826 578.658 63.8826H578.679ZM590.824 71.3612C592.096 73.0471 594.34 73.7172 596.842 73.6523C597.058 72.831 597.166 72.0961 597.209 71.3828C597.489 66.9951 595.203 64.423 592.981 64.5526C592.247 64.5959 591.514 64.8553 590.932 65.4605C590.22 66.1521 589.831 67.1248 589.767 68.1406C589.702 69.3078 590.069 70.5182 590.845 71.3612H590.824Z" fill="var(--fill-1, white)"/>
</g>
</g>
<g id="Vector_10">
<path d="M351.599 47.0023C355.072 46.57 359.106 46.2026 363.075 45.9C364.175 40.8422 365.146 35.9357 365.944 31.1157C366.095 30.4241 366.397 30.0782 366.893 30.1431L372.76 30.597C373.321 30.6402 373.515 31.0076 373.429 31.5696C372.652 35.9141 371.746 40.518 370.668 45.3596C372.739 45.2516 374.572 45.1435 375.953 45.1435C382.402 45.1651 384.365 49.2935 384.43 58.0041C384.43 59.9278 384.322 62.2405 384.171 64.6397C383.783 70.8215 382.963 77.7165 381.949 81.3909C379.447 90.3825 375.176 94.5541 368.64 94.9216C367.13 95.008 365.534 94.8567 363.83 94.5758C363.398 94.5325 363.118 94.2299 363.053 93.6247L362.039 84.8925V84.5034C362.104 83.963 362.406 83.6388 362.945 83.8334C364.908 84.417 366.677 84.6979 368.187 84.6331C371.423 84.4602 373.537 82.5581 374.853 78.4081C375.823 75.274 376.427 70.2379 376.708 65.8285C376.815 64.0561 376.88 62.3486 376.902 60.9653C376.902 55.9507 376.19 54.7619 373.299 54.7619L371.056 54.8916L368.381 55.0429C365.059 68.2493 360.724 82.2771 355.46 95.0297C355.201 95.6565 354.856 95.8294 354.425 95.6997L348.665 93.4734C348.277 93.3437 348.126 93.0411 348.169 92.652C348.169 92.4143 348.256 92.263 348.32 92.0252C353.821 78.7756 357.747 66.866 360.616 55.8426C357.704 56.2317 354.511 56.7288 351.405 57.2692H351.297C350.844 57.2908 350.585 57.0098 350.628 56.3182L350.822 48.0614C350.866 47.4346 351.168 47.0456 351.621 47.024L351.599 47.0023ZM385.379 41.5123L390.556 38.7672C389.931 36.4977 389.068 34.0769 388.097 32.0451C388.011 31.829 387.968 31.5912 387.968 31.3535C387.968 31.0509 388.162 30.7915 388.507 30.6186L391.548 28.9975C391.656 28.911 391.786 28.911 391.937 28.8894C392.152 28.8894 392.368 29.0191 392.584 29.3217C394.331 32.4558 395.798 36.4545 396.574 40.1073V40.4964C396.574 40.9503 396.337 41.2745 395.992 41.4474L393.576 42.8091C396.574 49.9635 398.235 57.1828 398.645 64.7046C398.688 64.7694 398.688 64.8559 398.688 64.9423C398.645 65.4827 398.408 65.8069 398.063 66.0663L392.066 69.3949C391.958 69.4814 391.829 69.5678 391.721 69.5678C391.376 69.5678 391.182 69.2868 391.16 68.6816C390.793 59.4523 388.83 50.7849 384.991 43.0037C384.905 42.7875 384.797 42.5498 384.818 42.312C384.818 42.0094 385.034 41.6852 385.379 41.5123ZM399.465 39.5021C399.185 39.5021 398.969 39.3076 398.839 38.8321C398.106 35.4818 396.747 31.4832 395.151 28.4788C395 28.2626 394.957 28.0249 394.978 27.7871C394.978 27.4845 395.172 27.2251 395.517 27.0522L398.516 25.4311C398.624 25.3447 398.796 25.3447 398.904 25.323C399.12 25.323 399.336 25.4527 399.551 25.7553C401.061 28.4571 402.744 32.5206 403.628 36.1519C403.671 36.3896 403.714 36.5409 403.714 36.6922C403.693 37.0813 403.499 37.4055 403.11 37.5784L399.832 39.3724C399.724 39.4589 399.594 39.4589 399.487 39.4589L399.465 39.5021Z" fill="url(#paint9_linear_300_1577)"/>
<path d="M351.599 47.0023C355.072 46.57 359.106 46.2026 363.075 45.9C364.175 40.8422 365.146 35.9357 365.944 31.1157C366.095 30.4241 366.397 30.0782 366.893 30.1431L372.76 30.597C373.321 30.6402 373.515 31.0076 373.429 31.5696C372.652 35.9141 371.746 40.518 370.668 45.3596C372.739 45.2516 374.572 45.1435 375.953 45.1435C382.402 45.1651 384.365 49.2935 384.43 58.0041C384.43 59.9278 384.322 62.2405 384.171 64.6397C383.783 70.8215 382.963 77.7165 381.949 81.3909C379.447 90.3825 375.176 94.5541 368.64 94.9216C367.13 95.008 365.534 94.8567 363.83 94.5758C363.398 94.5325 363.118 94.2299 363.053 93.6247L362.039 84.8925V84.5034C362.104 83.963 362.406 83.6388 362.945 83.8334C364.908 84.417 366.677 84.6979 368.187 84.6331C371.423 84.4602 373.537 82.5581 374.853 78.4081C375.823 75.274 376.427 70.2379 376.708 65.8285C376.815 64.0561 376.88 62.3486 376.902 60.9653C376.902 55.9507 376.19 54.7619 373.299 54.7619L371.056 54.8916L368.381 55.0429C365.059 68.2493 360.724 82.2771 355.46 95.0297C355.201 95.6565 354.856 95.8294 354.425 95.6997L348.665 93.4734C348.277 93.3437 348.126 93.0411 348.169 92.652C348.169 92.4143 348.256 92.263 348.32 92.0252C353.821 78.7756 357.747 66.866 360.616 55.8426C357.704 56.2317 354.511 56.7288 351.405 57.2692H351.297C350.844 57.2908 350.585 57.0098 350.628 56.3182L350.822 48.0614C350.866 47.4346 351.168 47.0456 351.621 47.024L351.599 47.0023ZM385.379 41.5123L390.556 38.7672C389.931 36.4977 389.068 34.0769 388.097 32.0451C388.011 31.829 387.968 31.5912 387.968 31.3535C387.968 31.0509 388.162 30.7915 388.507 30.6186L391.548 28.9975C391.656 28.911 391.786 28.911 391.937 28.8894C392.152 28.8894 392.368 29.0191 392.584 29.3217C394.331 32.4558 395.798 36.4545 396.574 40.1073V40.4964C396.574 40.9503 396.337 41.2745 395.992 41.4474L393.576 42.8091C396.574 49.9635 398.235 57.1828 398.645 64.7046C398.688 64.7694 398.688 64.8559 398.688 64.9423C398.645 65.4827 398.408 65.8069 398.063 66.0663L392.066 69.3949C391.958 69.4814 391.829 69.5678 391.721 69.5678C391.376 69.5678 391.182 69.2868 391.16 68.6816C390.793 59.4523 388.83 50.7849 384.991 43.0037C384.905 42.7875 384.797 42.5498 384.818 42.312C384.818 42.0094 385.034 41.6852 385.379 41.5123ZM399.465 39.5021C399.185 39.5021 398.969 39.3076 398.839 38.8321C398.106 35.4818 396.747 31.4832 395.151 28.4788C395 28.2626 394.957 28.0249 394.978 27.7871C394.978 27.4845 395.172 27.2251 395.517 27.0522L398.516 25.4311C398.624 25.3447 398.796 25.3447 398.904 25.323C399.12 25.323 399.336 25.4527 399.551 25.7553C401.061 28.4571 402.744 32.5206 403.628 36.1519C403.671 36.3896 403.714 36.5409 403.714 36.6922C403.693 37.0813 403.499 37.4055 403.11 37.5784L399.832 39.3724C399.724 39.4589 399.594 39.4589 399.487 39.4589L399.465 39.5021Z" fill="var(--fill-1, white)"/>
</g>
</g>
<defs>
<linearGradient id="paint0_linear_300_1577" x1="37.228" y1="18.702" x2="37.228" y2="114.744" gradientUnits="userSpaceOnUse">
<stop stop-color="#DA6000"/>
<stop offset="1" stop-color="#C51400"/>
</linearGradient>
<linearGradient id="paint1_linear_300_1577" x1="116.657" y1="13.5184" x2="116.657" y2="111.242" gradientUnits="userSpaceOnUse">
<stop stop-color="#DA6000"/>
<stop offset="1" stop-color="#C51400"/>
</linearGradient>
<linearGradient id="paint2_linear_300_1577" x1="198.314" y1="17.3875" x2="198.314" y2="103.935" gradientUnits="userSpaceOnUse">
<stop stop-color="#DA6000"/>
<stop offset="1" stop-color="#C51400"/>
</linearGradient>
<linearGradient id="paint3_linear_300_1577" x1="259.155" y1="36.1883" x2="259.155" y2="99.3732" gradientUnits="userSpaceOnUse">
<stop stop-color="#DA6000"/>
<stop offset="1" stop-color="#C51400"/>
</linearGradient>
<linearGradient id="paint4_linear_300_1577" x1="322.799" y1="1.16412e-10" x2="322.799" y2="96.8881" gradientUnits="userSpaceOnUse">
<stop stop-color="#DA6000"/>
<stop offset="1" stop-color="#C51400"/>
</linearGradient>
<linearGradient id="paint5_linear_300_1577" x1="429.248" y1="26.6619" x2="429.248" y2="91.3343" gradientUnits="userSpaceOnUse">
<stop stop-color="#DA6000"/>
<stop offset="1" stop-color="#C51400"/>
</linearGradient>
<linearGradient id="paint6_linear_300_1577" x1="485.99" y1="22.4676" x2="485.99" y2="90.1662" gradientUnits="userSpaceOnUse">
<stop stop-color="#DA6000"/>
<stop offset="1" stop-color="#C51400"/>
</linearGradient>
<linearGradient id="paint7_linear_300_1577" x1="544.272" y1="22.1873" x2="544.272" y2="81.8768" gradientUnits="userSpaceOnUse">
<stop stop-color="#DA6000"/>
<stop offset="1" stop-color="#C51400"/>
</linearGradient>
<linearGradient id="paint8_linear_300_1577" x1="597.877" y1="21.0418" x2="597.877" y2="81.7918" gradientUnits="userSpaceOnUse">
<stop stop-color="#DA6000"/>
<stop offset="1" stop-color="#C51400"/>
</linearGradient>
<linearGradient id="paint9_linear_300_1577" x1="375.938" y1="25.323" x2="375.938" y2="95.74" gradientUnits="userSpaceOnUse">
<stop stop-color="#DA6000"/>
<stop offset="1" stop-color="#C51400"/>
</linearGradient>
</defs>
</svg>
