<svg preserveAspectRatio="none" width="100%" height="100%" overflow="visible" style="display: block;" viewBox="0 0 98.4211 110" fill="none" xmlns="http://www.w3.org/2000/svg">
<g id="Frame 185">
<g clip-path="url(#clip0_300_1625)">
<path id="Vector" d="M98.1617 112.95C97.8429 111.953 97.3094 111.053 96.6307 110.304C96.7191 109.076 96.2456 107.872 95.4565 106.905C95.466 105.937 95.4565 104.972 95.4155 104.005C95.2482 99.7168 94.7747 95.2602 93.6036 91.1218C92.8934 88.6102 91.7981 86.1877 90.204 84.1758C90.0777 83.727 89.942 83.2782 89.7937 82.8357C89.6421 82.39 89.478 81.9507 89.3012 81.5178C87.8492 75.3135 84.9136 69.3798 78.4995 67.8486C77.4894 67.6067 76.4794 67.4857 75.4724 67.4189C74.2445 67.0273 72.9977 66.6931 71.7287 66.4321C70.6019 66.2029 69.4434 65.9928 68.2786 65.8591C67.9851 65.7126 67.6915 65.5598 67.4043 65.3911C66.7572 65.0123 66.1448 64.573 65.5577 64.1019C64.8222 63.6562 64.0836 63.2201 63.2755 62.9049C62.458 62.5866 62.076 61.6412 62.2244 60.8517C62.0287 60.8231 61.833 60.7944 61.6278 60.7689C61.1228 60.7021 60.6335 60.7403 60.1663 60.8485C60.0117 60.4347 59.8475 60.0304 59.6739 59.6293L58.5944 56.5128C59.0994 53.2563 59.6865 50.0157 60.3494 46.7878C60.6619 46.6987 60.9744 46.5968 61.2774 46.4854C61.4605 46.4408 61.6373 46.3867 61.814 46.3294C61.8298 46.062 61.9245 45.7978 62.1234 45.5686C62.3443 45.3076 62.5842 45.0879 62.8368 44.9065C63.2155 44.394 63.6512 43.8942 64.1341 43.6586C64.5192 43.474 65.0558 43.4326 65.4788 43.6045C65.5388 43.5631 65.6019 43.5217 65.6587 43.4772C67.6852 41.9364 69.2635 39.5712 68.8594 36.9418C68.6827 36.3083 68.427 35.6876 68.1366 35.0732C68.0356 34.8631 67.9851 34.6562 67.9693 34.462C67.7105 33.9845 67.4106 33.5357 67.0697 33.1218C67.2938 32.2051 67.3538 31.2469 67.2307 30.311C67.177 29.9099 67.0918 29.512 66.9845 29.1204C67.3127 28.2991 67.581 27.4555 67.7925 26.5961C68.0009 26.3828 68.1997 26.1599 68.386 25.9339C68.6101 24.3836 68.7932 22.827 68.9036 21.264C68.8184 20.1307 68.7048 19.0007 68.5659 17.8706C67.8746 16.2153 66.7856 14.786 65.3431 13.5922C65.0116 13.3184 64.8222 12.9842 64.7433 12.6372C64.5823 12.5035 64.4277 12.3698 64.2793 12.2393C62.8115 10.9278 61.6057 9.46982 61.3469 7.54073C61.1228 7.37202 60.8797 7.2224 60.6177 7.09507C60.1884 6.88815 59.756 6.71625 59.3267 6.57619C58.5218 5.66257 57.4769 5.04501 56.2049 4.55478C55.34 4.22053 54.453 4.00407 53.5502 3.87355C53.2472 3.65709 52.9315 3.45335 52.6032 3.26872C52.5433 3.16367 52.477 3.06181 52.4107 2.95994C50.2201 2.54929 47.9189 3.03952 45.7914 3.59342C43.2157 4.26828 40.7378 5.11505 38.2631 6.10824C36.2713 6.90725 34.2984 7.69035 32.3004 8.36839C31.4923 10.0906 30.4064 11.679 29.147 13.1147C28.784 14.1175 28.2821 15.0725 27.6192 15.9447C27.5939 16.0847 27.5655 16.2248 27.5371 16.3649C27.5592 16.5113 27.5813 16.6546 27.6097 16.7978C27.6003 17.0079 27.5971 17.2212 27.6097 17.4408C27.4235 17.6541 27.2499 17.8801 27.0921 18.1316C27.0636 18.2017 27.0384 18.2685 27.0131 18.3322C26.9847 18.4213 26.9532 18.5009 26.9153 18.5773C26.909 18.5932 26.9027 18.6091 26.8964 18.625C26.4576 21.385 26.5965 24.0908 26.9626 26.8062C27.1331 27.029 27.313 27.2359 27.4993 27.4269C27.7518 29.652 28.6135 31.6989 30.1002 33.2746C29.5794 33.7458 29.1343 34.3506 28.8124 35.1051C27.8086 37.4575 28.3673 39.7304 29.5478 41.7423C30.8136 42.2007 31.6533 42.9774 32.2562 43.9324C32.3256 43.9801 32.3919 44.0279 32.4613 44.0756C32.4582 44.0788 32.455 44.082 32.4519 44.0884C32.5655 44.1775 32.6823 44.273 32.7959 44.3749C33.3104 44.8333 33.3673 45.4158 33.1621 45.9251C33.2094 46.0716 33.2568 46.218 33.3041 46.3644C33.4241 46.4472 33.544 46.5236 33.6703 46.5873C34.2984 47.2462 34.8824 47.937 35.3433 48.7424C36.0598 49.9966 36.4323 51.0184 36.9626 52.3141C37.092 52.626 37.2214 52.9348 37.354 53.2404C36.5933 53.7402 36.0882 54.5869 36.0819 55.5801C36.0787 56.4587 36.0724 57.3373 36.0693 58.2159C36.1513 58.4515 36.2334 58.6839 36.3376 58.9131C36.8868 60.1259 35.6715 61.8417 34.3079 61.221C34.2132 61.1764 34.1185 61.1286 34.0207 61.0841C32.8464 62.7649 31.1387 63.9459 29.248 64.9263C29.2385 64.9773 29.229 65.0282 29.2227 65.0791C29.087 65.0982 28.9544 65.1205 28.8218 65.1428C28.6987 65.2033 28.5725 65.2606 28.4494 65.3211C24.6079 65.1778 20.7316 65.6872 17.2784 67.056C14.1629 68.2879 12.2058 70.7168 10.6244 73.6072C9.53851 75.5905 8.64205 77.6914 7.94761 79.8529C6.99434 80.9639 6.11998 82.1449 5.33084 83.3896C5.31821 83.7716 5.27718 84.1758 5.23614 84.6088C5.06885 86.4551 4.52276 88.225 4.03034 90.0013C2.93502 93.9614 2.51836 98.1251 2.29424 102.219C2.25952 102.852 1.94702 103.279 1.5272 103.511C1.65347 105.698 1.21155 108.127 1.18945 109.821C1.18945 109.827 1.18945 109.833 1.18945 109.843C1.36622 110.483 1.56824 111.116 1.7892 111.743C1.745 112.686 1.72607 113.631 1.73869 114.577C1.74816 115.309 1.88389 115.974 2.11432 116.576H2.34475C2.38263 116.557 2.42051 116.541 2.45838 116.522C2.47101 116.598 2.48995 116.671 2.50573 116.748H98.0543C98.4836 115.547 98.5594 114.23 98.149 112.95H98.1617Z" fill="var(--fill-0, white)"/>
<path id="Vector_2" d="M69.1817 17.2623C68.1242 13.3023 65.8326 9.51096 62.695 6.87836C59.0366 3.80964 54.9772 2.11612 50.2393 1.66727C50.2266 1.66727 50.2172 1.66727 50.2045 1.66727C49.9426 1.48901 49.6521 1.33621 49.3333 1.21524C47.3605 0.454428 45.1162 0.718643 43.2254 1.66727C41.7513 2.03654 40.3214 2.5777 38.9799 3.29713C37.5752 4.05157 36.2621 5.13708 35.4256 6.51546C34.9079 7.37177 34.6807 8.34905 34.3776 9.28176C31.3379 11.3891 29.0304 13.853 27.8373 17.447C27.4616 18.577 27.5153 19.8599 27.8846 21.0632C27.5185 21.9259 27.1807 22.8013 26.9219 23.6958C26.9219 23.7149 26.9282 23.734 26.9313 23.7531C27.2123 25.8605 27.2912 27.9837 27.3133 30.107C28.0298 30.9538 29.1472 31.3421 30.5077 31.1129C31.8114 30.8933 32.9824 30.3362 33.9799 29.5499C33.8 29.2634 33.7053 28.926 33.7558 28.579C34.0241 26.7168 34.9332 25.3034 36.3442 24.0969C37.067 23.4793 37.894 23.6321 38.4527 24.1128C38.5443 24.0237 38.6327 23.9346 38.7179 23.8359C39.2829 23.1706 39.8858 22.5434 40.5266 21.9514C41.524 21.8654 42.5215 21.6649 43.4622 21.3147C45.5139 21.7986 47.7456 21.5789 49.7027 20.7417C50.1288 20.9613 50.5675 21.1555 51.0158 21.3211C51.0473 21.2447 51.0821 21.1683 51.1231 21.095C51.2999 20.7926 51.5587 20.5793 51.8396 20.3915C52.0637 19.6721 52.7929 19.2392 53.541 19.2392H53.7241C54.2891 19.2392 54.9204 19.7039 55.1509 20.2546C55.3024 20.4074 55.4286 20.5634 55.5454 20.7449C55.8832 20.7353 56.2335 20.8213 56.5492 20.9964C56.5902 21.0186 56.6313 21.0409 56.6723 21.0632C56.6881 21.0568 56.7007 21.0505 56.7165 21.0441C56.7228 21.0632 56.7291 21.0791 56.7354 21.0982C57.9097 21.7317 59.1723 22.1933 60.2266 23.0369C60.8831 23.5653 61.183 24.428 60.7853 25.1983C60.9747 25.2684 61.1641 25.3352 61.3566 25.3861C61.5492 26.1883 61.6975 26.9969 61.7891 27.815C61.9816 29.5436 63.118 31.0333 64.9803 31.0333C66.6186 31.0333 68.2884 29.5595 68.1716 27.815C68.1527 27.5094 68.14 27.207 68.1337 26.9046C68.4904 26.3857 68.7019 25.7618 68.705 25.0965C68.705 24.0269 68.7082 22.9573 68.7114 21.8909C69.4058 20.5189 69.6268 18.9049 69.188 17.2623H69.1817Z" fill="var(--fill-0, #606761)"/>
<path id="Vector_3" d="M41.9746 115.93C42.0882 116.07 42.1672 116.222 42.2208 116.382H54.8786C54.0484 112.087 53.234 107.656 52.6311 103.196C51.7346 96.5878 51.3022 89.9251 51.9619 83.5839C52.0219 83.0141 51.8672 82.4761 51.58 82.005C51.7694 80.8845 51.9619 79.764 52.1608 78.6466C52.5553 77.9845 52.8457 77.2555 53.0036 76.482C53.2529 75.2691 52.9215 74.0276 52.0471 73.2413C51.9114 72.8562 51.7441 72.4774 51.5389 72.1176C51.3085 71.7134 51.0213 71.395 50.7056 71.1531C50.4215 67.5814 45.6173 66.9448 44.4462 70.3891C43.9096 71.968 43.2562 73.4642 42.4765 74.9381C41.8389 76.1413 41.962 77.3255 42.5586 78.2232C42.1356 79.9231 42.9816 81.9891 45.0901 82.3042C44.0516 82.1483 42.4733 107.532 41.9746 115.933V115.93Z" fill="var(--fill-0, #EDD41E)"/>
<path id="Vector_4" d="M47.4376 57.2585C47.2609 57.2585 47.0841 57.2553 46.9042 57.249C40.0134 56.972 34.1359 51.4904 31.8064 43.2328C29.3127 42.6726 27.5356 39.8108 27.6713 36.3951C27.7944 33.2531 29.5242 30.6269 31.8759 30.0062C32.3272 29.8852 32.7881 30.159 32.908 30.6142C33.0248 31.0694 32.7565 31.5342 32.3051 31.6551C30.6922 32.0817 29.4548 34.1031 29.3632 36.4619C29.2559 39.1773 30.6795 41.4916 32.5387 41.6221C32.9017 41.6475 33.2048 41.9022 33.2963 42.2556C35.326 50.0738 40.6952 55.2912 46.9736 55.5459C53.4161 55.8037 59.4135 50.6404 61.8946 42.6917C61.964 42.472 62.1155 42.2906 62.3176 42.1887C62.5196 42.0837 62.7563 42.0677 62.971 42.141C63.1888 42.2142 63.4129 42.2556 63.637 42.2651C64.4987 42.2938 65.3636 41.8449 66.0455 40.9854C66.7872 40.0495 67.226 38.7698 67.2828 37.3787C67.3365 35.9908 67.0019 34.6793 66.3359 33.6861C65.7235 32.7725 64.9091 32.2536 64.0379 32.2154C63.5707 32.1963 63.2077 31.8016 63.2267 31.3304C63.2456 30.8593 63.6338 30.4868 64.1042 30.5123C65.5246 30.5696 66.8156 31.3559 67.7342 32.7311C68.5991 34.0235 69.041 35.6979 68.9716 37.4488C68.9021 39.1996 68.3308 40.8326 67.3649 42.0518C66.339 43.3443 64.9975 44.0318 63.5707 43.9682C63.4697 43.965 63.3655 43.9554 63.2645 43.9427C60.4836 52.0029 54.2431 57.2585 47.4408 57.2585H47.4376Z" fill="var(--fill-0, black)"/>
<path id="Vector_5" d="M97.9436 114.487C97.7605 105.886 96.9398 97.2339 94.3956 88.9859C93.1583 84.9749 91.5611 81.0213 89.4998 77.3636C87.6596 74.1007 85.3427 71.0448 82.284 68.8546C80.4153 67.5176 78.3099 66.6454 76.0814 66.1456C73.7518 65.6236 71.3686 65.4198 69.0486 64.8468C67.969 64.5794 67.5082 66.2602 68.5877 66.5276C72.5334 67.5049 76.7284 67.4794 80.3111 69.6345C83.3351 71.4522 85.6267 74.2599 87.4355 77.2618C89.503 80.687 91.0844 84.4242 92.3376 88.2219C93.6381 92.1565 94.5471 96.212 95.15 100.312C95.8413 105.001 96.1128 109.747 96.2138 114.484C96.2391 115.605 97.9657 115.608 97.9404 114.484L97.9436 114.487Z" fill="var(--fill-0, black)"/>
<path id="Vector_6" d="M2.54177 114.767C1.43698 110.498 1.78736 106.095 2.365 101.772C2.92371 97.5832 3.61815 93.4417 4.86183 89.3957C6.01713 85.6426 7.59855 82.0391 9.52405 78.6234C11.298 75.4815 13.4476 72.4764 16.298 70.2386C17.952 68.9398 19.7891 68.0548 21.7998 67.4818C23.9558 66.8706 26.1748 66.53 28.3339 65.9347C29.4639 65.6227 28.9841 63.8465 27.8478 64.1584C25.8623 64.706 23.8295 65.037 21.8377 65.5623C19.8744 66.078 17.9867 66.826 16.298 67.9752C13.1446 70.124 10.6951 73.1354 8.71282 76.3792C6.62634 79.8012 4.91234 83.5002 3.615 87.2979C2.20402 91.4331 1.37069 95.686 0.770949 100.009C0.0670396 105.083 -0.529547 110.218 0.774106 115.251C1.07082 116.397 2.83217 115.91 2.53546 114.76L2.54177 114.767Z" fill="var(--fill-0, black)"/>
<path id="Vector_7" d="M35.2224 51.3216C35.4402 54.5017 35.6612 57.6786 35.879 60.8588C35.9137 61.3554 36.2736 61.7788 36.7912 61.7788C37.2584 61.7788 37.7382 61.3554 37.7035 60.8588C37.4857 57.6786 37.2647 54.5017 37.0469 51.3216C37.0122 50.825 36.6523 50.4016 36.1347 50.4016C35.6675 50.4016 35.1877 50.825 35.2224 51.3216Z" fill="var(--fill-0, black)"/>
<path id="Vector_8" d="M58.4102 50.777V60.8459C58.4102 62.03 60.2346 62.0332 60.2346 60.8459V50.777C60.2346 49.5928 58.4102 49.5897 58.4102 50.777Z" fill="var(--fill-0, black)"/>
<path id="Vector_9" d="M65.1095 65.6746C64.3709 63.7837 63.487 61.9564 62.4391 60.2184C62.1865 59.8013 61.6152 59.6199 61.1891 59.8873C57.1613 62.4117 52.7106 64.5572 47.9284 64.9901C47.4044 65.0379 46.811 65.5504 47.0477 66.1552C48.2314 69.1603 49.4436 72.1494 50.6872 75.1322C50.924 75.6988 51.4511 75.9758 52.0288 75.6829C55.2958 74.018 58.4776 72.1908 61.5678 70.2108C62.5558 69.5773 61.6404 67.9825 60.6461 68.6223C57.559 70.6023 54.3741 72.4296 51.1071 74.0944C51.5553 74.2791 52.0004 74.4605 52.4486 74.6451C51.2081 71.6656 49.9928 68.6732 48.8091 65.6682C48.5155 66.0566 48.222 66.4449 47.9284 66.8333C53.0452 66.3717 57.7926 64.1879 62.1108 61.4789L60.8608 61.1479C61.8267 62.7459 62.6663 64.4203 63.3481 66.1648C63.5281 66.6264 63.9605 66.9479 64.4719 66.8078C64.9075 66.6869 65.2926 66.1393 65.1095 65.6746Z" fill="var(--fill-0, black)"/>
<path id="Vector_10" d="M32.9183 64.6878C33.8306 63.303 34.5376 61.7941 35.0395 60.212C34.5313 60.3489 34.0231 60.4826 33.5149 60.6195C34.0957 61.132 34.7744 61.5554 35.4215 61.9724C36.46 62.6441 37.5206 63.2839 38.597 63.8951C39.7586 64.5573 40.9391 65.1875 42.1512 65.751C43.1992 66.238 44.2914 66.7315 45.4277 66.9766C46.3116 67.1676 47.6783 67.2599 48.1139 66.2221C47.5584 65.9866 47.0028 65.7478 46.4473 65.5122C45.2636 68.5173 44.0515 71.5064 42.811 74.4892C43.2592 74.3046 43.7043 74.1231 44.1525 73.9385C40.6898 72.1717 37.3186 70.2236 34.0547 68.1035C33.0635 67.4604 32.1481 69.0521 33.133 69.6919C36.3969 71.812 39.7649 73.7602 43.2308 75.527C43.8084 75.823 44.3356 75.5429 44.5723 74.9762C45.8128 71.9967 47.0281 69.0043 48.2118 65.9993C48.5906 65.0379 46.946 64.3312 46.5451 65.2894C46.5041 65.3849 46.3778 65.525 46.5893 65.2671C46.4473 65.4358 46.6588 65.2289 46.6304 65.2448C46.4599 65.3594 46.7566 65.2226 46.6903 65.2257C46.6619 65.2257 46.6272 65.2449 46.5988 65.2512C46.3905 65.3053 46.6746 65.2448 46.6746 65.248C46.6556 65.2926 46.2832 65.2512 46.2421 65.248C45.9486 65.2321 46.3968 65.2862 46.1664 65.2385C46.0653 65.2194 45.9675 65.2003 45.8665 65.178C45.393 65.0729 44.9322 64.9138 44.4776 64.7451C44.2346 64.6527 43.9947 64.5573 43.7579 64.4554C43.9599 64.5413 43.5591 64.3694 43.4991 64.3408C43.3602 64.2771 43.2181 64.2135 43.0793 64.1498C40.8444 63.112 38.6948 61.8705 36.6178 60.5431C36.2043 60.2789 35.7908 60.0083 35.3868 59.7282C35.2416 59.6263 35.0932 59.5244 34.9512 59.4162C34.9227 59.3971 34.8975 59.3748 34.8691 59.3557C34.7113 59.2411 35.0301 59.499 34.9354 59.4098C34.8943 59.3716 34.8501 59.3398 34.8091 59.3048C34.2851 58.8432 33.5023 59.0246 33.2845 59.7122C32.83 61.1479 32.1734 62.4945 31.3464 63.7487C31.0718 64.1625 31.2675 64.7673 31.6747 65.0093C32.1229 65.2735 32.65 65.0952 32.9247 64.6782L32.9183 64.6878Z" fill="var(--fill-0, black)"/>
<path id="Vector_11" d="M40.571 75.5588C41.0129 76.6921 41.4895 77.8094 42.0167 78.9045C42.2723 79.4393 42.5406 79.9677 42.8184 80.4898C43.0836 80.9896 43.3392 81.5339 43.7591 81.9254C44.6776 82.7786 46.1233 82.5144 47.2691 82.4984C48.5286 82.4825 49.7912 82.4666 51.0507 82.4507C51.4894 82.4443 51.7767 82.161 51.9314 81.7758C52.7457 79.7258 53.5601 77.6757 54.3777 75.6257C54.5608 75.1641 54.1788 74.6134 53.7401 74.4924C53.2192 74.3492 52.8026 74.6707 52.6163 75.1354C51.8019 77.1855 50.9876 79.2355 50.17 81.2856C50.4636 81.0596 50.7571 80.8336 51.0507 80.6107C49.9175 80.6267 48.7874 80.6394 47.6542 80.6553C47.1145 80.6617 46.5747 80.668 46.0349 80.6744C45.7161 80.6776 45.2016 80.7858 44.968 80.5407C44.6871 80.251 44.5135 79.7863 44.3272 79.4297C44.0747 78.949 43.8317 78.4652 43.5949 77.975C43.1372 77.0231 42.7174 76.0554 42.3323 75.0686C42.1524 74.607 41.7199 74.2855 41.2086 74.4256C40.773 74.5465 40.391 75.0941 40.571 75.5588Z" fill="var(--fill-0, black)"/>
<path id="Vector_12" d="M43.9037 83.4627C43.0924 91.4878 42.5148 99.5353 41.9182 107.583C41.7477 109.865 41.5773 112.151 41.4005 114.433C41.3626 114.93 41.8487 115.353 42.3128 115.353C42.8399 115.353 43.1871 114.93 43.225 114.433C43.85 106.389 44.3866 98.3352 45.0874 90.2941C45.2862 88.0148 45.4977 85.7388 45.7281 83.4627C45.7786 82.9661 45.2736 82.5427 44.8159 82.5427C44.2793 82.5427 43.9542 82.9661 43.9037 83.4627Z" fill="var(--fill-0, black)"/>
<path id="Vector_13" d="M54.6795 113.045C53.4801 105.485 52.7509 97.8607 51.9365 90.2494C51.7029 88.0847 51.463 85.9201 51.2042 83.7586C51.1442 83.2652 50.8286 82.8386 50.292 82.8386C49.8437 82.8386 49.3197 83.262 49.3797 83.7586C50.3046 91.4654 50.9769 99.2009 51.9712 106.898C52.2585 109.114 52.5678 111.326 52.9182 113.532C52.9971 114.022 53.6032 114.296 54.0419 114.175C54.5596 114.032 54.7585 113.535 54.6795 113.042V113.045Z" fill="var(--fill-0, black)"/>
<path id="Vector_14" d="M50.5013 17.7491C50.5108 17.7969 50.5202 17.8415 50.5297 17.8892C50.5676 18.0611 50.5139 17.6409 50.5265 17.8542C50.5328 17.9497 50.5392 18.042 50.536 18.1375C50.536 18.1916 50.5328 18.2457 50.5297 18.303C50.5234 18.3826 50.476 18.5227 50.5423 18.2457C50.5202 18.3381 50.5108 18.4304 50.4855 18.5227C50.4634 18.615 50.435 18.7041 50.4034 18.7933C50.3876 18.8378 50.3687 18.8824 50.3529 18.927C50.4382 18.6691 50.4003 18.8124 50.3687 18.8792C50.2835 19.0575 50.1762 19.223 50.0625 19.3886C50.0089 19.465 50.214 19.2007 50.0878 19.3535C50.0562 19.3886 50.0278 19.4268 49.9962 19.4618C49.9268 19.5382 49.8542 19.6114 49.7784 19.6814C49.7437 19.7133 49.7058 19.7419 49.6711 19.7737C49.5512 19.8788 49.8479 19.6496 49.709 19.7451C49.6332 19.7992 49.5543 19.8533 49.4754 19.9011C49.3933 19.9488 49.3113 19.9902 49.2292 20.0316C49.0745 20.108 49.4281 19.9584 49.2765 20.0125C49.2324 20.0284 49.1882 20.0443 49.144 20.0602C49.0556 20.0889 48.964 20.1143 48.8725 20.1334C48.8378 20.1398 48.6263 20.1716 48.8094 20.1462C48.9925 20.1207 48.7778 20.1462 48.7431 20.1462C48.2664 20.1748 47.8088 20.5505 47.8308 21.0662C47.8529 21.5405 48.2317 22.018 48.7431 21.9861C51.0347 21.8493 52.7835 19.5254 52.2658 17.2621C52.1585 16.791 51.5998 16.4695 51.1421 16.6191C50.656 16.7782 50.3908 17.2494 50.5044 17.7523L50.5013 17.7491Z" fill="var(--fill-0, black)"/>
<path id="Vector_15" d="M45.6796 18.6668C45.5596 18.8737 45.4271 19.0679 45.2913 19.2652C45.1935 19.4085 45.3545 19.192 45.285 19.278C45.2471 19.3225 45.2124 19.3703 45.1745 19.4149C45.0988 19.5072 45.0199 19.5963 44.941 19.6823C44.78 19.8573 44.6095 20.0229 44.4327 20.1788C44.3444 20.2584 44.2528 20.3316 44.1613 20.408C44.256 20.3316 44.2276 20.3571 44.1487 20.4144C44.1013 20.4494 44.054 20.4844 44.0035 20.5195C43.8109 20.6563 43.6089 20.7805 43.4006 20.8951C43.2964 20.9524 43.1922 21.0065 43.0849 21.0606C43.0439 21.0829 42.9997 21.102 42.9555 21.1211C42.9523 21.1211 42.7472 21.2166 42.8703 21.1625C42.9934 21.1084 42.8071 21.188 42.7819 21.1975C42.7282 21.2198 42.6714 21.2389 42.6146 21.2612C42.5041 21.3026 42.3905 21.3376 42.28 21.3726C42.0432 21.4426 41.8002 21.4999 41.5571 21.5445C41.0868 21.6304 40.7775 22.2321 40.9195 22.6778C41.0837 23.1871 41.5382 23.4131 42.0432 23.3208C44.2055 22.9229 46.1468 21.5095 47.2515 19.6027C47.4914 19.1857 47.3589 18.5745 46.9233 18.3421C46.4845 18.1097 45.9321 18.2275 45.6733 18.6731L45.6796 18.6668Z" fill="var(--fill-0, black)"/>
<path id="Vector_16" d="M36.3685 5.82541C32.7795 7.46164 30.3237 11.1543 28.7612 14.6687C27.1229 18.3549 26.3022 22.4009 26.4285 26.4437C26.4979 28.7007 26.8546 30.9513 27.5017 33.1128C27.8395 34.2429 29.604 33.7622 29.2631 32.6226C27.1229 25.4665 28.4108 17.3713 32.7858 11.3166C33.9663 9.68041 35.4499 8.25428 37.2933 7.41389C37.7415 7.21016 37.852 6.55121 37.6216 6.1533C37.3501 5.68853 36.823 5.6185 36.3716 5.82223L36.3685 5.82541Z" fill="var(--fill-0, black)"/>
<path id="Vector_17" d="M42.067 3.70185C44.8195 1.5372 48.4843 1.50218 51.7103 2.41261C53.3864 2.88692 54.9584 3.6159 56.4861 4.44993C57.935 5.24258 59.387 6.16255 60.6654 7.15893C63.0612 9.02117 65.0909 11.2304 66.5145 13.8789C67.8307 16.3237 68.5031 19.0454 68.4368 21.8467C68.3547 25.428 67.0385 28.9551 65.1635 32.0811C64.5543 33.0966 66.1325 34.0229 66.7386 33.0106C68.5946 29.9196 69.9141 26.488 70.2076 22.8686C70.4601 19.7585 69.8541 16.6452 68.5315 13.8343C67.1616 10.9184 65.0183 8.38769 62.5562 6.34719C59.7689 4.03292 56.5051 2.06881 53.0707 0.913268C51.0916 0.247955 48.9515 -0.124493 46.8618 0.0378562C44.6112 0.216122 42.55 1.0024 40.7697 2.40306C40.3814 2.70866 40.4509 3.38352 40.7697 3.70503C41.1548 4.0934 41.6693 4.01063 42.0607 3.70503L42.067 3.70185Z" fill="var(--fill-0, black)"/>
<path id="Vector_18" d="M53.5907 19.8158C55.2447 21.4042 57.2744 22.563 59.484 23.1614C59.9448 23.2856 60.4972 23.0054 60.6077 22.5184C60.7182 22.0345 60.4625 21.5188 59.9701 21.3851C59.4808 21.2514 58.9979 21.0923 58.5275 20.9045C58.5118 20.8981 58.3571 20.8344 58.4234 20.8631C58.5054 20.8981 58.2971 20.8058 58.2782 20.7994C58.1645 20.7485 58.0541 20.6975 57.9436 20.6434C57.7068 20.5288 57.4764 20.4079 57.2491 20.2773C56.3022 19.7394 55.6361 19.2396 54.8849 18.517C54.5377 18.1859 53.9316 18.1445 53.5939 18.517C53.2656 18.8767 53.2245 19.4624 53.5939 19.819L53.5907 19.8158Z" fill="var(--fill-0, black)"/>
<path id="Vector_19" d="M59.3612 22.4429C59.9168 25.3811 60.9837 28.2174 62.4862 30.7959C63.0796 31.8177 64.6579 30.8914 64.0613 29.8664C62.6314 27.412 61.6466 24.7476 61.1194 21.9527C61.0279 21.4656 60.4439 21.1855 59.9957 21.3096C59.4875 21.4497 59.2665 21.9527 59.3581 22.4429H59.3612Z" fill="var(--fill-0, black)"/>
<path id="Vector_20" d="M38.3886 21.5704C38.0635 21.9111 37.7258 22.2358 37.3722 22.5445C37.1891 22.7037 37.0029 22.8533 36.8167 23.0061C36.7093 23.0952 36.924 22.9265 36.8104 23.0093C36.7567 23.0507 36.703 23.0921 36.6494 23.1303C36.5515 23.2035 36.4568 23.2735 36.359 23.3435C35.5856 23.8943 34.7586 24.3718 33.9 24.7697C33.4644 24.9702 33.3224 25.6387 33.5717 26.0303C33.8621 26.4823 34.3546 26.5778 34.8217 26.3613C36.6367 25.5209 38.2939 24.3208 39.6797 22.8724C40.0111 22.5254 40.049 21.9111 39.6797 21.5704C39.3198 21.2394 38.7422 21.2012 38.3886 21.5704Z" fill="var(--fill-0, black)"/>
<path id="Vector_21" d="M33.7685 25.6123C33.0678 27.3886 32.367 29.1617 31.6662 30.938C31.4895 31.3869 31.8588 31.9694 32.3039 32.0713C32.831 32.1922 33.2382 31.9089 33.4276 31.4282C34.1284 29.6519 34.8291 27.8788 35.5299 26.1025C35.7066 25.6537 35.3373 25.0712 34.8922 24.9693C34.3651 24.8483 33.9579 25.1316 33.7685 25.6123Z" fill="var(--fill-0, black)"/>
<path id="Vector_22" d="M53.5522 35.4174C54.8843 35.4174 54.8874 33.3291 53.5522 33.3291C52.217 33.3291 52.217 35.4174 53.5522 35.4174Z" fill="var(--fill-0, black)"/>
<path id="Vector_23" d="M42.351 35.433C43.6831 35.433 43.6862 33.3447 42.351 33.3447C41.0158 33.3447 41.0158 35.433 42.351 35.433Z" fill="var(--fill-0, black)"/>
<path id="Vector_24" d="M46.4102 40.9602C47.3319 41.9121 48.9796 41.9121 49.9076 40.9698C50.138 40.7374 50.157 40.314 49.9076 40.0817C49.6614 39.8525 49.2732 39.8334 49.0269 40.0817C48.9859 40.123 48.9354 40.1581 48.8975 40.2026C48.9102 40.1867 49.0112 40.123 48.9417 40.1676C48.9165 40.1835 48.8944 40.2026 48.8691 40.2154C48.8218 40.2472 48.7713 40.2758 48.7176 40.3013C48.6955 40.314 48.6576 40.3236 48.6387 40.3395C48.6545 40.3268 48.7713 40.2886 48.6892 40.3172C48.5787 40.3554 48.4682 40.3904 48.3514 40.4127C48.3293 40.4159 48.3041 40.4191 48.282 40.4255C48.4588 40.3904 48.3704 40.4127 48.3262 40.4159C48.2694 40.4223 48.2094 40.4223 48.1494 40.4223C48.0958 40.4223 48.0453 40.4223 47.9916 40.4159C47.9663 40.4159 47.859 40.4 47.9695 40.4159C48.0831 40.4318 47.9663 40.4159 47.9474 40.4095C47.8369 40.3873 47.7359 40.3459 47.6286 40.3204C47.5623 40.3013 47.7738 40.3904 47.6633 40.3363C47.6412 40.3268 47.6223 40.3172 47.6002 40.3045C47.5497 40.279 47.4992 40.2504 47.4487 40.2185C47.4234 40.2026 47.4013 40.1835 47.3761 40.1708C47.3161 40.1358 47.496 40.2727 47.4045 40.1931C47.3603 40.1549 47.3161 40.1135 47.2751 40.0721C47.0478 39.8365 46.6217 39.8238 46.3944 40.0721C46.164 40.3236 46.1513 40.7088 46.3944 40.9602H46.4102Z" fill="var(--fill-0, black)"/>
<path id="Vector_25" d="M44.0196 46.0942C46.4817 47.6986 49.6761 47.7559 52.2076 46.2757C52.8989 45.8714 52.2739 44.7859 51.5795 45.1933C49.4141 46.4603 46.7468 46.3807 44.6477 45.0119C43.9722 44.5726 43.3504 45.6581 44.0196 46.0942Z" fill="var(--fill-0, black)"/>
</g>
</g>
<defs>
<clipPath id="clip0_300_1625">
<rect width="98.4211" height="110" rx="49.2105" fill="white"/>
</clipPath>
</defs>
</svg>
