<svg preserveAspectRatio="none" width="100%" height="100%" overflow="visible" style="display: block;" viewBox="0 0 526.556 134.059" fill="none" xmlns="http://www.w3.org/2000/svg">
<g id="Group 14">
<g id="Vector">
<path d="M5.11567 78.1622L5.89222 65.7555C5.97851 64.5451 6.51778 63.8534 7.42376 63.8102L43.1453 61.8433L44.116 46.497L14.0029 48.1613C13.0754 48.2045 12.6224 47.5777 12.6871 46.3673L13.4421 34.22C13.5283 33.0096 14.0676 32.3179 14.9736 32.2747L45.0867 30.6104L46.1005 14.3347C46.1868 13.1243 46.7261 12.4326 47.6536 12.3894L58.2449 11.8058C59.1509 11.7626 59.6255 12.3894 59.5608 13.5998L58.5469 29.8755L88.7678 28.2112C89.6954 28.1679 90.1484 28.7948 90.0837 30.0052L89.3287 42.1525C89.2424 43.3629 88.7031 44.0546 87.7972 44.0978L57.5762 45.7621L56.6055 61.1084L92.4133 59.1198C93.3193 59.0766 93.7939 59.7034 93.7292 60.9138L92.9526 73.3205C92.8879 74.5309 92.3271 75.2226 91.4211 75.2658L60.4883 76.9734C68.6853 89.9421 80.3767 100.728 92.8663 106.953C93.7507 107.428 93.9017 108.358 93.4056 109.438L87.3873 122.796C86.9127 123.877 86.1793 124.201 85.4028 123.704C72.6975 116.16 61.6747 104.272 54.0602 91.6712L52.1619 131.528C52.0756 132.717 51.5364 133.43 50.6304 133.474L40.0391 134.057C39.1331 134.1 38.6585 133.474 38.7232 132.263L41.8294 92.6006C32.5324 106.672 19.9349 119.878 6.51778 128.459C6.21579 128.61 6.00008 128.762 5.69809 128.762C5.28824 128.783 4.89996 128.416 4.64111 127.746L0.154349 115.015C0.0680654 114.626 -0.0182185 114.366 0.0033525 114.085C0.0464944 113.415 0.39163 112.875 1.01719 112.443C14.3696 104.921 27.2043 92.6439 36.6308 78.2919L6.40993 79.9562C5.48238 79.9994 5.02939 79.3726 5.0941 78.1622H5.11567Z" fill="url(#paint0_linear_300_1568)"/>
<path d="M5.11567 78.1622L5.89222 65.7555C5.97851 64.5451 6.51778 63.8534 7.42376 63.8102L43.1453 61.8433L44.116 46.497L14.0029 48.1613C13.0754 48.2045 12.6224 47.5777 12.6871 46.3673L13.4421 34.22C13.5283 33.0096 14.0676 32.3179 14.9736 32.2747L45.0867 30.6104L46.1005 14.3347C46.1868 13.1243 46.7261 12.4326 47.6536 12.3894L58.2449 11.8058C59.1509 11.7626 59.6255 12.3894 59.5608 13.5998L58.5469 29.8755L88.7678 28.2112C89.6954 28.1679 90.1484 28.7948 90.0837 30.0052L89.3287 42.1525C89.2424 43.3629 88.7031 44.0546 87.7972 44.0978L57.5762 45.7621L56.6055 61.1084L92.4133 59.1198C93.3193 59.0766 93.7939 59.7034 93.7292 60.9138L92.9526 73.3205C92.8879 74.5309 92.3271 75.2226 91.4211 75.2658L60.4883 76.9734C68.6853 89.9421 80.3767 100.728 92.8663 106.953C93.7507 107.428 93.9017 108.358 93.4056 109.438L87.3873 122.796C86.9127 123.877 86.1793 124.201 85.4028 123.704C72.6975 116.16 61.6747 104.272 54.0602 91.6712L52.1619 131.528C52.0756 132.717 51.5364 133.43 50.6304 133.474L40.0391 134.057C39.1331 134.1 38.6585 133.474 38.7232 132.263L41.8294 92.6006C32.5324 106.672 19.9349 119.878 6.51778 128.459C6.21579 128.61 6.00008 128.762 5.69809 128.762C5.28824 128.783 4.89996 128.416 4.64111 127.746L0.154349 115.015C0.0680654 114.626 -0.0182185 114.366 0.0033525 114.085C0.0464944 113.415 0.39163 112.875 1.01719 112.443C14.3696 104.921 27.2043 92.6439 36.6308 78.2919L6.40993 79.9562C5.48238 79.9994 5.02939 79.3726 5.0941 78.1622H5.11567Z" fill="var(--fill-1, white)"/>
</g>
<g id="Vector_2">
<path d="M102.618 120.634C105.185 110.649 107.191 98.0474 107.881 88.7099C107.946 87.4995 108.507 86.8078 109.413 86.8943L116.38 87.4347C117.286 87.5211 117.653 88.0183 117.588 89.099C116.661 98.8471 114.892 112.637 112.303 123.293C112.023 124.503 111.397 124.936 110.491 124.72L103.502 122.839C102.596 122.623 102.359 121.845 102.618 120.634ZM127.511 129.367L119.681 129.799C118.775 129.842 118.3 129.215 118.365 128.005L121.385 79.9777C116.876 80.6261 112.282 81.2745 108.097 81.642C107.169 81.6852 106.803 81.1881 106.781 79.9777V68.803V68.5436C106.846 67.4845 107.493 66.9009 108.313 66.8577L113.511 66.5767C115.625 63.3994 117.761 60.0924 119.81 56.7854C116.79 51.5114 112.821 45.481 108.852 40.6394C108.291 39.8829 108.248 39.0831 108.615 38.1321L113.145 27.3897C113.382 26.7197 113.813 26.2874 114.223 26.2658C114.525 26.2658 114.827 26.3522 115.108 26.7413C115.582 27.2384 115.949 27.7571 116.423 28.4056C119.422 22.5265 122.765 14.6372 124.987 8.26091C125.375 7.0505 126.001 6.7479 126.885 7.09373L134.37 10.4007C135.255 10.7466 135.514 11.676 135.039 12.7567C131.803 20.646 127.446 30.1996 123.304 38.1321C124.707 40.1855 125.979 42.3685 127.166 44.2922C130.941 37.5701 134.414 30.7183 137.347 24.1908C137.822 23.11 138.555 22.6561 139.332 23.283L146.127 28.2327C146.601 28.6001 146.882 29.1189 146.838 29.7889C146.838 30.0483 146.687 30.459 146.472 30.8696C140.54 42.8873 132.515 56.0937 126.044 65.6257C129.625 65.3015 132.99 64.8475 135.751 64.4153C135.384 62.1674 135.018 60.0708 134.629 58.2335C134.543 57.8445 134.478 57.5851 134.5 57.1744C134.543 56.5044 134.867 56.0937 135.492 55.7911L140.95 52.9596C141.165 52.8083 141.467 52.8083 141.661 52.7867C142.179 52.7651 142.567 53.0028 142.718 53.8026C144.617 60.6111 146.105 70.8996 146.666 78.1837C146.666 78.443 146.752 78.5727 146.731 78.7024C146.687 79.5022 146.234 80.0641 145.501 80.3667L139.224 83.2415C139.008 83.3928 138.814 83.3928 138.598 83.4144C137.994 83.4576 137.606 82.9389 137.584 81.8797L137.282 76.9733C135.643 77.3191 133.874 77.8162 132.127 78.1837L129.042 127.4C128.956 128.61 128.417 129.302 127.511 129.345V129.367ZM148.046 93.1193L148.715 82.4417C148.801 81.2313 149.341 80.5397 150.247 80.4964L165.109 79.6751L165.735 69.7973C165.799 68.5869 166.36 67.8952 167.266 67.852L176.434 67.3548C177.34 67.3116 177.814 67.9384 177.75 69.1488L177.124 79.0266L192.892 78.1621C193.82 78.1188 194.273 78.7457 194.208 79.9561L193.54 90.6336C193.453 91.844 192.914 92.5357 191.986 92.5789L176.218 93.4435L175.291 108.12L195.244 107.017C196.15 106.974 196.624 107.601 196.559 108.811L195.848 120.289C195.761 121.499 195.222 122.191 194.316 122.234L143.754 125.044C142.848 125.087 142.373 124.46 142.438 123.25L142.934 115.382L136.226 117.349C136.031 117.349 135.902 117.5 135.816 117.371C135.104 117.414 134.737 116.895 134.802 115.836C135.212 107.579 134.931 97.4854 134.219 89.6826C134.219 89.4232 134.155 89.2935 134.155 89.1422C134.219 88.2128 134.759 87.6508 135.492 87.3482L141.187 85.4461C141.381 85.4461 141.489 85.2948 141.597 85.2948C142.309 85.2516 142.675 85.9 142.826 86.8295C143.603 93.7028 144.185 102.435 144.315 110.022C144.422 110.022 144.53 109.87 144.724 109.87L163.34 108.833L164.268 94.1568L149.405 94.9781C148.499 95.0213 148.025 94.3945 148.09 93.1841L148.046 93.1193ZM193.798 70.1215C185.623 68.0465 178.332 64.5882 171.861 59.5088C165.346 64.7827 158.206 68.7814 151.023 71.6993C150.829 71.6993 150.7 71.8506 150.505 71.8506C149.988 71.8723 149.513 71.3751 149.362 70.5754L146.256 58.7739C146.17 58.5145 146.083 58.2551 146.105 57.9958C146.148 57.196 146.709 56.6341 147.421 56.4611C152.166 54.9914 157.192 52.5922 161.96 49.5445C158.293 44.8326 155.1 39.2777 152.447 33.0527C152.274 32.6636 152.188 32.2746 152.21 31.9936C152.253 31.3235 152.598 30.7832 153.223 30.4806L162.326 25.8551C162.542 25.7038 162.736 25.7038 162.952 25.6822C163.448 25.6605 163.836 26.028 164.095 26.8061C166.166 32.4043 169.121 37.0297 172.659 40.6826C177.21 35.9058 181.136 30.1131 183.682 23.4559L149.794 25.3363C148.866 25.3796 148.413 24.7527 148.478 23.5423L149.19 12.346C149.276 11.1356 149.815 10.444 150.721 10.4007L197.228 7.82862C198.156 7.78539 198.609 8.41221 198.544 9.62262L197.897 19.8895C197.854 20.6892 197.703 21.3593 197.444 22.3103C193.949 32.5988 188.859 41.2662 182.927 48.507C188.125 51.2737 193.712 52.8299 199.536 53.5648C200.55 53.6513 200.895 54.5591 200.421 55.7695L195.74 68.7814C195.373 69.8621 194.618 70.316 193.842 70.0782L193.798 70.1215Z" fill="url(#paint1_linear_300_1568)"/>
<path d="M102.618 120.634C105.185 110.649 107.191 98.0474 107.881 88.7099C107.946 87.4995 108.507 86.8078 109.413 86.8943L116.38 87.4347C117.286 87.5211 117.653 88.0183 117.588 89.099C116.661 98.8471 114.892 112.637 112.303 123.293C112.023 124.503 111.397 124.936 110.491 124.72L103.502 122.839C102.596 122.623 102.359 121.845 102.618 120.634ZM127.511 129.367L119.681 129.799C118.775 129.842 118.3 129.215 118.365 128.005L121.385 79.9777C116.876 80.6261 112.282 81.2745 108.097 81.642C107.169 81.6852 106.803 81.1881 106.781 79.9777V68.803V68.5436C106.846 67.4845 107.493 66.9009 108.313 66.8577L113.511 66.5767C115.625 63.3994 117.761 60.0924 119.81 56.7854C116.79 51.5114 112.821 45.481 108.852 40.6394C108.291 39.8829 108.248 39.0831 108.615 38.1321L113.145 27.3897C113.382 26.7197 113.813 26.2874 114.223 26.2658C114.525 26.2658 114.827 26.3522 115.108 26.7413C115.582 27.2384 115.949 27.7571 116.423 28.4056C119.422 22.5265 122.765 14.6372 124.987 8.26091C125.375 7.0505 126.001 6.7479 126.885 7.09373L134.37 10.4007C135.255 10.7466 135.514 11.676 135.039 12.7567C131.803 20.646 127.446 30.1996 123.304 38.1321C124.707 40.1855 125.979 42.3685 127.166 44.2922C130.941 37.5701 134.414 30.7183 137.347 24.1908C137.822 23.11 138.555 22.6561 139.332 23.283L146.127 28.2327C146.601 28.6001 146.882 29.1189 146.838 29.7889C146.838 30.0483 146.687 30.459 146.472 30.8696C140.54 42.8873 132.515 56.0937 126.044 65.6257C129.625 65.3015 132.99 64.8475 135.751 64.4153C135.384 62.1674 135.018 60.0708 134.629 58.2335C134.543 57.8445 134.478 57.5851 134.5 57.1744C134.543 56.5044 134.867 56.0937 135.492 55.7911L140.95 52.9596C141.165 52.8083 141.467 52.8083 141.661 52.7867C142.179 52.7651 142.567 53.0028 142.718 53.8026C144.617 60.6111 146.105 70.8996 146.666 78.1837C146.666 78.443 146.752 78.5727 146.731 78.7024C146.687 79.5022 146.234 80.0641 145.501 80.3667L139.224 83.2415C139.008 83.3928 138.814 83.3928 138.598 83.4144C137.994 83.4576 137.606 82.9389 137.584 81.8797L137.282 76.9733C135.643 77.3191 133.874 77.8162 132.127 78.1837L129.042 127.4C128.956 128.61 128.417 129.302 127.511 129.345V129.367ZM148.046 93.1193L148.715 82.4417C148.801 81.2313 149.341 80.5397 150.247 80.4964L165.109 79.6751L165.735 69.7973C165.799 68.5869 166.36 67.8952 167.266 67.852L176.434 67.3548C177.34 67.3116 177.814 67.9384 177.75 69.1488L177.124 79.0266L192.892 78.1621C193.82 78.1188 194.273 78.7457 194.208 79.9561L193.54 90.6336C193.453 91.844 192.914 92.5357 191.986 92.5789L176.218 93.4435L175.291 108.12L195.244 107.017C196.15 106.974 196.624 107.601 196.559 108.811L195.848 120.289C195.761 121.499 195.222 122.191 194.316 122.234L143.754 125.044C142.848 125.087 142.373 124.46 142.438 123.25L142.934 115.382L136.226 117.349C136.031 117.349 135.902 117.5 135.816 117.371C135.104 117.414 134.737 116.895 134.802 115.836C135.212 107.579 134.931 97.4854 134.219 89.6826C134.219 89.4232 134.155 89.2935 134.155 89.1422C134.219 88.2128 134.759 87.6508 135.492 87.3482L141.187 85.4461C141.381 85.4461 141.489 85.2948 141.597 85.2948C142.309 85.2516 142.675 85.9 142.826 86.8295C143.603 93.7028 144.185 102.435 144.315 110.022C144.422 110.022 144.53 109.87 144.724 109.87L163.34 108.833L164.268 94.1568L149.405 94.9781C148.499 95.0213 148.025 94.3945 148.09 93.1841L148.046 93.1193ZM193.798 70.1215C185.623 68.0465 178.332 64.5882 171.861 59.5088C165.346 64.7827 158.206 68.7814 151.023 71.6993C150.829 71.6993 150.7 71.8506 150.505 71.8506C149.988 71.8723 149.513 71.3751 149.362 70.5754L146.256 58.7739C146.17 58.5145 146.083 58.2551 146.105 57.9958C146.148 57.196 146.709 56.6341 147.421 56.4611C152.166 54.9914 157.192 52.5922 161.96 49.5445C158.293 44.8326 155.1 39.2777 152.447 33.0527C152.274 32.6636 152.188 32.2746 152.21 31.9936C152.253 31.3235 152.598 30.7832 153.223 30.4806L162.326 25.8551C162.542 25.7038 162.736 25.7038 162.952 25.6822C163.448 25.6605 163.836 26.028 164.095 26.8061C166.166 32.4043 169.121 37.0297 172.659 40.6826C177.21 35.9058 181.136 30.1131 183.682 23.4559L149.794 25.3363C148.866 25.3796 148.413 24.7527 148.478 23.5423L149.19 12.346C149.276 11.1356 149.815 10.444 150.721 10.4007L197.228 7.82862C198.156 7.78539 198.609 8.41221 198.544 9.62262L197.897 19.8895C197.854 20.6892 197.703 21.3593 197.444 22.3103C193.949 32.5988 188.859 41.2662 182.927 48.507C188.125 51.2737 193.712 52.8299 199.536 53.5648C200.55 53.6513 200.895 54.5591 200.421 55.7695L195.74 68.7814C195.373 69.8621 194.618 70.316 193.842 70.0782L193.798 70.1215Z" fill="var(--fill-1, white)"/>
</g>
<g id="Vector_3">
<path d="M209.608 93.032C209.716 91.4326 209.802 89.9628 209.91 88.3633C209.888 87.1745 210.449 86.3315 211.571 86.2667L215.302 86.4612C216.208 86.418 216.683 87.0448 216.618 88.2552C216.575 90.6544 216.424 93.0536 216.252 95.5825C215.734 103.71 214.893 112.399 213.598 120.05C213.404 121.39 212.779 121.952 211.765 121.736L207.386 120.526C206.394 120.18 206.135 119.402 206.307 118.191C208.033 109.978 209.09 101.289 209.608 93.0104V93.032ZM218.301 6.2716L254.022 4.28307C254.928 4.23985 255.511 4.86666 255.424 6.20676L254.82 15.8036C254.734 17.1437 254.087 17.8353 253.16 17.8786L244.208 18.3757L243.668 26.7837L249.579 26.4595C250.593 26.3947 251.067 27.0431 250.981 28.3832L250.506 35.9915C250.42 37.3316 249.881 38.0232 248.867 38.0665L242.956 38.3907L242.417 46.7987L248.932 46.4313C249.945 46.3664 250.42 47.0149 250.334 48.3549L249.859 55.9632C249.773 57.3033 249.234 57.995 248.198 58.0382L241.684 58.4057L241.166 66.5327L249.514 66.0788C250.528 66.014 251.002 66.6624 250.916 68.0025C250.075 79.8904 249.255 91.3677 247.918 101.008C245.674 117.219 242.396 122.709 231.416 123.335C230.186 123.4 229.518 123.033 229.28 121.736L227.08 111.62L227.037 110.691C227.08 109.891 227.641 109.2 228.547 109.286C235.665 109.027 237.564 107.86 238.621 100.619C238.793 99.538 238.987 98.1979 239.16 97.0091C238.944 97.2901 238.707 97.5711 238.297 97.7224L237.132 98.4572C236.809 98.7382 236.615 98.7598 236.399 98.7598C235.795 98.8031 235.407 98.2843 235.385 97.2252C235.126 93.3779 234.522 89.8331 233.638 86.418C233.552 86.1586 233.487 85.7696 233.487 85.4886C233.53 84.6888 233.875 84.1485 234.608 83.8243L235.558 83.2407C235.773 83.0894 236.075 83.0894 236.269 83.0678C236.787 83.0461 237.262 83.4136 237.521 84.1917C238.362 87.0664 239.138 90.6112 239.44 94.0479C239.786 90.0492 240.088 85.3805 240.562 79.5014L213.598 80.9928C212.585 81.0576 212.11 80.4092 212.196 79.0691L216.64 8.36821C216.726 7.02811 217.265 6.33645 218.279 6.29322L218.301 6.2716ZM218.711 88.4065C218.775 87.4771 219.315 86.7854 220.134 86.5909L222.507 86.0722H222.917C223.629 86.0073 224.103 86.5045 224.233 87.5636C224.772 94.9773 224.923 103.882 224.449 111.62C224.362 112.961 223.801 113.782 222.874 114.106L219.681 114.819H219.379C218.473 114.884 218.107 114.236 218.171 113.047C218.387 111.167 218.517 109.178 218.624 107.298C219.013 101.029 219.121 94.6315 218.754 88.9469C218.668 88.8172 218.668 88.5578 218.689 88.4281L218.711 88.4065ZM231.416 67.0947L231.934 58.9676L224.298 59.3999L223.78 67.527L231.416 67.0947ZM232.646 47.3607L233.185 38.9527L225.549 39.3849L225.009 47.793L232.646 47.3607ZM233.918 27.3457L234.457 18.9377L226.821 19.37L226.282 27.778L233.918 27.3457ZM227.814 85.5102L229.582 84.8834C229.69 84.7537 229.906 84.7321 230.1 84.7321C230.704 84.6888 231.179 85.2076 231.33 86.137C232.387 91.8 233.055 98.9328 233.099 104.92V105.179C233.012 106.238 232.559 106.93 231.74 107.254L229.129 108.335L228.612 108.486C227.9 108.53 227.425 107.881 227.512 106.692C227.706 100.424 227.404 93.8101 226.563 87.9959L226.519 87.1961C226.563 86.3964 227.016 85.7047 227.835 85.5318L227.814 85.5102ZM255.381 40.6386C254.777 40.6818 254.389 40.2928 254.238 39.3633L251.434 27.5618C251.348 27.3025 251.369 27.0431 251.391 26.7621C251.434 25.9624 251.779 25.4004 252.426 24.9681C261.076 19.4348 268.842 10.508 273.846 1.84064C274.321 0.889605 274.946 0.457316 275.766 0.414087L283.488 0.00341281C284.308 -0.0398161 284.89 0.32763 285.236 1.10575C289.809 9.1031 296.733 16.5601 305.448 21.4017C306.332 21.8772 306.483 22.677 306.095 23.8874L301.565 36.2292C301.22 37.0506 300.767 37.6126 300.27 37.6342C299.968 37.6342 299.774 37.5261 299.472 37.2883C298.027 36.1644 296.582 34.9324 295.029 33.6787L294.684 39.2769C294.597 40.617 294.058 41.3086 293.023 41.3519L283.661 41.8706L283.165 49.6086L299.235 48.7224C300.141 48.6792 300.723 49.306 300.637 50.6461L298.502 84.6672C298.415 85.8776 297.768 86.699 296.841 86.7422L282.194 87.5636C285.947 95.6041 292.095 100.835 299.774 103.083C300.767 103.429 301.004 104.336 300.529 105.568L295.697 118.062C295.223 119.142 294.489 119.596 293.584 119.25C285.02 115.338 278.635 108.638 274.838 98.2195C269.64 110.064 261.658 117.694 251.757 121.822C251.542 121.974 251.348 121.974 251.24 121.995C250.636 122.039 250.14 121.65 249.902 120.742L247.012 108.53C246.926 108.27 246.861 107.881 246.861 107.6C246.904 106.8 247.357 106.238 248.177 106.066C257.495 103.018 264.139 97.2036 267.957 88.3633L254.109 89.1198C253.095 89.1846 252.642 88.4065 252.707 87.1961L254.842 53.175C254.928 51.8349 255.468 51.1432 256.503 51.1L272.077 50.2354L272.573 42.4974L263.427 42.9946C262.413 43.0594 261.939 42.411 262.025 41.0709L262.413 34.9324C260.364 36.8993 258.207 38.7581 256.201 40.336C255.877 40.4873 255.575 40.6386 255.381 40.6386ZM270.546 75.3082L270.783 71.5689L271.322 62.9015L264.204 63.2905L263.427 75.6972L270.546 75.3082ZM279.066 13.9447C276.111 19.1538 272.099 24.5574 267.741 29.4639L289.507 28.2535C285.624 23.9522 281.87 19.1106 279.045 13.9447H279.066ZM289.054 74.2707L289.83 61.864L282.302 62.2747L281.763 70.8124C281.676 72.1525 281.59 73.4709 281.525 74.6813L289.054 74.2707Z" fill="url(#paint2_linear_300_1568)"/>
<path d="M209.608 93.032C209.716 91.4326 209.802 89.9628 209.91 88.3633C209.888 87.1745 210.449 86.3315 211.571 86.2667L215.302 86.4612C216.208 86.418 216.683 87.0448 216.618 88.2552C216.575 90.6544 216.424 93.0536 216.252 95.5825C215.734 103.71 214.893 112.399 213.598 120.05C213.404 121.39 212.779 121.952 211.765 121.736L207.386 120.526C206.394 120.18 206.135 119.402 206.307 118.191C208.033 109.978 209.09 101.289 209.608 93.0104V93.032ZM218.301 6.2716L254.022 4.28307C254.928 4.23985 255.511 4.86666 255.424 6.20676L254.82 15.8036C254.734 17.1437 254.087 17.8353 253.16 17.8786L244.208 18.3757L243.668 26.7837L249.579 26.4595C250.593 26.3947 251.067 27.0431 250.981 28.3832L250.506 35.9915C250.42 37.3316 249.881 38.0232 248.867 38.0665L242.956 38.3907L242.417 46.7987L248.932 46.4313C249.945 46.3664 250.42 47.0149 250.334 48.3549L249.859 55.9632C249.773 57.3033 249.234 57.995 248.198 58.0382L241.684 58.4057L241.166 66.5327L249.514 66.0788C250.528 66.014 251.002 66.6624 250.916 68.0025C250.075 79.8904 249.255 91.3677 247.918 101.008C245.674 117.219 242.396 122.709 231.416 123.335C230.186 123.4 229.518 123.033 229.28 121.736L227.08 111.62L227.037 110.691C227.08 109.891 227.641 109.2 228.547 109.286C235.665 109.027 237.564 107.86 238.621 100.619C238.793 99.538 238.987 98.1979 239.16 97.0091C238.944 97.2901 238.707 97.5711 238.297 97.7224L237.132 98.4572C236.809 98.7382 236.615 98.7598 236.399 98.7598C235.795 98.8031 235.407 98.2843 235.385 97.2252C235.126 93.3779 234.522 89.8331 233.638 86.418C233.552 86.1586 233.487 85.7696 233.487 85.4886C233.53 84.6888 233.875 84.1485 234.608 83.8243L235.558 83.2407C235.773 83.0894 236.075 83.0894 236.269 83.0678C236.787 83.0461 237.262 83.4136 237.521 84.1917C238.362 87.0664 239.138 90.6112 239.44 94.0479C239.786 90.0492 240.088 85.3805 240.562 79.5014L213.598 80.9928C212.585 81.0576 212.11 80.4092 212.196 79.0691L216.64 8.36821C216.726 7.02811 217.265 6.33645 218.279 6.29322L218.301 6.2716ZM218.711 88.4065C218.775 87.4771 219.315 86.7854 220.134 86.5909L222.507 86.0722H222.917C223.629 86.0073 224.103 86.5045 224.233 87.5636C224.772 94.9773 224.923 103.882 224.449 111.62C224.362 112.961 223.801 113.782 222.874 114.106L219.681 114.819H219.379C218.473 114.884 218.107 114.236 218.171 113.047C218.387 111.167 218.517 109.178 218.624 107.298C219.013 101.029 219.121 94.6315 218.754 88.9469C218.668 88.8172 218.668 88.5578 218.689 88.4281L218.711 88.4065ZM231.416 67.0947L231.934 58.9676L224.298 59.3999L223.78 67.527L231.416 67.0947ZM232.646 47.3607L233.185 38.9527L225.549 39.3849L225.009 47.793L232.646 47.3607ZM233.918 27.3457L234.457 18.9377L226.821 19.37L226.282 27.778L233.918 27.3457ZM227.814 85.5102L229.582 84.8834C229.69 84.7537 229.906 84.7321 230.1 84.7321C230.704 84.6888 231.179 85.2076 231.33 86.137C232.387 91.8 233.055 98.9328 233.099 104.92V105.179C233.012 106.238 232.559 106.93 231.74 107.254L229.129 108.335L228.612 108.486C227.9 108.53 227.425 107.881 227.512 106.692C227.706 100.424 227.404 93.8101 226.563 87.9959L226.519 87.1961C226.563 86.3964 227.016 85.7047 227.835 85.5318L227.814 85.5102ZM255.381 40.6386C254.777 40.6818 254.389 40.2928 254.238 39.3633L251.434 27.5618C251.348 27.3025 251.369 27.0431 251.391 26.7621C251.434 25.9624 251.779 25.4004 252.426 24.9681C261.076 19.4348 268.842 10.508 273.846 1.84064C274.321 0.889605 274.946 0.457316 275.766 0.414087L283.488 0.00341281C284.308 -0.0398161 284.89 0.32763 285.236 1.10575C289.809 9.1031 296.733 16.5601 305.448 21.4017C306.332 21.8772 306.483 22.677 306.095 23.8874L301.565 36.2292C301.22 37.0506 300.767 37.6126 300.27 37.6342C299.968 37.6342 299.774 37.5261 299.472 37.2883C298.027 36.1644 296.582 34.9324 295.029 33.6787L294.684 39.2769C294.597 40.617 294.058 41.3086 293.023 41.3519L283.661 41.8706L283.165 49.6086L299.235 48.7224C300.141 48.6792 300.723 49.306 300.637 50.6461L298.502 84.6672C298.415 85.8776 297.768 86.699 296.841 86.7422L282.194 87.5636C285.947 95.6041 292.095 100.835 299.774 103.083C300.767 103.429 301.004 104.336 300.529 105.568L295.697 118.062C295.223 119.142 294.489 119.596 293.584 119.25C285.02 115.338 278.635 108.638 274.838 98.2195C269.64 110.064 261.658 117.694 251.757 121.822C251.542 121.974 251.348 121.974 251.24 121.995C250.636 122.039 250.14 121.65 249.902 120.742L247.012 108.53C246.926 108.27 246.861 107.881 246.861 107.6C246.904 106.8 247.357 106.238 248.177 106.066C257.495 103.018 264.139 97.2036 267.957 88.3633L254.109 89.1198C253.095 89.1846 252.642 88.4065 252.707 87.1961L254.842 53.175C254.928 51.8349 255.468 51.1432 256.503 51.1L272.077 50.2354L272.573 42.4974L263.427 42.9946C262.413 43.0594 261.939 42.411 262.025 41.0709L262.413 34.9324C260.364 36.8993 258.207 38.7581 256.201 40.336C255.877 40.4873 255.575 40.6386 255.381 40.6386ZM270.546 75.3082L270.783 71.5689L271.322 62.9015L264.204 63.2905L263.427 75.6972L270.546 75.3082ZM279.066 13.9447C276.111 19.1538 272.099 24.5574 267.741 29.4639L289.507 28.2535C285.624 23.9522 281.87 19.1106 279.045 13.9447H279.066ZM289.054 74.2707L289.83 61.864L282.302 62.2747L281.763 70.8124C281.676 72.1525 281.59 73.4709 281.525 74.6813L289.054 74.2707Z" fill="var(--fill-1, white)"/>
</g>
<g id="Vector_4">
<path d="M326.374 112.032L325.252 102.327V101.895C325.317 101.29 325.64 100.922 326.244 101.16C328.423 101.808 330.386 102.133 332.068 102.046C335.671 101.852 338.022 99.7549 339.489 95.1294C340.567 91.6495 341.236 86.0514 341.538 81.1449C341.668 79.178 341.711 77.2759 341.754 75.7413C341.754 70.1864 340.956 68.8463 337.742 68.8679L335.261 68.9976C334.333 69.0408 333.341 69.1056 332.284 69.1705C328.574 83.8467 323.764 99.4307 317.939 113.631C317.659 114.323 317.271 114.518 316.775 114.388L310.368 111.924C309.764 111.708 309.678 111.103 309.98 110.324C316.084 95.605 320.442 82.3553 323.634 70.0999C320.399 70.5322 316.839 71.0725 313.388 71.6994H313.259C312.762 71.7426 312.482 71.3968 312.525 70.6403L312.719 61.4757C312.762 60.7841 313.108 60.3518 313.604 60.3086C317.465 59.833 321.952 59.4224 326.352 59.0981C327.582 53.4568 328.66 48.0099 329.545 42.6496C329.717 41.8714 330.041 41.504 330.602 41.5688L337.116 42.066C337.742 42.1092 337.957 42.5415 337.849 43.1467C336.987 47.9883 335.994 53.0893 334.786 58.4713C337.073 58.3416 339.122 58.2336 340.675 58.2336C347.837 58.2552 350.015 62.8591 350.102 72.5207C350.102 74.6606 349.994 77.2327 349.821 79.8913C349.39 86.7646 348.484 94.4378 347.362 98.5229C344.58 108.53 339.834 113.156 332.565 113.545C330.882 113.631 329.113 113.48 327.215 113.156C326.719 113.091 326.438 112.767 326.352 112.097L326.374 112.032ZM350.533 55.0346C350.533 54.6888 350.77 54.343 351.159 54.1484L357.285 50.9063C357.414 50.8198 357.544 50.7982 357.673 50.7982C357.975 50.7982 358.212 50.9279 358.45 51.3602C362.915 60.7841 365.374 70.0783 365.913 79.9777C365.978 80.0642 365.956 80.1506 365.956 80.2371C365.913 80.8423 365.654 81.1881 365.266 81.4691L358.601 85.1868C358.471 85.2733 358.342 85.3597 358.212 85.3813C357.846 85.3813 357.608 85.0787 357.587 84.3871C357.177 74.1418 354.998 64.5018 350.727 55.8344C350.619 55.575 350.512 55.3372 350.533 55.0779V55.0346Z" fill="url(#paint3_linear_300_1568)"/>
<path d="M326.374 112.032L325.252 102.327V101.895C325.317 101.29 325.64 100.922 326.244 101.16C328.423 101.808 330.386 102.133 332.068 102.046C335.671 101.852 338.022 99.7549 339.489 95.1294C340.567 91.6495 341.236 86.0514 341.538 81.1449C341.668 79.178 341.711 77.2759 341.754 75.7413C341.754 70.1864 340.956 68.8463 337.742 68.8679L335.261 68.9976C334.333 69.0408 333.341 69.1056 332.284 69.1705C328.574 83.8467 323.764 99.4307 317.939 113.631C317.659 114.323 317.271 114.518 316.775 114.388L310.368 111.924C309.764 111.708 309.678 111.103 309.98 110.324C316.084 95.605 320.442 82.3553 323.634 70.0999C320.399 70.5322 316.839 71.0725 313.388 71.6994H313.259C312.762 71.7426 312.482 71.3968 312.525 70.6403L312.719 61.4757C312.762 60.7841 313.108 60.3518 313.604 60.3086C317.465 59.833 321.952 59.4224 326.352 59.0981C327.582 53.4568 328.66 48.0099 329.545 42.6496C329.717 41.8714 330.041 41.504 330.602 41.5688L337.116 42.066C337.742 42.1092 337.957 42.5415 337.849 43.1467C336.987 47.9883 335.994 53.0893 334.786 58.4713C337.073 58.3416 339.122 58.2336 340.675 58.2336C347.837 58.2552 350.015 62.8591 350.102 72.5207C350.102 74.6606 349.994 77.2327 349.821 79.8913C349.39 86.7646 348.484 94.4378 347.362 98.5229C344.58 108.53 339.834 113.156 332.565 113.545C330.882 113.631 329.113 113.48 327.215 113.156C326.719 113.091 326.438 112.767 326.352 112.097L326.374 112.032ZM350.533 55.0346C350.533 54.6888 350.77 54.343 351.159 54.1484L357.285 50.9063C357.414 50.8198 357.544 50.7982 357.673 50.7982C357.975 50.7982 358.212 50.9279 358.45 51.3602C362.915 60.7841 365.374 70.0783 365.913 79.9777C365.978 80.0642 365.956 80.1506 365.956 80.2371C365.913 80.8423 365.654 81.1881 365.266 81.4691L358.601 85.1868C358.471 85.2733 358.342 85.3597 358.212 85.3813C357.846 85.3813 357.608 85.0787 357.587 84.3871C357.177 74.1418 354.998 64.5018 350.727 55.8344C350.619 55.575 350.512 55.3372 350.533 55.0779V55.0346Z" fill="var(--fill-1, white)"/>
</g>
<g id="Vector_5">
<path d="M374.822 109.178L374.024 100.143L373.981 99.7112C374.024 99.106 374.412 98.7385 374.951 98.8898C379.222 99.776 384.076 100.36 388.714 100.1C394.473 99.776 399.974 98.1117 403.554 94.0482C405.69 91.6274 406.79 88.8175 406.941 86.3318C407.157 83.068 405.733 80.1501 402.886 79.0261C401.376 78.3345 399.672 78.0967 397.86 78.1832C392.596 78.4858 386.319 81.9873 380.452 88.5581C380.107 89.012 379.783 89.1849 379.352 89.2282L373.053 89.1417C372.492 89.1633 372.212 88.7526 372.32 87.9745C373.01 78.9397 374.563 66.1007 375.965 57.3901C376.073 56.6119 376.418 56.2445 376.957 56.2229L383.644 56.1148C384.27 56.0716 384.486 56.5903 384.313 57.3685C383.105 63.7663 382.027 71.0288 381.552 76.6053C387.915 70.683 394.322 68.1973 399.715 67.8947C402.821 67.7218 405.56 68.2621 407.847 69.3212C413.714 72.2392 416.281 78.6155 415.85 85.4889C415.483 91.2383 413.067 97.2903 408.818 102.067C403.425 108.184 395.854 110.756 387.98 111.188C383.817 111.426 379.589 111.059 375.555 110.324C375.059 110.259 374.843 109.848 374.757 109.178H374.822ZM383.515 39.8607C391.518 39.4068 399.887 39.8175 406.337 42.368C406.833 42.5193 406.963 43.1029 406.747 43.7946L404.072 52.9375C403.835 53.6292 403.382 53.9101 402.907 53.694C396.048 50.8193 389.253 50.5167 381.336 50.776C380.775 50.7977 380.495 50.3005 380.668 49.5224L382.436 40.9415C382.544 40.1633 382.933 39.8824 383.493 39.8607H383.515Z" fill="url(#paint4_linear_300_1568)"/>
<path d="M374.822 109.178L374.024 100.143L373.981 99.7112C374.024 99.106 374.412 98.7385 374.951 98.8898C379.222 99.776 384.076 100.36 388.714 100.1C394.473 99.776 399.974 98.1117 403.554 94.0482C405.69 91.6274 406.79 88.8175 406.941 86.3318C407.157 83.068 405.733 80.1501 402.886 79.0261C401.376 78.3345 399.672 78.0967 397.86 78.1832C392.596 78.4858 386.319 81.9873 380.452 88.5581C380.107 89.012 379.783 89.1849 379.352 89.2282L373.053 89.1417C372.492 89.1633 372.212 88.7526 372.32 87.9745C373.01 78.9397 374.563 66.1007 375.965 57.3901C376.073 56.6119 376.418 56.2445 376.957 56.2229L383.644 56.1148C384.27 56.0716 384.486 56.5903 384.313 57.3685C383.105 63.7663 382.027 71.0288 381.552 76.6053C387.915 70.683 394.322 68.1973 399.715 67.8947C402.821 67.7218 405.56 68.2621 407.847 69.3212C413.714 72.2392 416.281 78.6155 415.85 85.4889C415.483 91.2383 413.067 97.2903 408.818 102.067C403.425 108.184 395.854 110.756 387.98 111.188C383.817 111.426 379.589 111.059 375.555 110.324C375.059 110.259 374.843 109.848 374.757 109.178H374.822ZM383.515 39.8607C391.518 39.4068 399.887 39.8175 406.337 42.368C406.833 42.5193 406.963 43.1029 406.747 43.7946L404.072 52.9375C403.835 53.6292 403.382 53.9101 402.907 53.694C396.048 50.8193 389.253 50.5167 381.336 50.776C380.775 50.7977 380.495 50.3005 380.668 49.5224L382.436 40.9415C382.544 40.1633 382.933 39.8824 383.493 39.8607H383.515Z" fill="var(--fill-1, white)"/>
</g>
<g id="Vector_6">
<path d="M420.66 42.8654C433.56 42.1522 455.821 40.8337 469.238 39.753C469.799 39.7313 470.079 40.0556 470.036 40.8985L469.475 49.9118C469.432 50.6899 469.087 51.1222 468.526 51.1654C463.996 51.3383 459.919 52.419 455.907 55.1208C446.114 61.4755 440.074 71.1588 439.556 79.3074C439.017 87.9748 444.884 94.9347 459.38 94.1349C460.006 94.0917 460.286 94.5024 460.113 95.3886L458.258 105.245C458.086 106.023 457.762 106.39 457.201 106.412C437.032 106.931 429.634 94.6753 430.475 81.1879C431.079 71.5694 435.868 61.3674 443.029 54.6453C444.086 53.6511 445.186 52.8081 446.286 52.0732C437.96 52.8729 427.627 53.8672 420.121 54.4724C419.56 54.494 419.28 54.1698 419.323 53.3268L419.776 44.1407V43.9678C419.84 43.2761 420.164 42.9087 420.66 42.8871V42.8654ZM455.411 61.9942L458.301 60.2002C458.496 60.1138 458.603 60.0922 458.798 60.0922C459.056 60.0922 459.272 60.2435 459.445 60.5677C461.214 63.7234 463.112 69.1054 464.018 73.1473C464.061 73.3202 464.061 73.4931 464.039 73.666C464.018 74.1848 463.802 74.5306 463.414 74.7251L460.135 76.7137C459.941 76.8001 459.811 76.9082 459.682 76.9082C459.38 76.9082 459.143 76.584 459.056 76.0869C458.215 71.8504 456.705 67.2249 454.958 63.6369C454.785 63.3992 454.742 63.1398 454.764 62.8804C454.785 62.5346 455.001 62.1888 455.368 61.9942H455.411ZM467.814 72.1746C467.512 72.1746 467.275 71.9369 467.124 71.3533C466.261 67.3762 464.535 62.513 462.874 59.3357C462.702 59.0979 462.659 58.8385 462.68 58.5792C462.68 58.2333 462.918 57.8875 463.22 57.693L466.11 55.9854C466.24 55.899 466.434 55.7909 466.563 55.7909C466.822 55.7909 467.038 55.9422 467.275 56.2664C469.13 59.2492 471.136 64.6096 471.999 68.5866C472.042 68.7596 472.042 68.9325 472.021 69.1054C471.999 69.5377 471.783 69.8835 471.395 70.1645L468.202 71.9585C468.073 72.045 467.944 72.153 467.814 72.153V72.1746Z" fill="url(#paint5_linear_300_1568)"/>
<path d="M420.66 42.8654C433.56 42.1522 455.821 40.8337 469.238 39.753C469.799 39.7313 470.079 40.0556 470.036 40.8985L469.475 49.9118C469.432 50.6899 469.087 51.1222 468.526 51.1654C463.996 51.3383 459.919 52.419 455.907 55.1208C446.114 61.4755 440.074 71.1588 439.556 79.3074C439.017 87.9748 444.884 94.9347 459.38 94.1349C460.006 94.0917 460.286 94.5024 460.113 95.3886L458.258 105.245C458.086 106.023 457.762 106.39 457.201 106.412C437.032 106.931 429.634 94.6753 430.475 81.1879C431.079 71.5694 435.868 61.3674 443.029 54.6453C444.086 53.6511 445.186 52.8081 446.286 52.0732C437.96 52.8729 427.627 53.8672 420.121 54.4724C419.56 54.494 419.28 54.1698 419.323 53.3268L419.776 44.1407V43.9678C419.84 43.2761 420.164 42.9087 420.66 42.8871V42.8654ZM455.411 61.9942L458.301 60.2002C458.496 60.1138 458.603 60.0922 458.798 60.0922C459.056 60.0922 459.272 60.2435 459.445 60.5677C461.214 63.7234 463.112 69.1054 464.018 73.1473C464.061 73.3202 464.061 73.4931 464.039 73.666C464.018 74.1848 463.802 74.5306 463.414 74.7251L460.135 76.7137C459.941 76.8001 459.811 76.9082 459.682 76.9082C459.38 76.9082 459.143 76.584 459.056 76.0869C458.215 71.8504 456.705 67.2249 454.958 63.6369C454.785 63.3992 454.742 63.1398 454.764 62.8804C454.785 62.5346 455.001 62.1888 455.368 61.9942H455.411ZM467.814 72.1746C467.512 72.1746 467.275 71.9369 467.124 71.3533C466.261 67.3762 464.535 62.513 462.874 59.3357C462.702 59.0979 462.659 58.8385 462.68 58.5792C462.68 58.2333 462.918 57.8875 463.22 57.693L466.11 55.9854C466.24 55.899 466.434 55.7909 466.563 55.7909C466.822 55.7909 467.038 55.9422 467.275 56.2664C469.13 59.2492 471.136 64.6096 471.999 68.5866C472.042 68.7596 472.042 68.9325 472.021 69.1054C471.999 69.5377 471.783 69.8835 471.395 70.1645L468.202 71.9585C468.073 72.045 467.944 72.153 467.814 72.153V72.1746Z" fill="var(--fill-1, white)"/>
</g>
<g id="Vector_7">
<path d="M516.563 67.5066C516.584 67.0743 516.865 66.7285 517.361 66.6853L524.177 66.4691C524.609 66.4475 524.975 66.6853 525.126 67.2689C526.291 71.3972 526.744 75.8282 526.485 80.1295C525.946 88.624 522.732 96.6861 516.994 101.204C513.413 103.97 509.185 105.57 505.022 105.807C495.402 106.348 486.32 99.6473 487.205 84.4524C487.356 82.2261 487.485 79.8917 487.766 77.579L478.468 78.0977C477.908 78.1193 477.627 77.7086 477.67 76.9521L478.145 69.3006C478.188 68.5225 478.533 68.0902 479.094 68.047L488.823 67.5066L490.311 56.721L480.151 57.283C479.59 57.3046 479.31 56.8939 479.353 56.1374L479.763 48.5724C479.806 47.7942 480.151 47.362 480.712 47.3187L491.756 46.7135C492.36 42.1529 493.007 37.4841 493.611 33.01C493.654 32.3183 494.064 31.8644 494.604 31.8428L501.463 31.886C502.089 31.8428 502.304 32.3615 502.175 33.1396L500.234 46.2596L513.996 45.5031C514.557 45.4815 514.837 45.8922 514.794 46.6487L514.319 54.2137C514.276 54.9919 513.931 55.4241 513.37 55.4674L498.788 56.2671C498.314 59.9632 497.839 63.5944 497.429 67.0527L511.99 66.253C512.551 66.2314 512.831 66.642 512.788 67.3986L512.378 74.9636C512.313 75.8282 511.99 76.2605 511.429 76.3037L496.351 77.1467C496.157 79.1352 495.984 81.1021 495.855 83.0042C495.315 91.4338 500.083 95.346 505.54 95.0434C507.891 94.9138 510.372 94.006 512.572 92.2552C515.937 89.7479 517.792 84.9495 518.116 79.6107C518.353 75.9147 517.857 71.916 516.606 68.2199C516.563 67.9605 516.52 67.7012 516.52 67.5499L516.563 67.5066Z" fill="url(#paint6_linear_300_1568)"/>
<path d="M516.563 67.5066C516.584 67.0743 516.865 66.7285 517.361 66.6853L524.177 66.4691C524.609 66.4475 524.975 66.6853 525.126 67.2689C526.291 71.3972 526.744 75.8282 526.485 80.1295C525.946 88.624 522.732 96.6861 516.994 101.204C513.413 103.97 509.185 105.57 505.022 105.807C495.402 106.348 486.32 99.6473 487.205 84.4524C487.356 82.2261 487.485 79.8917 487.766 77.579L478.468 78.0977C477.908 78.1193 477.627 77.7086 477.67 76.9521L478.145 69.3006C478.188 68.5225 478.533 68.0902 479.094 68.047L488.823 67.5066L490.311 56.721L480.151 57.283C479.59 57.3046 479.31 56.8939 479.353 56.1374L479.763 48.5724C479.806 47.7942 480.151 47.362 480.712 47.3187L491.756 46.7135C492.36 42.1529 493.007 37.4841 493.611 33.01C493.654 32.3183 494.064 31.8644 494.604 31.8428L501.463 31.886C502.089 31.8428 502.304 32.3615 502.175 33.1396L500.234 46.2596L513.996 45.5031C514.557 45.4815 514.837 45.8922 514.794 46.6487L514.319 54.2137C514.276 54.9919 513.931 55.4241 513.37 55.4674L498.788 56.2671C498.314 59.9632 497.839 63.5944 497.429 67.0527L511.99 66.253C512.551 66.2314 512.831 66.642 512.788 67.3986L512.378 74.9636C512.313 75.8282 511.99 76.2605 511.429 76.3037L496.351 77.1467C496.157 79.1352 495.984 81.1021 495.855 83.0042C495.315 91.4338 500.083 95.346 505.54 95.0434C507.891 94.9138 510.372 94.006 512.572 92.2552C515.937 89.7479 517.792 84.9495 518.116 79.6107C518.353 75.9147 517.857 71.916 516.606 68.2199C516.563 67.9605 516.52 67.7012 516.52 67.5499L516.563 67.5066Z" fill="var(--fill-1, white)"/>
</g>
</g>
<defs>
<linearGradient id="paint0_linear_300_1568" x1="46.8675" y1="11.8037" x2="46.8675" y2="134.059" gradientUnits="userSpaceOnUse">
<stop stop-color="#DA6000"/>
<stop offset="1" stop-color="#C51400"/>
</linearGradient>
<linearGradient id="paint1_linear_300_1568" x1="151.575" y1="6.95996" x2="151.575" y2="129.801" gradientUnits="userSpaceOnUse">
<stop stop-color="#DA6000"/>
<stop offset="1" stop-color="#C51400"/>
</linearGradient>
<linearGradient id="paint2_linear_300_1568" x1="256.277" y1="2.69929e-10" x2="256.277" y2="123.343" gradientUnits="userSpaceOnUse">
<stop stop-color="#DA6000"/>
<stop offset="1" stop-color="#C51400"/>
</linearGradient>
<linearGradient id="paint3_linear_300_1568" x1="337.885" y1="41.5615" x2="337.885" y2="114.426" gradientUnits="userSpaceOnUse">
<stop stop-color="#DA6000"/>
<stop offset="1" stop-color="#C51400"/>
</linearGradient>
<linearGradient id="paint4_linear_300_1568" x1="394.097" y1="39.7002" x2="394.097" y2="111.26" gradientUnits="userSpaceOnUse">
<stop stop-color="#DA6000"/>
<stop offset="1" stop-color="#C51400"/>
</linearGradient>
<linearGradient id="paint5_linear_300_1568" x1="445.677" y1="39.752" x2="445.677" y2="106.428" gradientUnits="userSpaceOnUse">
<stop stop-color="#DA6000"/>
<stop offset="1" stop-color="#C51400"/>
</linearGradient>
<linearGradient id="paint6_linear_300_1568" x1="502.111" y1="31.8428" x2="502.111" y2="105.838" gradientUnits="userSpaceOnUse">
<stop stop-color="#DA6000"/>
<stop offset="1" stop-color="#C51400"/>
</linearGradient>
</defs>
</svg>
