<svg preserveAspectRatio="none" width="100%" height="100%" overflow="visible" style="display: block;" viewBox="0 0 429.082 124.547" fill="none" xmlns="http://www.w3.org/2000/svg">
<g id="Group 19">
<path id="Vector" d="M41.4756 124.037L32.2957 124.545C31.5134 124.591 31.1223 124.037 31.1913 123.022L34.4354 71.3276C26.6128 81.9387 17.0188 91.6502 6.29729 99.0318C6.02121 99.1702 5.86015 99.2856 5.67609 99.2856C5.23895 99.2856 4.91685 98.9857 4.68678 98.4321L0.131306 87.3827C-0.0297461 87.0597 -0.00673872 86.829 0.0162687 86.5984C0.0622835 86.0217 0.338373 85.5603 0.890551 85.1912C18.9744 74.6724 33.7221 55.7569 40.8544 39.7249L6.57338 41.6165C5.79113 41.6626 5.40001 41.109 5.46903 40.094L6.15925 28.9523C6.22827 27.9374 6.68842 27.3376 7.47067 27.2915L80.3812 23.2546C81.1634 23.2085 81.5546 23.7621 81.4855 24.7771L80.7953 35.9188C80.7263 36.9337 80.2662 37.5335 79.4839 37.5796L53.5085 39.0098C51.6909 43.4157 49.5973 47.8217 47.2505 52.1584L42.8331 122.376C42.7641 123.391 42.3039 123.991 41.5217 124.037H41.4756ZM47.2505 65.1916C47.2505 64.8456 47.4806 64.3842 47.7567 64.0382L53.9457 56.1029C54.3138 55.6185 54.5899 55.5032 54.843 55.4801C55.1881 55.4801 55.4411 55.5493 55.6712 55.9876C62.0443 65.9298 70.7641 75.3183 79.5299 81.5004C79.944 81.8234 80.1741 82.2617 80.1511 82.723C80.1511 82.9537 80.0361 83.2997 79.829 83.6457L73.709 94.6259C73.433 95.0873 73.0418 95.4563 72.6967 95.4794C72.4436 95.4794 72.1905 95.3871 71.9375 95.1795C62.7345 87.9824 54.0377 77.8327 47.5266 66.2988C47.3655 65.9759 47.2275 65.5145 47.2505 65.1685V65.1916Z" fill="var(--fill-0, white)"/>
<path id="Vector_2" d="M143.124 116.149L140.778 105.307C140.709 105.077 140.64 104.869 140.64 104.638C140.686 103.946 141.146 103.485 141.905 103.554C149.497 103.462 151.89 99.9556 153.179 88.9985C154.237 80.5557 154.904 71.0057 155.456 62.3784C155.755 57.4881 156.055 52.8284 156.216 48.8608L150.165 49.2068C147.956 78.7564 143.032 102.355 133.76 117.925C133.461 118.387 133.116 118.64 132.771 118.663C132.518 118.663 132.265 118.456 132.012 118.248L126.168 112.343C114.112 114.834 99.2723 117.579 86.043 119.102H85.951C85.2607 119.148 84.8696 118.594 84.8236 117.695L84.6855 108.767V108.421C84.7546 107.614 85.2377 107.037 85.9279 106.991C91.8408 106.438 97.9148 105.884 103.897 105.1L104.265 99.3097L90.1613 100.094C89.3791 100.14 88.9649 99.7019 89.057 98.5715L89.5171 91.4206C89.5861 90.4056 90.0463 89.8058 90.8285 89.7597L104.932 88.9754L105.231 84.0851L90.7825 84.8924C90.0003 84.9386 89.6091 84.5003 89.6782 83.37L91.6798 51.5597C91.7488 50.5447 92.209 49.945 92.9912 49.8988L107.44 49.0915L107.693 44.8931L91.4267 45.7928C90.6445 45.8389 90.2533 45.2853 90.3224 44.2703L90.8055 36.7733C90.8745 35.7584 91.3347 35.1586 92.1169 35.1125L108.383 34.2128L108.636 30.3375C104.127 30.8219 99.5253 31.3063 95.1769 31.537C94.4867 31.5831 94.0035 31.1448 93.9805 30.1299L93.0832 22.5867L93.0142 22.1254C93.0602 21.3411 93.5204 20.8567 94.2106 20.8105L98.7201 20.5568C109.718 19.957 121.198 18.5268 129.619 16.2431H129.872C130.47 16.197 130.815 16.52 131.022 17.3043L132.886 24.5475C132.955 24.8935 133.024 25.2165 133.001 25.4471C132.955 26.0238 132.771 26.3698 132.334 26.5082C128.492 27.4079 123.407 28.3537 117.931 29.1149L117.655 33.6592L132.725 32.8288C133.507 32.7826 133.898 33.3363 133.829 34.3512L133.346 41.8482C133.277 42.8632 132.817 43.463 132.035 43.5091L116.965 44.3395L116.712 48.5378L130.999 47.7535C131.782 47.7074 132.173 48.261 132.104 49.276L130.102 81.0863C130.033 82.2166 129.573 82.701 128.791 82.7471L114.503 83.5314L114.204 88.4218L127.893 87.6606C128.676 87.6144 129.067 88.168 128.998 89.183L128.538 96.334C128.469 97.4643 128.009 97.9487 127.226 97.9949L113.537 98.7561L113.215 103.762C118.184 103.047 122.97 102.216 127.433 101.155H127.686C128.285 101.109 128.699 101.64 128.63 102.562L128.561 103.693C135.256 90.5209 138.638 72.3436 140.248 49.7143L135.302 49.9911C134.52 50.0372 134.128 49.4836 134.198 48.4686L134.819 38.4803C134.888 37.4654 135.348 36.8656 136.13 36.8195L141.054 36.5427L142.296 16.7737C142.365 15.7587 142.825 15.159 143.608 15.1128L151.407 14.6745C152.189 14.6284 152.58 15.182 152.511 16.197L151.269 35.966L165.718 35.1586C166.5 35.1125 166.891 35.6661 166.822 36.6811L165.695 54.5124C164.958 66.0923 164.153 77.8107 163.003 89.2983C160.679 111.166 157.251 116.334 144.413 117.279C143.631 117.326 143.216 117.003 143.009 116.103L143.124 116.149ZM105.806 75.2963L106.105 70.5213L99.2723 70.8904L98.9732 75.6654L105.806 75.2963ZM106.612 62.586L106.911 57.811L100.078 58.1801L99.7784 62.9551L106.612 62.586ZM121.843 74.4197L122.142 69.6447L115.4 70.0138L115.101 74.7888L121.843 74.4197ZM122.625 61.6864L122.924 56.9114L116.183 57.2805L115.884 62.0555L122.625 61.6864Z" fill="var(--fill-0, white)"/>
<path id="Vector_3" d="M196.523 90.1976L196.96 83.162C196.776 83.2773 196.592 83.4157 196.431 83.4157C196.178 83.4157 195.924 83.3235 195.671 83.1159L190.15 79.1252C188.562 92.1122 186.008 105.169 181.982 114.557C181.568 115.48 181.039 115.849 180.371 115.434L171.721 110.474C171.053 110.059 170.938 109.275 171.33 108.352C177.91 94.1883 179.612 76.8645 180.763 59.9329C181.039 55.5039 181.499 48.1223 181.729 43.2319C181.798 42.2169 182.166 41.6172 182.948 41.5941L197.742 40.7637C197.006 37.5111 196.086 34.1663 194.912 30.8446L185.134 31.3752C184.352 31.4213 183.961 30.8677 184.03 29.8527L184.559 21.5483C184.628 20.5334 185.088 19.9336 185.87 19.8875L211.662 18.4573L212.03 12.7826C212.099 11.7677 212.559 11.1679 213.341 11.1218L223.994 10.522C224.776 10.4759 225.167 11.0295 225.098 12.0445L224.73 17.7191L251.303 16.2428C252.086 16.1966 252.477 16.7503 252.408 17.7652L251.879 26.0696C251.81 27.0846 251.349 27.6843 250.567 27.7305L241.226 28.238C240.237 31.6981 239.063 35.2736 237.568 38.5261L252.799 37.6726C253.581 37.6265 253.972 38.1801 253.903 39.1951L253.328 48.5144C253.259 49.5294 252.799 50.1291 252.017 50.1753L192.266 53.497L191.714 62.355C191.438 66.5533 191.093 70.89 190.633 75.4343C194.797 69.7597 198.156 62.9086 200.457 55.0656C200.779 54.1429 201.239 53.6585 201.998 53.7277L208.924 54.8119C209.706 54.8811 210.074 55.6654 209.752 56.6803L208.141 61.6399L216.792 61.1555L217.16 55.4808C217.229 54.4659 217.69 53.8661 218.472 53.82L227.399 53.3355C228.181 53.2894 228.572 53.843 228.503 54.858L228.135 60.5326L247.622 59.4485C248.404 59.4023 248.796 59.956 248.727 60.9709L248.22 69.1599C248.151 70.1749 247.691 70.7747 246.909 70.8208L227.422 71.905L226.938 79.5173L243.826 78.5715C244.608 78.5254 244.999 79.079 244.93 80.094L244.47 87.4756C244.401 88.4906 243.941 89.0904 243.159 89.1365L226.271 90.0823L225.765 98.0406L248.704 96.7719C249.486 96.7258 249.877 97.2794 249.808 98.2944L249.21 107.729C249.141 108.744 248.681 109.344 247.898 109.39L189.966 112.596C189.183 112.642 188.792 112.089 188.861 111.074L189.459 101.639C189.528 100.624 189.989 100.024 190.771 99.9783L214.399 98.6635L214.906 90.7051L197.581 91.674C196.799 91.7201 196.408 91.1665 196.477 90.1515L196.523 90.1976ZM216.102 72.597L203.195 73.3121C201.814 76.1033 200.181 78.6869 198.478 81.1551L215.619 80.2093L216.102 72.597ZM228.503 28.9992L207.29 30.1756C208.464 33.4974 209.476 36.7268 210.212 40.0947L224.845 39.2874C226.34 35.9195 227.629 32.2287 228.503 28.9992Z" fill="var(--fill-0, white)"/>
<path id="Vector_4" d="M258.689 97.855L259.219 89.4584C259.288 88.4434 259.748 87.8437 260.53 87.7975L273.782 87.0594L274.196 80.462L262.946 81.0848C262.164 81.131 261.772 80.5774 261.841 79.5624L264.602 35.7108C264.671 34.6958 265.132 34.0961 265.914 34.0499L277.164 33.4271L277.579 26.8298L264.763 27.5449C263.981 27.591 263.59 27.0374 263.659 26.0224L264.188 17.6027C264.257 16.5877 264.717 15.988 265.5 15.9418L278.315 15.2267L278.683 9.20608C278.752 8.1911 279.212 7.59135 279.994 7.54521L287.104 7.15306C287.886 7.10692 288.277 7.66055 288.208 8.67552L287.84 14.6962L299.965 14.0272C300.747 13.9811 301.138 14.5347 301.069 15.5497L300.54 23.9694C300.471 24.9843 300.011 25.5841 299.229 25.6302L287.104 26.2992L286.689 32.8965L297.848 32.2737C298.63 32.2276 299.021 32.7812 298.952 33.7962L296.192 77.6478C296.123 78.6627 295.662 79.2625 294.88 79.3086L283.722 79.9315L283.307 86.5288L295.685 85.8368C296.468 85.7906 296.859 86.3443 296.79 87.3592L296.514 91.9036C296.698 91.7882 296.79 91.7651 296.951 91.7651C298.17 91.6959 299.459 91.5114 300.701 91.3269C304.06 80.5081 306.89 68.3515 308.662 57.948L300.609 58.3863C299.827 58.4324 299.436 57.8788 299.505 56.8638L300.172 46.4142C300.241 45.3992 300.701 44.7994 301.483 44.7533L339.676 42.6311C340.458 42.5849 340.849 43.1386 340.78 44.1535L340.113 54.6032C340.044 55.6182 339.584 56.2179 338.801 56.2641L319.153 57.3482C317.174 68.3284 314.367 79.793 311.537 89.2508C316.185 88.1897 320.74 86.8287 324.882 85.4677C323.777 79.6316 322.42 73.8185 320.832 68.8129C320.763 68.4668 320.694 68.2592 320.717 68.0286C320.74 67.4519 321.132 66.9905 321.661 66.7368L328.678 63.392C328.862 63.2766 329.023 63.2536 329.207 63.2536C329.644 63.2536 329.966 63.5534 330.173 64.2224C334.016 75.6639 336.8 89.2046 337.812 100.715L337.881 101.177C337.835 101.846 337.444 102.445 336.846 102.699L329 106.759C328.816 106.874 328.655 106.898 328.471 106.898C327.942 106.921 327.712 106.598 327.597 105.698C327.413 103.207 327.137 100.508 326.814 97.6935C317.888 101.131 307.258 104.106 297.848 105.629H297.595C296.997 105.675 296.675 105.237 296.56 104.337L296.007 96.6786C295.823 97.0246 295.524 97.3706 295.018 97.4167L282.64 98.1087L281.95 109.135C281.881 110.15 281.421 110.75 280.639 110.796L273.529 111.188C272.747 111.234 272.356 110.681 272.425 109.666L273.115 98.6393L259.863 99.3775C259.081 99.4236 258.689 98.87 258.758 97.855H258.689ZM275.83 61.362L271.067 61.6157L270.515 70.243L275.278 69.9893L275.83 61.362ZM276.934 43.8537L272.172 44.1074L271.666 52.1811L276.428 51.9273L276.934 43.8537ZM289.174 60.6238L284.412 60.8776L283.86 69.5049L288.622 69.2511L289.174 60.6238ZM290.256 43.1155L285.493 43.3692L284.987 51.4429L289.749 51.1892L290.256 43.1155ZM305.533 13.0584L338.686 11.213C339.469 11.1668 339.86 11.7205 339.791 12.7354L339.123 23.3004C339.054 24.3154 338.594 24.9151 337.812 24.9613L304.658 26.8067C303.876 26.8528 303.485 26.2992 303.554 25.2842L304.221 14.7192C304.29 13.7043 304.75 13.1045 305.533 13.0584Z" fill="var(--fill-0, white)"/>
<path id="Vector_5" d="M350.259 18.0646L350.903 7.96101C350.972 6.94603 351.432 6.34627 352.215 6.30014L379.409 4.80074C380.192 4.7546 380.583 5.30823 380.514 6.3232L380.238 10.6369H380.33L388.98 10.1524L389.372 3.78576C389.441 2.77079 389.901 2.17103 390.683 2.12489L398.045 1.70968C398.828 1.66354 399.219 2.21716 399.15 3.23214L398.759 9.59881L405.592 9.22973C406.374 9.18359 406.765 9.73721 406.696 10.7522L406.19 18.8259C406.121 19.8408 405.661 20.4406 404.879 20.4867L404.188 20.5329C403.475 24.9849 402.578 29.5754 401.796 33.7968L406.65 33.52C407.064 25.4463 407.662 16.15 408.537 2.05569C408.606 1.04071 409.066 0.440955 409.848 0.394819L416.635 0.00266958C417.418 -0.0434657 417.809 0.510158 417.74 1.52513L415.784 32.6434L426.782 32.0436C427.564 31.9975 427.955 32.5511 427.886 33.5661L427.334 42.3087C427.265 43.3237 426.805 43.9235 426.022 43.9696L415.117 44.5694C414.864 51.4896 414.726 59.0789 414.91 65.6301C416.566 61.3395 418.177 56.1724 419.718 49.6212C419.971 48.4678 420.501 48.0987 421.26 48.5139L426.459 50.936C427.127 51.2359 427.334 52.0202 427.104 52.9429C424.757 61.5702 421.122 71.397 416.497 80.4626C416.589 81.7083 416.681 82.9539 416.888 83.9458C417.211 85.7451 417.671 86.737 418.269 86.6909C419.212 86.6447 420.432 83.7382 421.651 76.8871C421.789 75.9644 422.18 75.5031 422.525 75.48C422.778 75.48 423.031 75.6876 423.261 76.1259L426.552 82.631C426.851 83.2999 426.989 83.9689 426.736 85.2145C424.182 97.0252 420.017 102.907 416.198 103.115C413.598 103.253 411.091 100.785 409.319 95.8026C409.112 95.1336 408.974 94.3493 408.767 93.6804C406.098 97.5557 403.015 101.362 400.254 103.992C399.978 104.222 399.725 104.361 399.449 104.384C399.196 104.384 398.851 104.199 398.621 103.853L394.502 97.9709L377.362 98.9167C376.579 98.9628 376.188 98.4092 376.257 97.3943L379.041 53.0813C379.11 52.0663 379.57 51.4666 380.353 51.4204L401.819 50.2209C402.601 50.1748 402.992 50.7284 402.923 51.7434L400.576 89.113C402.877 86.7139 404.948 84.2226 406.765 81.293C405.5 71.051 405.707 57.1181 406.213 44.7539L375.038 46.484L371.426 104.084C371.357 105.099 370.897 105.699 370.114 105.745L363.971 106.091C363.189 106.137 362.798 105.583 362.867 104.568L363.787 89.805C358.634 92.0195 352.215 94.1878 346.762 95.618H346.509C345.911 95.6642 345.588 95.2259 345.565 94.3262L345.197 83.8074V83.5767C345.266 82.6771 345.726 82.1927 346.44 82.0312C347.475 81.8697 348.625 81.5698 349.776 81.293L353.664 19.3795L351.409 19.4948C350.627 19.541 350.236 18.9873 350.305 17.9724L350.259 18.0646ZM359.255 65.6762L358.427 78.9632C360.635 78.2712 362.637 77.7176 364.685 76.9102L365.421 65.3302L359.278 65.6762H359.255ZM366.87 42.055L360.727 42.401L359.991 54.2116L366.134 53.8656L366.87 42.055ZM368.343 18.6413L362.2 18.9873L361.464 30.6826L367.607 30.3366L368.343 18.6413ZM381.687 21.7555L379.616 21.8708C378.834 21.9169 378.443 21.3633 378.512 20.3483L378.65 18.0646H378.558L376.832 18.1569L375.751 35.2039L382.515 34.8348C382.354 30.5442 382.032 26.023 381.687 21.7555ZM393.122 78.8479L385.759 79.2631L385.207 87.8904L392.57 87.4752L393.122 78.8479ZM394.249 61.0166L386.887 61.4318L386.381 69.5055L393.743 69.0903L394.249 61.0166ZM396.504 20.925L389.74 21.2941C389.993 25.5847 390.223 30.1059 390.384 34.3965L394.272 34.1889C395.054 29.9675 395.86 25.2617 396.481 20.925H396.504ZM417.993 8.5377C417.924 8.19168 417.855 7.98407 417.878 7.7534C417.924 7.17671 418.292 6.71535 418.821 6.46161L423.883 4.24712C424.067 4.13178 424.228 4.10871 424.412 4.10871C424.849 4.10871 425.171 4.29325 425.401 4.96221C427.403 10.4062 428.53 16.9112 429.013 22.8858L429.082 23.3241C429.036 23.993 428.645 24.5928 428.047 24.8465L422.341 27.753C422.157 27.8684 421.996 27.8914 421.812 27.8914C421.283 27.9145 421.053 27.5916 420.938 26.6919C420.57 20.2561 419.534 13.405 418.016 8.51463L417.993 8.5377Z" fill="var(--fill-0, white)"/>
</g>
</svg>
