<svg preserveAspectRatio="none" width="100%" height="100%" overflow="visible" style="display: block;" viewBox="0 0 102 110" fill="none" xmlns="http://www.w3.org/2000/svg">
<g id="_&#227;&#131;&#172;&#227;&#130;&#164;&#227;&#131;&#164;&#227;&#131;&#188;_1">
<g clip-path="url(#clip0_300_1590)">
<path id="Vector" d="M90.8946 118.128H101.471C101.785 117.364 101.963 116.55 101.93 115.786C101.877 114.606 101.474 113.376 100.805 112.313C100.828 109.004 100.982 105.692 101.074 102.383C100.346 100.763 99.6047 99.1499 98.8766 97.5331L97.1746 93.752C97.1812 93.4503 97.1844 93.1486 97.1812 92.8436C97.1549 89.374 96.581 85.7339 95.3119 82.4905C94.0034 79.1488 92.2752 75.9317 89.5303 73.5312C86.7658 71.1143 83.493 69.5533 79.8856 69.1598C76.7374 67.6644 73.5892 66.169 70.4409 64.6703C69.1456 64.8703 67.9322 64.6899 66.7647 64.0767C66.3318 63.8471 65.9547 63.5618 65.6202 63.2372C65.6005 63.2372 65.5841 63.2372 65.5645 63.2372C65.5284 63.1781 65.489 63.1257 65.453 63.0666C65.2267 62.8305 65.0168 62.5747 64.82 62.3058C63.3673 62.4304 61.7243 61.4663 61.7144 59.5675C61.7013 56.6161 61.4095 53.6974 60.8946 50.7918C60.5962 49.0997 61.7636 48.0109 63.0787 47.7715C63.141 47.6436 63.2099 47.5157 63.2984 47.4009C63.364 47.3124 63.4329 47.2238 63.4984 47.1353C63.7674 46.2269 64.1642 45.3546 64.7315 44.5347C65.3611 43.6231 66.2499 43.3181 67.0992 43.4132C67.5026 43.2 67.9355 43.0885 68.3651 43.0852C68.4044 42.8918 68.4405 42.6983 68.4733 42.5048C68.5618 42.3998 68.6504 42.2982 68.7356 42.19C70.9033 39.3861 71.2509 35.3721 69.4178 32.2829C68.9291 31.4565 68.2765 30.7252 67.5223 30.1316C67.0369 26.1701 65.3841 22.3529 62.59 19.4637C61.7374 18.5816 60.7798 17.8339 59.7501 17.2239C59.5205 16.7615 59.2549 16.3155 58.927 15.8924C55.7492 11.7768 50.371 11.8161 46.4685 14.8299C44.3599 16.4565 42.6152 18.7226 41.2838 21.228C39.3063 23.8024 38.1028 26.8883 37.624 30.1546C34.8135 30.3546 32.0129 31.7156 30.547 34.2079C29.3205 36.2903 29.068 38.4482 29.6452 40.5995C32.1638 41.134 33.8231 43.5837 34.6955 45.9219C34.8693 46.3843 35.0234 46.8533 35.171 47.3255C35.6498 48.2733 36.0007 49.2702 36.2466 50.3098C37.1124 50.7164 37.7847 51.5527 37.7912 52.7792C37.8043 56.2848 37.742 59.4035 35.2005 62.1189C33.3542 64.0898 30.8192 65.3983 28.3072 66.3165C25.8837 67.1987 23.411 67.7791 20.9121 68.2645C20.8761 68.3006 20.84 68.3334 20.8039 68.3694C19.5676 68.5432 18.3476 68.9466 17.2326 69.5763C14.514 71.1176 12.3431 73.9805 10.5853 76.4794C7.73877 80.5262 5.86624 85.4354 4.95128 90.3021C3.4034 92.0565 2.354 94.2964 1.82273 96.5821C0.894662 100.576 0.57656 104.876 0.714295 108.972C0.789721 111.218 1.05535 113.445 1.38329 115.665C1.53742 116.718 1.83913 117.662 2.26873 118.495C2.48189 118.443 2.70817 118.413 2.95413 118.413H89.6484C90.0058 118.233 90.419 118.128 90.8978 118.128H90.8946Z" fill="var(--fill-0, white)"/>
<path id="Vector_2" d="M54.2961 95.9357C54.1649 95.3815 54.0338 94.824 53.919 94.2566C53.8665 93.6729 53.814 93.0925 53.7517 92.5087C53.7124 92.1349 53.6205 91.7708 53.4828 91.4396C53.1614 88.4751 53.1909 85.4154 53.0237 82.4672C54.9225 81.28 55.8669 79.1222 55.4045 76.8135C55.3521 76.5511 55.2635 76.315 55.152 76.1019C55.1783 75.8494 55.1783 75.5936 55.1455 75.3312C55.1192 75.1312 55.0733 74.941 55.0176 74.7573C54.6634 74.6065 54.3322 74.3835 54.0469 74.0982C52.4728 72.524 50.9708 70.9139 49.9312 68.92C49.8164 68.7003 49.7443 68.4707 49.7049 68.2346C49.2524 68.0837 48.7802 68.0411 48.321 68.1231C47.8029 71.3271 45.6778 73.3111 43.6348 75.4919C43.4905 76.3609 43.4151 77.2497 43.4642 78.1253C43.5561 79.7584 44.2972 80.6734 45.527 81.6342C45.5762 81.6736 45.6254 81.7064 45.6746 81.7457C45.6647 81.8605 45.6614 81.9753 45.6713 82.0933C45.7172 82.7099 45.7893 83.3133 45.8844 83.9101C45.8943 84.0807 45.914 84.2545 45.95 84.4283C46.032 84.812 46.0976 85.1989 46.1534 85.5892C46.0189 85.9302 45.9435 86.3205 45.9533 86.7632C45.9631 87.301 45.9763 87.8356 45.9861 88.3734C46.0025 89.6622 45.9828 90.951 45.9304 92.2398C45.7664 92.6005 45.6811 92.9941 45.7041 93.3909C45.727 93.8172 45.7402 94.2402 45.7434 94.6633C45.2614 94.9781 44.8514 95.4077 44.5399 95.9193C44.3661 96.7129 44.2087 97.5065 44.0709 98.3067C46.2878 103.521 48.8228 108.62 49.7738 114.258C49.8099 114.471 49.823 114.674 49.8132 114.871C49.9115 115.14 50.0132 115.409 50.1083 115.681C50.6494 115.55 51.1216 115.261 51.5021 114.858C51.5119 114.825 51.5185 114.792 51.5283 114.759C52.1579 112.772 52.7909 110.791 53.4533 108.817C53.4664 108.656 53.4861 108.499 53.5091 108.342C53.5582 108.306 53.6042 108.266 53.6533 108.227C53.8796 107.564 54.1059 106.902 54.3387 106.243C54.4863 105.656 54.6404 105.069 54.811 104.488C55.07 103.603 55.3685 102.675 55.7226 101.757C54.9356 99.9136 54.4798 97.9329 54.2961 95.9259V95.9357Z" fill="var(--fill-0, #EDD41E)"/>
<path id="Vector_3" d="M70.9625 13.6585C69.5327 10.7562 67.2634 8.47047 64.6202 6.61761C63.9709 6.16177 63.2232 5.89286 62.4394 5.78136C61.9278 4.98774 61.2326 4.28595 60.357 3.73829C53.9064 -0.298653 46.0916 -0.347844 39.5819 3.61039C34.1053 6.94227 30.521 12.2483 27.3203 17.6495C27.2416 17.7545 27.1596 17.8528 27.0841 17.9578C26.6677 18.5251 26.2577 19.1416 25.8839 19.7942C26.0085 21.3093 25.8937 22.867 25.7822 24.346C25.6511 26.1235 25.4313 27.9009 25.2969 29.6816C25.5363 29.9965 25.8085 30.3047 26.1266 30.5966C29.1567 33.3808 33.3347 33.0693 36.3189 30.449C37.4536 29.4521 38.503 28.3371 39.5459 27.245C40.6543 26.0841 41.73 24.8904 42.7794 23.6771C43.245 20.6994 44.2781 17.6397 46.1473 15.3867C47.5115 13.7437 49.2923 12.5796 51.4829 12.5402C53.5719 12.5009 55.31 13.5273 56.8578 14.803C57.6515 14.7112 58.5107 14.9604 59.1993 15.6196C60.8259 17.1773 61.2522 19.6434 61.3965 21.7881C61.4818 23.0441 61.5015 24.2969 61.4982 25.5529C61.4982 25.7037 61.4982 25.8546 61.4982 26.0054C61.7966 26.8187 62.1737 27.6091 62.6952 28.3666C63.7774 29.9342 65.3089 31.0131 67.0174 31.3574C67.224 31.118 67.4798 30.9016 67.8012 30.7245C71.0904 28.9077 72.1694 25.6578 73.3106 22.2407C73.4451 21.8373 73.6385 21.5126 73.8747 21.2569C73.8583 20.5124 73.8779 19.7811 73.9599 19.0301C74.196 16.9051 72.822 14.8358 70.9691 13.6585H70.9625Z" fill="var(--fill-0, #606761)"/>
<path id="Vector_4" d="M92.9018 118.127H99.9459C100.772 117.396 101.474 116.51 102.005 115.487C101.615 115.123 101.34 114.648 101.281 114.103C100.402 105.783 98.7194 97.5817 96.6961 89.4684C96.5649 88.947 96.5846 88.4846 96.7125 88.0878C96.3353 87.445 95.9352 86.822 95.5056 86.2218C95.1252 85.6938 94.7219 85.1757 94.2923 84.6772C93.8102 82.8047 93.2691 80.9649 92.4197 79.2859C92.5902 78.7973 92.6198 78.2266 92.446 77.5937C91.9147 75.6556 90.4521 74.5996 88.8255 73.5961C87.3071 72.6615 85.7789 71.74 84.1884 70.93C80.9812 69.2936 77.5968 68.1261 73.9862 67.9884C73.6976 67.8834 73.4025 67.785 73.1106 67.6834C73.1008 67.6735 73.0942 67.6604 73.0844 67.6506L72.8482 67.3784C70.5133 66.3093 68.0931 64.968 66.2304 63.125C65.5319 63.5054 64.958 64.1416 64.6957 64.9057C64.2562 66.1912 64.207 67.4669 64.3579 68.7754C64.3218 69.5002 64.3218 70.2151 64.3677 70.9333C63.7676 72.5598 63.4233 74.2914 63.1084 76.0557C62.8231 77.6462 62.587 79.2465 62.3968 80.8502C59.606 85.9267 57.9335 91.3705 56.8612 96.9651C56.6283 97.421 56.3988 97.8735 56.1692 98.3228C53.444 103.744 50.8631 109.63 51.6404 115.845C51.7519 116.746 52.2044 117.579 52.8537 118.13H92.8985L92.9018 118.127Z" fill="var(--fill-0, #FFA044)"/>
<path id="Vector_5" d="M49.14 112.638C49.117 112.606 49.0941 112.569 49.0678 112.524C49.163 112.684 49.0646 112.54 48.9629 112.389C48.8055 107.224 46.6083 102.305 44.3029 97.7236C44.0766 97.2743 43.8438 96.8218 43.6109 96.3659C42.5386 90.7713 40.8661 85.3275 38.0753 80.2509C37.8851 78.6473 37.649 77.047 37.3637 75.4565C37.2128 74.6202 37.0554 73.7905 36.8685 72.9739C36.8652 72.9674 36.8586 72.9641 36.8554 72.9608C34.8943 70.252 33.0677 67.4514 31.3361 64.5918C31.2312 64.6607 31.1295 64.7361 31.0377 64.8181C30.1523 65.5953 29.175 66.2676 28.1322 66.8119C27.5812 66.9989 27.0303 67.1858 26.4826 67.3858C22.872 67.5236 19.4876 68.6943 16.2804 70.3275C16.0246 70.4586 15.7754 70.5931 15.5229 70.7308C15.2736 71.3211 14.8178 71.836 14.2242 72.177C11.7286 73.62 9.76422 76.7125 8.2557 79.3425C8.16716 79.4967 8.08517 79.6508 7.99991 79.8049C5.49444 90.8795 1.06725 101.524 0.257238 112.937C0.234283 113.252 0.168695 113.534 0.0703125 113.786C0.312988 115.206 0.637649 116.606 1.07381 117.974C1.14596 118.03 1.22138 118.079 1.29353 118.128H2.37901H44.6997C44.7194 118.062 44.7423 118 44.7587 117.931C44.9456 118.02 45.1358 118.085 45.3195 118.128H46.4607C46.5985 118.095 46.7362 118.049 46.8674 117.994C47.0773 118.089 47.3003 118.174 47.5397 118.246C51.124 119.335 52.6621 113.763 49.14 112.638Z" fill="var(--fill-0, #FFA044)"/>
<path id="Vector_6" d="M49.2775 57.7596C49.0939 57.7596 48.9103 57.7563 48.7233 57.7498C41.5644 57.4644 35.4582 51.8173 33.038 43.3105C30.4472 42.7334 28.6009 39.7852 28.7419 36.2664C28.8698 33.0296 30.6669 30.3241 33.1101 29.6846C33.5791 29.5633 34.0578 29.842 34.1825 30.311C34.3038 30.7799 34.0251 31.2587 33.5561 31.3834C31.8803 31.8195 30.5948 33.9052 30.4997 36.3353C30.3882 39.1326 31.8672 41.5167 33.7988 41.6512C34.1759 41.6774 34.4907 41.9398 34.5858 42.3038C36.6945 50.358 42.2727 55.7329 48.7955 55.9953C48.9562 56.0018 49.1169 56.0051 49.2775 56.0051C55.7872 56.0051 61.7786 50.7449 64.2972 42.753C64.3694 42.5268 64.5268 42.3398 64.7366 42.2349C64.9465 42.1267 65.1925 42.1103 65.4155 42.1857C65.6418 42.2611 65.8746 42.3038 66.1107 42.3136C68.0816 42.4054 69.7836 40.1361 69.8984 37.2797C70.0132 34.4266 68.4981 32.0392 66.5272 31.9605C66.0419 31.9409 65.6647 31.5342 65.6844 31.0489C65.7041 30.5635 66.1074 30.1897 66.5961 30.2061C69.5377 30.3241 71.8038 33.5281 71.6529 37.3486C71.5021 41.0969 69.0753 44.0681 66.2091 44.0681C66.1534 44.0681 66.0976 44.0681 66.0419 44.0648C65.9369 44.0615 65.8287 44.0517 65.7237 44.0386C62.8346 52.342 56.3512 57.7563 49.2841 57.7563L49.2775 57.7596Z" fill="var(--fill-0, black)"/>
<path id="Vector_7" d="M50.4207 118.255C50.0535 118.255 49.7091 118.022 49.5878 117.652L33.2432 68.3527C33.0924 67.8935 33.3416 67.3951 33.8007 67.2442C34.2599 67.0934 34.7583 67.3426 34.9092 67.8017L51.2537 117.101C51.4046 117.56 51.1553 118.059 50.6962 118.209C50.6044 118.239 50.5126 118.255 50.4207 118.255Z" fill="var(--fill-0, black)"/>
<path id="Vector_8" d="M50.422 118.256C50.3433 118.256 50.2646 118.246 50.1826 118.223C49.7169 118.092 49.4448 117.606 49.5759 117.141L63.7495 66.8018C63.8807 66.3361 64.366 66.0639 64.8317 66.1951C65.2974 66.3262 65.5696 66.8116 65.4384 67.2773L51.2648 117.616C51.1566 118.003 50.8024 118.256 50.4187 118.256H50.422Z" fill="var(--fill-0, black)"/>
<path id="Vector_9" d="M101.747 116.717C101.557 107.856 100.704 98.943 98.0608 90.4461C96.7752 86.3141 95.1159 82.2411 92.9744 78.473C91.0625 75.1116 88.6554 71.9634 85.4777 69.7072C83.5363 68.3298 81.3489 67.4313 79.0337 66.9164C76.6135 66.3786 74.1375 66.1687 71.7272 65.5784C70.6056 65.3029 70.1268 67.0345 71.2484 67.3099C75.3476 68.3167 79.706 68.2905 83.4281 70.5106C86.5697 72.3832 88.9506 75.2756 90.8297 78.3681C92.9777 81.8967 94.6207 85.7467 95.9226 89.6591C97.2737 93.7124 98.2182 97.8904 98.8445 102.114C99.5627 106.945 99.8448 111.834 99.9497 116.714C99.9759 117.868 101.77 117.872 101.744 116.714L101.747 116.717Z" fill="var(--fill-0, black)"/>
<path id="Vector_10" d="M2.62883 117.006C1.48104 112.608 1.84505 108.073 2.44518 103.619C3.02564 99.3034 3.7471 95.0369 5.03919 90.8688C6.23945 87.0024 7.88243 83.2901 9.88287 79.7713C11.7259 76.5346 13.9592 73.4388 16.9205 71.1334C18.6389 69.7954 20.5475 68.8837 22.6365 68.2934C24.8763 67.6638 27.1817 67.3129 29.4248 66.6996C30.5988 66.3783 30.1004 64.5484 28.9198 64.8697C26.857 65.4338 24.7451 65.7748 22.6758 66.3159C20.636 66.8472 18.6749 67.6179 16.9205 68.8017C13.6443 71.0153 11.0995 74.1176 9.04006 77.4594C6.87237 80.9847 5.09166 84.7954 3.74383 88.7077C2.27793 92.9676 1.41217 97.3489 0.789085 101.802C0.0577781 107.03 -0.562029 112.319 0.792364 117.504C1.10063 118.685 2.93053 118.183 2.62227 116.999L2.62883 117.006Z" fill="var(--fill-0, black)"/>
<path id="Vector_11" d="M72.029 79.86C71.5994 79.86 71.2255 79.5451 71.16 79.1057L69.1497 65.1912C69.0808 64.7124 69.412 64.2664 69.8941 64.1975C70.3762 64.1287 70.8189 64.4599 70.8878 64.942L72.898 78.8565C72.9669 79.3353 72.6357 79.7813 72.1536 79.8501C72.111 79.8567 72.0684 79.86 72.0257 79.86H72.029Z" fill="var(--fill-0, black)"/>
<path id="Vector_12" d="M75.5023 85.1495C75.44 85.1495 75.381 85.1429 75.3187 85.1298L64.7656 82.867C64.2901 82.7654 63.9884 82.2997 64.09 81.8242C64.1917 81.3487 64.6606 81.0469 65.1329 81.1486L75.686 83.4114C76.1615 83.5131 76.4632 83.9787 76.3615 84.4542C76.273 84.8675 75.909 85.1495 75.5023 85.1495Z" fill="var(--fill-0, black)"/>
<path id="Vector_13" d="M61.429 107.263C61.2618 107.263 61.0913 107.214 60.9404 107.115C60.537 106.847 60.4288 106.299 60.701 105.899L75.0222 84.54C75.2911 84.1367 75.8387 84.0284 76.2388 84.3006C76.6422 84.5695 76.7504 85.1172 76.4782 85.5173L62.1571 106.876C61.9865 107.129 61.7111 107.266 61.4258 107.266L61.429 107.263Z" fill="var(--fill-0, black)"/>
<path id="Vector_14" d="M27.4917 81.1913C27.4359 81.1913 27.3835 81.1848 27.3277 81.1749C26.8522 81.0831 26.5374 80.624 26.6292 80.1485L29.1773 66.7193C29.2691 66.2438 29.7282 65.929 30.2038 66.0208C30.6793 66.1126 30.9941 66.5717 30.9023 67.0473L28.3542 80.4764C28.2755 80.8962 27.9049 81.1913 27.4917 81.1913Z" fill="var(--fill-0, black)"/>
<path id="Vector_15" d="M24.0156 85.1856C23.609 85.1856 23.245 84.9036 23.1564 84.4904C23.0548 84.0149 23.3565 83.5492 23.832 83.4475L34.3851 81.1847C34.8606 81.0831 35.3263 81.3848 35.4279 81.8603C35.5296 82.3358 35.2279 82.8015 34.7524 82.9031L24.1993 85.1659C24.137 85.1791 24.0747 85.1856 24.0156 85.1856Z" fill="var(--fill-0, black)"/>
<path id="Vector_16" d="M38.088 107.298C37.8059 107.298 37.5272 107.16 37.3567 106.908L23.0355 85.549C22.7666 85.1457 22.8715 84.6013 23.2749 84.3324C23.6783 84.0635 24.2226 84.1684 24.4916 84.5718L38.8127 105.931C39.0816 106.334 38.9767 106.878 38.5733 107.147C38.4225 107.249 38.2519 107.295 38.0847 107.295L38.088 107.298Z" fill="var(--fill-0, black)"/>
<path id="Vector_17" d="M36.5839 51.644C36.8102 54.9202 37.0397 58.193 37.266 61.4691C37.3021 61.9807 37.6759 62.4169 38.2137 62.4169C38.6991 62.4169 39.1976 61.9807 39.1615 61.4691C38.9352 58.193 38.7057 54.9202 38.4794 51.644C38.4433 51.1324 38.0694 50.6963 37.5316 50.6963C37.0463 50.6963 36.5478 51.1324 36.5839 51.644Z" fill="var(--fill-0, black)"/>
<path id="Vector_18" d="M60.6758 51.0832V61.4559C60.6758 62.6759 62.5713 62.6791 62.5713 61.4559V51.0832C62.5713 49.8632 60.6758 49.86 60.6758 51.0832Z" fill="var(--fill-0, black)"/>
<path id="Vector_19" d="M62.4226 61.1672C58.5988 63.4431 54.2602 65.3222 49.787 65.7255C49.2427 65.7747 48.6261 66.3027 48.8721 66.9258C50.1019 70.0215 51.3612 73.1009 52.6532 76.1737C52.8992 76.7574 53.4469 77.0427 54.047 76.741C57.4412 75.0259 60.7468 73.1435 63.9573 71.1037C64.9838 70.4511 64.0328 68.8082 62.9998 69.4673C59.7925 71.5071 56.4836 73.3895 53.0894 75.1046C53.5551 75.2948 54.0175 75.4817 54.4831 75.6719C53.1943 72.6024 51.9318 69.5198 50.7053 66.424C50.4003 66.8241 50.0953 67.2242 49.7903 67.6243C54.611 67.1914 59.2547 65.2631 63.3834 62.8069C64.4329 62.1838 63.4785 60.5441 62.4259 61.1704L62.4226 61.1672Z" fill="var(--fill-0, black)"/>
<path id="Vector_20" d="M35.8251 62.3582C37.4091 63.3059 39.0685 64.1422 40.7213 64.9555C41.9183 65.5458 43.1316 66.1065 44.3614 66.6214C45.3419 67.0313 46.352 67.4347 47.3949 67.6544C48.218 67.8282 49.5593 67.9692 49.979 66.9985C49.4018 66.7559 48.8247 66.5099 48.2475 66.2672C47.0177 69.363 45.7584 72.4424 44.4663 75.5152C44.932 75.3249 45.3944 75.138 45.8601 74.9478C42.2626 73.1277 38.7602 71.1208 35.3693 68.9367C34.3396 68.2742 33.3885 69.9139 34.4117 70.5731C37.8026 72.7572 41.305 74.7642 44.9025 76.5842C45.5026 76.8892 46.0503 76.6006 46.2963 76.0169C47.5851 72.9474 48.8476 69.8647 50.0774 66.769C50.4709 65.7786 48.7689 65.0506 48.3459 66.0377C48.277 66.1984 48.3295 66.0606 48.4082 65.9787C48.3098 66.0803 48.6607 65.8212 48.4672 65.9262C48.3721 65.9786 48.7525 65.818 48.5328 65.8868C48.3098 65.959 48.7525 65.8999 48.5525 65.8868C48.418 65.877 48.277 65.8737 48.1426 65.8704C47.9622 65.8672 48.3885 65.9196 48.2081 65.8803C48.1754 65.8737 48.1426 65.8704 48.1098 65.8639C48.0048 65.8442 47.8999 65.8245 47.7949 65.8016C46.8144 65.5818 45.8699 65.2047 44.9451 64.821C44.9189 64.8112 44.6697 64.7062 44.8697 64.7882C44.8074 64.762 44.7418 64.7325 44.6795 64.7062C44.5385 64.6439 44.3975 64.5849 44.2565 64.5226C43.9679 64.3947 43.6826 64.2668 43.3973 64.1356C42.8496 63.8831 42.3019 63.6208 41.7608 63.3551C40.7508 62.8599 39.7538 62.3451 38.7635 61.8138C38.101 61.4596 37.4353 61.1055 36.7893 60.7185C35.7399 60.0921 34.7856 61.7285 35.8317 62.3549L35.8251 62.3582Z" fill="var(--fill-0, black)"/>
<path id="Vector_21" d="M42.1411 76.6133C42.6002 77.7808 43.0954 78.9319 43.6431 80.06C43.9087 80.6109 44.1874 81.1553 44.476 81.6931C44.7515 82.208 45.0171 82.7688 45.4533 83.1721C46.4076 84.051 47.9096 83.7788 49.1 83.7624C50.4085 83.746 51.7202 83.7296 53.0287 83.7132C53.4845 83.7067 53.783 83.4148 53.9437 83.018C54.7897 80.9061 55.6358 78.7941 56.4852 76.6822C56.6754 76.2067 56.2786 75.6393 55.8228 75.5147C55.2817 75.3672 54.8488 75.6984 54.6553 76.1772C53.8092 78.2891 52.9631 80.401 52.1137 82.513L53.0287 81.8177C51.8514 81.8341 50.6774 81.8472 49.5001 81.8636C48.9393 81.8702 48.3785 81.8768 47.8177 81.8866C47.4865 81.8899 46.952 82.0014 46.7093 81.7489C46.4174 81.4504 46.2371 80.9716 46.0436 80.6044C45.7812 80.1092 45.5287 79.6107 45.2828 79.1057C44.8072 78.1251 44.3711 77.1282 43.971 76.1116C43.7841 75.6361 43.3348 75.3048 42.8035 75.4491C42.351 75.5738 41.9542 76.1378 42.1411 76.6166V76.6133Z" fill="var(--fill-0, black)"/>
<path id="Vector_22" d="M45.6024 84.7563C45.2285 88.4096 44.858 92.0661 44.4841 95.7194C44.4316 96.231 44.9563 96.6671 45.4319 96.6671C45.9894 96.6671 46.3271 96.231 46.3796 95.7194C46.7535 92.0661 47.124 88.4096 47.4979 84.7563C47.5503 84.2448 47.0256 83.8086 46.5501 83.8086C45.9926 83.8086 45.6549 84.2448 45.6024 84.7563Z" fill="var(--fill-0, black)"/>
<path id="Vector_23" d="M54.3766 94.8664C53.9798 91.5969 53.583 88.3306 53.1895 85.061C53.1271 84.5527 52.7992 84.1133 52.2417 84.1133C51.776 84.1133 51.2317 84.5494 51.294 85.061C51.6908 88.3306 52.0876 91.5969 52.4811 94.8664C52.5434 95.3747 52.8713 95.8142 53.4288 95.8142C53.8945 95.8142 54.4389 95.378 54.3766 94.8664Z" fill="var(--fill-0, black)"/>
<path id="Vector_24" d="M56.4584 14.2363C54.7072 12.7376 52.4575 11.6915 50.1291 11.6292C47.7089 11.5668 45.5872 12.8294 44.4164 14.9348C43.3244 16.8992 43.0325 19.1718 42.4422 21.31C42.1503 22.3626 41.8388 23.2317 41.2518 24.1466C40.632 25.1141 39.8777 25.9798 39.0316 26.7505C37.1197 28.4886 34.634 29.6987 32.0727 29.9905C31.5644 30.0496 31.125 30.3841 31.125 30.9383C31.125 31.4072 31.5612 31.9451 32.0727 31.886C34.5192 31.6073 36.8607 30.7284 38.8709 29.2953C40.7599 27.9475 42.5373 26.1241 43.4982 23.9827C44.4033 21.9724 44.6755 19.7817 45.3182 17.6895C45.8954 15.8235 46.912 14.0658 48.9453 13.6165C51.0178 13.1606 53.5135 14.1936 55.1204 15.5677C55.5106 15.8989 56.078 15.9481 56.4617 15.5677C56.8027 15.2267 56.8519 14.5609 56.4617 14.2264L56.4584 14.2363Z" fill="var(--fill-0, black)"/>
<path id="Vector_25" d="M58.4874 16.1709C60.0779 18.109 60.2976 20.785 60.6289 23.1855C60.9896 25.7992 61.5504 28.4359 63.4163 30.4265C64.5215 31.607 65.9546 32.3711 67.5681 32.5286C68.0796 32.5777 68.5158 32.0563 68.5158 31.5808C68.5158 31.0266 68.0796 30.6823 67.5681 30.6331C65.2561 30.4101 63.7115 28.0981 63.1081 26.0386C62.4096 23.6611 62.4128 21.149 61.7832 18.7551C61.4028 17.3121 60.7764 15.984 59.8287 14.8296C59.504 14.4328 58.8252 14.4918 58.4874 14.8296C58.0972 15.2232 58.1627 15.7741 58.4874 16.1709Z" fill="var(--fill-0, black)"/>
<path id="Vector_26" d="M56.7623 2.29558C53.2271 -0.0787056 48.7409 -0.49519 44.6712 0.514866C40.9228 1.44294 37.5385 3.53847 34.7149 6.13248C32.3177 8.33296 30.3074 10.9335 28.7267 13.7735C27.2018 16.5118 25.9195 19.5092 25.3883 22.6148C24.8209 25.9269 25.1817 29.6327 27.9692 31.8889C28.366 32.2103 28.9202 32.2791 29.3104 31.8889C29.6449 31.5544 29.7105 30.8723 29.3104 30.5476C29.0514 30.3377 28.8054 30.1115 28.5791 29.8655C28.3168 29.5835 28.2676 29.5212 28.0315 29.1506C27.6511 28.5472 27.5133 28.2225 27.3297 27.5666C27.1264 26.8517 27.0805 26.4844 27.0477 25.7925C27.0149 25.1038 27.0477 24.4086 27.1296 23.7232C27.1559 23.4871 27.2083 23.1657 27.2739 22.8082C27.3494 22.4147 27.4346 22.0212 27.5363 21.6309C27.7199 20.9062 27.9397 20.1946 28.1889 19.4895C28.671 18.122 29.2121 16.9119 29.9007 15.5903C32.8292 9.96938 37.6073 4.83384 43.73 2.76126C47.7243 1.41014 52.2269 1.52164 55.808 3.92544C56.2343 4.21075 56.8574 4.00743 57.1067 3.58439C57.3788 3.11871 57.1919 2.57433 56.7656 2.28574L56.7623 2.29558Z" fill="var(--fill-0, black)"/>
<path id="Vector_27" d="M59.0296 5.35891C63.1026 5.95576 66.6903 8.45139 68.9006 11.898C70.114 13.7903 70.9174 15.8956 71.3733 18.0928C71.8324 20.3163 72.0062 22.766 71.511 24.996C70.9929 27.3243 69.7369 29.4002 68.048 31.0661C67.1789 31.9253 68.5202 33.2666 69.3892 32.4074C71.0814 30.7349 72.403 28.6787 73.1015 26.3963C73.8656 23.9138 73.7836 21.2279 73.3999 18.6864C72.6785 13.9214 70.3107 9.45488 66.4542 6.5067C64.4439 4.96866 62.0467 3.8963 59.5379 3.529C59.0329 3.45358 58.518 3.65362 58.3704 4.19144C58.2491 4.63744 58.5213 5.28348 59.0329 5.35891H59.0296Z" fill="var(--fill-0, black)"/>
<path id="Vector_28" d="M55.6263 35.2607C57.0102 35.2607 57.0135 33.1094 55.6263 33.1094C54.2391 33.1094 54.2391 35.2607 55.6263 35.2607Z" fill="var(--fill-0, black)"/>
<path id="Vector_29" d="M43.9896 35.2763C45.3735 35.2763 45.3768 33.125 43.9896 33.125C42.6024 33.125 42.6024 35.2763 43.9896 35.2763Z" fill="var(--fill-0, black)"/>
<path id="Vector_30" d="M48.2068 40.9694C49.1643 41.95 50.8762 41.95 51.8403 40.9793C52.0797 40.7399 52.0994 40.3037 51.8403 40.0643C51.5845 39.8282 51.1812 39.8085 50.9254 40.0643C50.8827 40.107 50.8303 40.143 50.7909 40.189C50.804 40.1726 50.909 40.107 50.8368 40.1529C50.8106 40.1693 50.7876 40.189 50.7614 40.2021C50.7122 40.2349 50.6597 40.2644 50.604 40.2906C50.581 40.3037 50.5417 40.3136 50.522 40.33C50.5384 40.3168 50.6597 40.2775 50.5745 40.307C50.4597 40.3464 50.3449 40.3824 50.2236 40.4054C50.2006 40.4087 50.1744 40.412 50.1514 40.4185C50.3351 40.3824 50.2433 40.4054 50.1974 40.4087C50.1383 40.4152 50.076 40.4152 50.0137 40.4152C49.958 40.4152 49.9055 40.4152 49.8497 40.4087C49.8235 40.4087 49.712 40.3923 49.8268 40.4087C49.9448 40.4251 49.8235 40.4087 49.8038 40.4021C49.689 40.3792 49.5841 40.3365 49.4726 40.307C49.4037 40.2873 49.6235 40.3792 49.5087 40.3234C49.4857 40.3136 49.466 40.3037 49.4431 40.2906C49.3906 40.2644 49.3381 40.2349 49.2857 40.2021C49.2594 40.1857 49.2365 40.166 49.2103 40.1529C49.1479 40.1168 49.3349 40.2578 49.2398 40.1758C49.1939 40.1365 49.1479 40.0938 49.1053 40.0512C48.8692 39.8085 48.4265 39.7954 48.1904 40.0512C47.951 40.3103 47.9378 40.7071 48.1904 40.9662L48.2068 40.9694Z" fill="var(--fill-0, black)"/>
<path id="Vector_31" d="M45.7241 46.2599C48.282 47.9127 51.6008 47.9717 54.2309 46.4468C54.949 46.0303 54.2997 44.912 53.5783 45.3318C51.3286 46.637 48.5575 46.555 46.3767 45.1449C45.6749 44.6923 45.0289 45.8106 45.7241 46.2599Z" fill="var(--fill-0, black)"/>
</g>
</g>
<defs>
<clipPath id="clip0_300_1590">
<rect width="102" height="110" rx="51" fill="white"/>
</clipPath>
</defs>
</svg>
