<svg preserveAspectRatio="none" width="100%" height="100%" overflow="visible" style="display: block;" viewBox="0 0 89.3521 110" fill="none" xmlns="http://www.w3.org/2000/svg">
<g id="_&#227;&#131;&#172;&#227;&#130;&#164;&#227;&#131;&#164;&#227;&#131;&#188;_1">
<g clip-path="url(#clip0_300_1523)">
<path id="Vector" d="M74.0319 28.4416C72.9243 25.6032 70.323 22.1754 71.3696 19.0559C71.207 18.0499 71.058 17.1049 70.5906 16.1463C69.4254 13.7483 67.2983 11.8075 64.9138 10.3544C64.277 8.94534 63.4505 7.7734 62.0212 6.93678C61.276 6.49984 60.3547 6.18823 59.4063 6.05274C55.4163 2.85192 50.5829 0.87384 45.3667 1.52078C45.0246 1.56142 44.6791 1.61223 44.3269 1.66981C42.5994 1.76804 40.8652 2.24901 39.2801 2.98401C37.8101 3.53273 36.3976 4.23047 35.1546 5.10096C34.572 5.11112 34.0063 5.20596 33.4779 5.40242C33.1189 5.53451 32.77 5.68016 32.4279 5.83258C30.8529 8.50163 28.0755 9.8768 25.6943 11.777C25.5995 11.9362 25.5081 12.0987 25.42 12.2647C24.9018 13.2368 24.4919 14.2326 24.1363 15.2454C24.0109 15.3605 23.889 15.4791 23.7705 15.6044C22.8864 16.546 22.2598 17.7789 22.0261 19.0627C22.06 19.1033 22.0938 19.1406 22.1277 19.1846C24.4919 22.3956 20.7729 26.0469 18.6932 28.8684C18.3375 30.8193 18.4832 32.8381 19.2453 34.6366C19.252 37.9492 20.1124 41.1738 21.623 44.0934C21.01 44.5981 20.485 45.2485 20.0954 46.0343C19.8516 46.5254 19.645 47.0843 19.4858 47.6804C18.6999 48.5441 18.1749 49.6619 17.9887 51.0032C17.572 54.038 19.2724 56.5445 21.7145 58.1805C25.5013 60.7174 30.5108 61.4321 35.1376 61.1002C35.2392 62.3805 35.3747 63.6608 35.5576 64.9344C34.6702 65.5136 33.9826 66.4247 33.5626 67.5323C33.3526 68.0844 33.1528 68.6433 32.9631 69.2055C32.2721 70.0625 31.5337 70.9397 30.7547 71.8238C29.2 73.5885 27.5708 75.282 25.8806 76.918C24.2582 78.4862 24.1837 81.1146 25.5284 82.8522C26.6529 84.3053 28.3295 84.8066 29.9892 84.478C29.9452 85.23 29.9147 85.9785 29.8978 86.7305C29.8503 88.9829 31.6557 90.8797 33.8166 91.171C35.0157 91.3336 36.4417 90.9305 37.4612 90.1074C37.9184 89.9923 38.3655 89.8161 38.7754 89.5824C38.7889 89.8229 38.8059 90.0634 38.8194 90.3039C38.9447 92.6613 40.8077 94.9374 43.3412 94.8257C43.4123 94.8257 43.4801 94.8121 43.5478 94.8087C44.3269 96.7529 46.8638 97.952 48.8419 97.366C51.2298 99.2865 55.1792 98.4804 56.1005 95.1644C56.8152 92.5902 57.5299 90.016 58.2445 87.4418C59.6705 86.4832 60.4258 84.7897 60.1887 83.0487C60.795 82.9945 61.3979 82.8014 61.9636 82.439C63.901 81.1891 65.012 78.3406 63.586 76.2541C62.9967 75.3938 62.4175 74.5267 61.845 73.6562C61.7604 72.0778 60.7984 70.7026 59.4842 69.9473C58.2784 68.0031 57.1098 66.0352 55.9819 64.0469L55.2537 57.7334C55.6263 57.3337 55.9582 56.89 56.2394 56.4124C56.8118 55.4369 57.1403 54.3971 57.3198 53.3301C59.5147 51.1014 61.4894 48.7135 62.7596 45.9089C63.3117 45.6041 63.8468 45.2688 64.3684 44.8928C65.0357 44.4084 65.6792 43.8801 66.2754 43.311C66.6717 42.9926 67.0172 42.6268 67.3152 42.2238C67.8606 41.5938 68.3381 40.9197 68.7277 40.205C71.2341 39.7715 73.3003 38.6063 73.4696 35.7882C73.4899 35.4428 73.5001 35.0905 73.5069 34.7416C73.7609 34.4469 74.0048 34.1387 74.2385 33.8203C74.2283 32.0218 74.1911 30.23 74.0319 28.4484V28.4416Z" fill="var(--fill-0, white)"/>
<path id="Vector_2" d="M91.6534 105.695C91.4028 99.1005 90.0479 92.8581 87.3721 86.8798C86.7252 85.4335 85.5702 84.397 84.2289 83.8077C83.2161 82.1311 82.051 80.5628 80.7503 79.1199C76.0354 76.0749 71.2156 73.2026 67.0663 69.3887C66.3991 69.1245 65.7183 68.8976 65.0408 68.7147C63.9468 68.4166 62.6936 68.2337 61.5589 68.3082C61.5928 68.3082 61.2236 68.3489 61.2507 68.3523C61.5013 68.3828 61.1728 68.4336 61.1626 68.3828C61.0644 68.4674 60.8781 68.6232 60.9323 68.5623C60.2447 69.3549 59.7129 70.2762 59.0423 71.0857C58.0973 72.2237 57.0676 73.2873 56.0108 74.3238C54.1614 76.1359 52.1834 77.8531 50.6219 79.9294C50.0562 80.6814 49.3111 81.0133 48.5693 81.0472C47.963 81.8059 47.3533 82.5646 46.7301 83.3098C45.0873 81.5078 43.343 79.7872 41.4496 78.307C41.348 78.1885 41.243 78.0733 41.138 77.9581C37.4562 74.7201 34.4552 70.6894 30.2552 68.0745C29.7437 67.7561 29.4118 67.3565 29.2187 66.9297C28.8969 67.5868 28.2906 68.1152 27.3456 68.2879C25.1135 68.6978 23.0846 69.9612 21.137 71.3431C21.0524 71.6276 20.9846 71.9155 20.9338 72.2068C20.8762 72.2712 20.8187 72.3321 20.7611 72.3965C17.3841 73.8394 14.3662 76.8167 11.9783 79.5535C11.5684 80.0243 11.1721 80.5019 10.7894 80.9862C9.67165 81.4943 8.69278 82.3174 8.02213 83.469C5.18711 88.3396 4.10662 93.8505 4.72646 99.2733C4.14049 99.5646 3.59517 99.9371 3.10742 100.377C3.75097 103.619 4.81453 106.806 5.67486 110.007H89.9565C91.0302 108.886 91.7178 107.409 91.6534 105.702V105.695Z" fill="var(--fill-0, #FFA044)"/>
<path id="Vector_3" d="M52.5375 36.9436C53.9668 36.9436 53.9702 34.7217 52.5375 34.7217C51.1047 34.7217 51.1047 36.9436 52.5375 36.9436Z" fill="var(--fill-0, black)"/>
<path id="Vector_4" d="M40.5199 36.9641C41.9492 36.9641 41.9526 34.7422 40.5199 34.7422C39.0871 34.7422 39.0871 36.9641 40.5199 36.9641Z" fill="var(--fill-0, black)"/>
<path id="Vector_5" d="M44.8755 42.8436C45.8645 43.8564 47.6326 43.8564 48.6284 42.8538C48.8757 42.6065 48.896 42.1561 48.6284 41.9088C48.3642 41.6649 47.9476 41.6446 47.6834 41.9088C47.6393 41.9528 47.5852 41.9901 47.5445 42.0375C47.5581 42.0206 47.6664 41.9528 47.5919 42.0002C47.5648 42.0172 47.5411 42.0375 47.514 42.0511C47.4632 42.0849 47.409 42.1154 47.3514 42.1425C47.3277 42.1561 47.2871 42.1662 47.2668 42.1832C47.2837 42.1696 47.409 42.129 47.321 42.1594C47.2024 42.2001 47.0839 42.2373 46.9585 42.2611C46.9348 42.2644 46.9077 42.2678 46.884 42.2746C47.0737 42.2373 46.9789 42.2611 46.9314 42.2644C46.8705 42.2712 46.8061 42.2712 46.7418 42.2712C46.6842 42.2712 46.63 42.2712 46.5724 42.2644C46.5453 42.2644 46.4302 42.2475 46.5487 42.2644C46.6706 42.2814 46.5453 42.2644 46.525 42.2577C46.4064 42.234 46.2981 42.1899 46.1829 42.1594C46.1118 42.1391 46.3387 42.234 46.2201 42.1764C46.1964 42.1662 46.1761 42.1561 46.1524 42.1425C46.0982 42.1154 46.044 42.0849 45.9898 42.0511C45.9627 42.0341 45.939 42.0138 45.9119 42.0002C45.8476 41.963 46.0406 42.1086 45.9424 42.024C45.895 41.9833 45.8476 41.9393 45.8035 41.8952C45.5597 41.6446 45.1024 41.6311 44.8585 41.8952C44.6113 42.1628 44.5977 42.5727 44.8585 42.8403L44.8755 42.8436Z" fill="var(--fill-0, black)"/>
<path id="Vector_6" d="M34.2818 55.0072C34.9694 57.3714 35.4368 59.7865 35.2438 62.2557C35.0575 64.6097 34.0854 66.8554 32.4325 68.6065C31.5484 69.5447 32.9608 70.9606 33.8483 70.0223C35.8128 67.9359 36.9441 65.3515 37.2218 62.5097C37.486 59.8102 36.9644 57.0632 36.2125 54.4789C35.8534 53.2459 33.9228 53.7709 34.2818 55.0106V55.0072Z" fill="var(--fill-0, black)"/>
<path id="Vector_7" d="M56.0152 54.387C54.7552 59.5016 53.6544 65.5916 57.7325 69.7781C58.6334 70.7028 60.0459 69.287 59.1483 68.3623C55.646 64.7652 56.8586 59.3288 57.9458 54.9188C58.2541 53.669 56.3234 53.1338 56.0152 54.387Z" fill="var(--fill-0, black)"/>
<path id="Vector_8" d="M42.3101 48.3078C44.952 50.0149 48.3798 50.0758 51.0962 48.5008C51.838 48.0707 51.1674 46.9157 50.4222 47.3492C48.0986 48.6973 45.2365 48.6126 42.9841 47.1561C42.2593 46.6887 41.592 47.8437 42.3101 48.3078Z" fill="var(--fill-0, black)"/>
<path id="Vector_9" d="M5.30163 108.69C5.19663 103.419 4.55308 98.0406 5.45405 92.8075C5.89776 90.2367 6.72422 87.7505 8.11971 85.5354C9.61682 83.161 11.6389 81.0576 13.6746 79.1405C15.778 77.1556 18.0541 75.3571 20.459 73.755C22.9045 72.1258 25.4956 70.5779 28.2629 69.5583C28.9268 69.3145 29.6211 68.9791 30.3256 68.8809C30.5289 68.8538 30.7389 68.8606 30.9421 68.8369C31.1589 68.8132 30.9048 68.8233 30.7897 68.7759C30.6644 68.7251 30.5966 68.6167 30.4916 68.5524C30.3866 68.4846 30.4408 68.4643 30.4679 68.5388C30.6542 69.0401 31.0776 69.4974 31.3926 69.9174C31.8769 70.5677 32.3782 71.2079 32.8965 71.8379C34.7628 74.114 36.8662 76.1632 38.8171 78.3615C39.7147 79.3742 40.6123 80.3937 41.6115 81.3082C42.5227 82.1415 43.5422 82.9578 44.7209 83.3744C46.5838 84.0281 48.5788 83.2626 50.1064 82.1753C51.8474 80.9424 53.2835 79.3403 54.6214 77.6908C55.2345 76.9321 55.8306 76.1531 56.4268 75.3808C56.4606 75.3368 56.4979 75.2893 56.5318 75.2453C56.5081 75.2724 56.4132 75.3977 56.5284 75.2487C56.5792 75.1843 56.6266 75.1234 56.6774 75.059C56.7994 74.9032 56.9213 74.7474 57.0466 74.595C57.4497 74.1005 57.8561 73.6059 58.266 73.1182C59.211 71.9971 60.1966 70.9098 61.3279 69.9716C61.5549 69.7819 61.3144 69.9648 61.477 69.8598C61.5379 69.8225 61.5955 69.7819 61.6599 69.748C61.6903 69.7311 61.9139 69.6261 61.7581 69.6938C61.6057 69.7582 61.8529 69.6633 61.897 69.6498C61.9681 69.6295 62.0358 69.6091 62.107 69.5956C62.1408 69.5888 62.3949 69.5482 62.2255 69.5719C62.0528 69.5956 62.3102 69.5685 62.3508 69.5651C62.4389 69.5617 62.5304 69.5583 62.6218 69.5583C62.7878 69.5583 62.9504 69.5753 63.1129 69.5922C62.9029 69.5719 63.0757 69.5888 63.1773 69.6058C63.2789 69.6227 63.3771 69.643 63.4787 69.6667C63.8683 69.7548 64.2476 69.8733 64.6202 70.0088C64.715 70.0427 64.8099 70.08 64.9081 70.1172C64.9589 70.1375 65.2096 70.2391 65.0436 70.168C65.257 70.2595 65.467 70.3543 65.677 70.4559C66.1004 70.6591 66.517 70.8759 66.9302 71.1062C68.6543 72.0682 70.2801 73.1961 71.8788 74.3545C73.1185 75.2521 74.3243 76.2106 75.6114 77.0371C79.6387 79.6215 83.5948 82.4192 86.3384 86.416C87.744 88.4584 88.7737 90.7143 89.3529 93.1259C90.0879 96.1912 90.3183 99.3514 90.3555 102.498C90.3758 104.083 90.3454 105.672 90.2979 107.257C90.2607 108.544 92.2591 108.544 92.2997 107.257C92.3979 103.978 92.425 100.689 92.0829 97.4241C91.7679 94.4333 91.1887 91.4899 89.9491 88.7362C87.8219 84.0078 83.981 80.3361 79.8046 77.3927C78.2601 76.3055 76.6275 75.3571 75.1033 74.2461C73.5859 73.1419 72.0854 72.014 70.5239 70.9742C68.8609 69.8632 67.1267 68.8166 65.2468 68.1154C63.7971 67.5735 62.0223 67.2348 60.6099 68.0578C59.4616 68.7251 58.4861 69.8564 57.6156 70.8387C56.8095 71.7498 56.0271 72.688 55.2785 73.6466C54.9805 74.0293 54.6858 74.4121 54.3877 74.7982C54.3539 74.8422 54.2014 75.0387 54.2353 74.9947C54.2692 74.9506 54.1066 75.1606 54.0761 75.1979C53.9237 75.3977 53.7679 75.5942 53.6121 75.7906C52.955 76.6205 52.2775 77.4334 51.5595 78.209C51.1869 78.6087 50.8042 78.9982 50.4045 79.3708C50.2216 79.5402 50.0353 79.7061 49.8456 79.8687C49.7508 79.95 49.6593 80.0279 49.5645 80.1058C49.5103 80.1499 49.4561 80.1939 49.4019 80.2345C49.2664 80.3395 49.4967 80.1634 49.3579 80.265C48.9616 80.5597 48.5483 80.834 48.1148 81.0678C48.0166 81.1186 47.9217 81.1694 47.8201 81.2168C47.7659 81.2439 47.7083 81.2676 47.6508 81.2947C47.6677 81.2879 47.7862 81.2405 47.6778 81.2845C47.4712 81.3692 47.2612 81.4403 47.0445 81.4979C46.9327 81.5284 46.8209 81.5521 46.7057 81.5758C46.6651 81.586 46.6211 81.5894 46.5804 81.5961C46.428 81.6232 46.7464 81.5826 46.594 81.5961C46.3806 81.6097 46.174 81.6165 45.9606 81.6063C45.903 81.6063 45.8488 81.5961 45.7912 81.5928C45.8048 81.5928 45.964 81.6199 45.8488 81.5995C45.7506 81.5792 45.6523 81.5623 45.5575 81.5352C45.4593 81.5081 45.3644 81.4776 45.2662 81.4471C45.2391 81.4403 45.0664 81.3692 45.1782 81.4166C45.2899 81.4641 45.0461 81.3523 45.0494 81.3523C43.9351 80.7934 43.007 79.906 42.1433 79.0219C41.1949 78.0498 40.3176 77.01 39.3997 76.004C38.3971 74.9032 37.3336 73.8532 36.3344 72.749C35.2878 71.5974 34.2716 70.4119 33.33 69.1722C32.9473 68.6675 32.5544 68.1628 32.2495 67.604C31.9989 67.1467 31.6263 66.869 31.0979 66.8419C29.7532 66.7707 28.4323 67.3533 27.2095 67.8377C25.6955 68.4372 24.2424 69.162 22.8266 69.9614C20.2016 71.445 17.7086 73.1555 15.358 75.0421C13.048 76.8982 10.8836 78.9508 8.94956 81.1965C7.99439 82.3074 7.05954 83.4557 6.29406 84.7055C5.56583 85.891 4.97986 87.1646 4.51582 88.4754C2.68 93.6543 2.95097 99.2938 3.17791 104.693C3.23549 106.024 3.28968 107.359 3.31678 108.69C3.34388 109.977 5.34228 109.98 5.31857 108.69H5.30163Z" fill="var(--fill-0, black)"/>
<path id="Vector_10" d="M44.3963 95.1615C42.2354 93.2308 44.0813 89.7793 46.8994 91.0224C50.7438 92.7193 47.001 97.4884 44.3963 95.1615Z" fill="var(--fill-0, white)"/>
<path id="Vector_11" d="M45.1052 94.4537C44.9901 94.3487 44.8851 94.237 44.7835 94.1184C44.6785 93.9965 44.9291 94.325 44.7902 94.1252C44.7462 94.0608 44.7022 93.9931 44.6615 93.9253C44.631 93.8712 44.6006 93.817 44.5735 93.7594C44.4685 93.5426 44.6378 93.9389 44.5836 93.7899C44.5362 93.6578 44.4956 93.5257 44.4651 93.3868C44.4583 93.3597 44.4549 93.3292 44.4481 93.3021C44.4244 93.187 44.4752 93.5595 44.4651 93.441C44.4617 93.3766 44.4515 93.3123 44.4515 93.2513C44.4481 93.1226 44.4583 93.0007 44.4651 92.872C44.4515 93.2107 44.4414 93.0312 44.4617 92.9329C44.4718 92.872 44.4888 92.811 44.5023 92.7534C44.5193 92.6924 44.5362 92.6349 44.5565 92.5773C44.5667 92.5502 44.5768 92.5265 44.5836 92.4994C44.631 92.3571 44.4854 92.7094 44.5396 92.6078C44.5938 92.5062 44.6412 92.4045 44.7056 92.3063C44.736 92.2623 44.7699 92.2182 44.797 92.1742C44.631 92.4553 44.7225 92.269 44.797 92.1911C44.8749 92.1065 44.9596 92.032 45.0477 91.9574C45.1357 91.8795 44.8207 92.1166 44.9562 92.0286C44.9799 92.015 45.0002 91.9981 45.0239 91.9845C45.0815 91.9473 45.1391 91.9134 45.2001 91.8829C45.2848 91.8389 45.4609 91.7847 45.1459 91.8965C45.1967 91.8795 45.2509 91.8558 45.3017 91.8389C45.3627 91.8186 45.4236 91.8016 45.4846 91.7881C45.5117 91.7813 45.5422 91.7779 45.5693 91.7711C45.7691 91.7271 45.3627 91.7881 45.4744 91.7813C45.6031 91.7711 45.7285 91.7644 45.8572 91.7711C45.952 91.7745 46.1485 91.8253 45.8267 91.7576C45.908 91.7745 45.9893 91.7847 46.0706 91.805C46.2196 91.8389 46.3551 91.8965 46.5007 91.9405C46.6193 91.9778 46.3043 91.8524 46.4161 91.9066C46.4499 91.9236 46.4838 91.9371 46.5177 91.9541C46.599 91.9913 46.6769 92.032 46.7548 92.076C46.8767 92.1437 46.9885 92.2284 47.107 92.3029C46.8462 92.1403 47.0122 92.2284 47.0833 92.2894C47.1375 92.3368 47.1917 92.3876 47.2425 92.4384C47.2865 92.4824 47.3238 92.5332 47.3678 92.5773C47.4457 92.6586 47.2256 92.3774 47.2865 92.4689C47.3001 92.4926 47.317 92.5129 47.334 92.5332C47.3475 92.5536 47.527 92.8381 47.5135 92.8482C47.5033 92.855 47.4153 92.5841 47.4559 92.7128C47.4627 92.7365 47.4728 92.7602 47.4796 92.7805C47.4965 92.8245 47.5101 92.872 47.5203 92.9194C47.5338 92.9702 47.544 93.0244 47.5541 93.0752C47.5914 93.2513 47.5304 92.7839 47.544 93.0041C47.5507 93.1091 47.5541 93.2141 47.544 93.3224C47.5372 93.4308 47.4796 93.5562 47.5609 93.231C47.5473 93.2886 47.5406 93.3462 47.527 93.4037C47.5033 93.502 47.4762 93.6002 47.439 93.695C47.4322 93.7187 47.422 93.7391 47.4119 93.7628C47.3746 93.8678 47.5203 93.5223 47.4694 93.6239C47.4423 93.6781 47.4186 93.7323 47.3915 93.7865C47.3441 93.8779 47.2899 93.966 47.2323 94.0507C47.2053 94.0913 47.1748 94.1286 47.1477 94.1692C47.3407 93.8779 47.2323 94.0608 47.1646 94.1387C47.0969 94.2166 47.0223 94.2912 46.9478 94.3623C46.9072 94.3995 46.8665 94.4368 46.8225 94.4707C46.6565 94.6163 47.0325 94.325 46.8496 94.447C46.7548 94.5113 46.6565 94.5757 46.5549 94.6299C46.5007 94.657 46.4465 94.6841 46.3923 94.7112C46.2941 94.762 46.6362 94.6163 46.5312 94.6536C46.4973 94.6671 46.4635 94.6807 46.4296 94.6908C46.3212 94.7281 46.2094 94.7586 46.0977 94.7823C46.0672 94.7891 46.0367 94.7925 46.0096 94.7992C45.8944 94.8229 46.2975 94.7721 46.1485 94.7789C46.0875 94.7789 46.0265 94.7891 45.9656 94.7891C45.9046 94.7891 45.8436 94.7891 45.7827 94.7823C45.5591 94.7721 46.0502 94.8365 45.8267 94.7891C45.7014 94.762 45.5794 94.7247 45.4575 94.6874C45.383 94.6637 45.3423 94.596 45.5862 94.745C45.5523 94.7247 45.5117 94.7112 45.4744 94.6942C45.4135 94.6637 45.3525 94.6299 45.2915 94.5926C45.2373 94.5587 45.1831 94.5215 45.1289 94.4842C45.0273 94.4165 45.339 94.6604 45.2069 94.5452C45.173 94.5147 45.1357 94.4842 45.1019 94.4537C44.7089 94.1083 44.0688 94.0371 43.686 94.4537C43.3372 94.8331 43.266 95.5004 43.686 95.8696C44.2788 96.3912 44.9528 96.713 45.7454 96.7807C46.3788 96.8349 47.0291 96.652 47.5812 96.3505C48.6956 95.7442 49.4712 94.552 49.5424 93.2818C49.5762 92.6552 49.3832 91.9811 49.0207 91.4697C48.5228 90.7652 47.8251 90.3147 47.0325 90.0031C46.3314 89.7253 45.4914 89.6678 44.7665 89.9015C44.0281 90.1386 43.4252 90.6161 42.9985 91.2597C42.023 92.7263 42.4193 94.7179 43.686 95.8696C44.0722 96.2218 44.7225 96.2794 45.1019 95.8696C45.4541 95.4868 45.5151 94.8297 45.1019 94.4537H45.1052Z" fill="var(--fill-0, black)"/>
<path id="Vector_12" d="M44.3488 107.25C42.2386 105.32 44.0406 101.868 46.7943 103.111C50.5506 104.808 46.8925 109.577 44.3488 107.25Z" fill="var(--fill-0, white)"/>
<path id="Vector_13" d="M45.0498 106.552C44.9414 106.45 44.8466 106.342 44.745 106.234C44.6637 106.146 44.8703 106.417 44.8093 106.315C44.789 106.281 44.7619 106.247 44.7382 106.213C44.6976 106.152 44.6603 106.091 44.6264 106.03C44.5926 105.969 44.5621 105.905 44.5282 105.844C44.4571 105.702 44.6231 106.091 44.5384 105.868C44.491 105.743 44.4571 105.614 44.43 105.482C44.4232 105.455 44.4198 105.424 44.413 105.397C44.386 105.255 44.4334 105.529 44.43 105.529C44.4401 105.522 44.4164 105.373 44.4164 105.356C44.4097 105.221 44.4232 105.089 44.43 104.953C44.4368 104.835 44.3893 105.207 44.413 105.092C44.4198 105.065 44.4232 105.038 44.4266 105.011C44.4401 104.95 44.4537 104.889 44.4672 104.828C44.4808 104.774 44.4977 104.723 44.5147 104.669C44.5248 104.642 44.535 104.618 44.5418 104.591C44.5892 104.432 44.43 104.825 44.5045 104.676C44.5553 104.577 44.5993 104.483 44.6603 104.388C44.6874 104.34 44.7213 104.3 44.7518 104.252C44.8432 104.117 44.6027 104.425 44.684 104.34C44.7077 104.317 44.7281 104.289 44.7484 104.262C44.8263 104.178 44.911 104.103 44.9956 104.025C45.0769 103.951 44.7958 104.168 44.8906 104.107C44.9177 104.09 44.9448 104.066 44.9719 104.049C45.0227 104.015 45.0735 103.985 45.1277 103.954C45.2226 103.903 45.3953 103.866 45.0939 103.958C45.1447 103.941 45.1955 103.917 45.2497 103.9C45.3039 103.883 45.3581 103.869 45.4123 103.856C45.5173 103.832 45.7442 103.839 45.4021 103.849C45.5206 103.846 45.6392 103.832 45.7611 103.839C45.7984 103.839 45.839 103.846 45.8763 103.849C45.9982 103.849 45.6358 103.808 45.7544 103.832C45.8356 103.849 45.9169 103.863 45.9948 103.88C46.0626 103.897 46.1269 103.917 46.1947 103.937C46.276 103.964 46.5029 104.09 46.2387 103.944C46.381 104.022 46.53 104.079 46.6689 104.164C46.7264 104.198 46.7806 104.232 46.8382 104.269C46.8653 104.286 46.889 104.306 46.9161 104.323C47.0415 104.405 46.8314 104.256 46.8281 104.252C46.9229 104.344 47.0279 104.422 47.1194 104.52C47.1532 104.554 47.2989 104.737 47.1769 104.577C47.055 104.418 47.1837 104.588 47.204 104.625C47.2345 104.672 47.265 104.723 47.2955 104.774C47.3192 104.818 47.4073 105.014 47.3294 104.825C47.2481 104.632 47.3294 104.831 47.3463 104.879C47.3598 104.926 47.3734 104.97 47.3869 105.018C47.3971 105.065 47.4039 105.113 47.4174 105.16C47.4513 105.299 47.3836 104.987 47.3971 105.004C47.4073 105.018 47.4073 105.096 47.4073 105.113C47.414 105.207 47.414 105.302 47.4073 105.397C47.4073 105.428 47.4005 105.455 47.4005 105.485C47.3937 105.597 47.4445 105.218 47.4208 105.329C47.4106 105.387 47.4005 105.448 47.3869 105.505C47.3632 105.604 47.3361 105.702 47.3023 105.8C47.2684 105.895 47.1803 106.014 47.3361 105.732C47.3056 105.787 47.2853 105.844 47.2582 105.895C47.2142 105.983 47.1634 106.064 47.1092 106.146C47.0821 106.186 47.0516 106.227 47.0245 106.268C46.9365 106.396 47.1769 106.081 47.1024 106.169C47.0821 106.193 47.0652 106.217 47.0448 106.24C46.9771 106.318 46.906 106.396 46.8315 106.467C46.7908 106.505 46.7502 106.542 46.7095 106.576C46.5469 106.718 46.8958 106.444 46.7502 106.545C46.6553 106.61 46.5605 106.674 46.4589 106.732C46.4047 106.762 46.3505 106.786 46.2963 106.813C46.1845 106.87 46.4318 106.755 46.4352 106.755C46.425 106.749 46.3539 106.789 46.3335 106.793C46.2218 106.833 46.1066 106.86 45.9881 106.887C45.7747 106.935 46.259 106.867 46.0389 106.881C45.9847 106.881 45.9305 106.887 45.8763 106.887C45.8153 106.887 45.7543 106.887 45.6968 106.881C45.4529 106.86 45.8966 106.921 45.7577 106.891C45.6324 106.864 45.5139 106.826 45.3919 106.789C45.2531 106.749 45.5308 106.847 45.5206 106.843C45.4902 106.84 45.4393 106.806 45.4123 106.793C45.3513 106.762 45.2903 106.728 45.2327 106.691C45.1785 106.657 45.1277 106.62 45.0735 106.583C44.9719 106.515 45.2802 106.755 45.1514 106.64C45.1176 106.61 45.0803 106.579 45.0464 106.549C44.6637 106.203 44.0235 106.142 43.6476 106.549C43.3021 106.928 43.2377 107.578 43.6476 107.948C44.2301 108.473 44.8974 108.788 45.6798 108.859C46.2895 108.913 46.9263 108.73 47.4581 108.435C48.5623 107.829 49.3074 106.647 49.3887 105.394C49.4294 104.77 49.2465 104.086 48.8874 103.575C48.4031 102.884 47.7324 102.423 46.9568 102.112C46.2556 101.83 45.4156 101.759 44.6942 102.007C43.9761 102.25 43.3935 102.718 42.9803 103.351C42.0285 104.814 42.4045 106.789 43.6509 107.948C44.0303 108.3 44.6806 108.351 45.0498 107.948C45.4021 107.565 45.4529 106.925 45.0498 106.549V106.552Z" fill="var(--fill-0, black)"/>
<path id="Vector_14" d="M45.6802 59.9254C45.4871 59.9254 45.2907 59.922 45.0942 59.9152C37.541 59.6138 31.0953 53.6558 28.5414 44.68C25.808 44.0703 23.857 40.9575 24.006 37.2452C24.1415 33.831 26.0383 30.9723 28.6159 30.3017C29.1104 30.1729 29.6185 30.4676 29.7472 30.9655C29.8759 31.46 29.5812 31.9681 29.0833 32.0968C27.3153 32.5575 25.9604 34.7557 25.8554 37.3231C25.7369 40.2733 27.2983 42.79 29.3374 42.9322C29.7337 42.9593 30.069 43.237 30.1706 43.6232C32.3959 52.1248 38.2827 57.7949 45.1654 58.0692C45.3347 58.076 45.5075 58.0794 45.6734 58.0794C52.5425 58.0794 58.8662 52.5279 61.5217 44.094C61.5963 43.8569 61.7622 43.6604 61.9858 43.5453C62.2093 43.4335 62.4667 43.4132 62.7005 43.4945C62.9376 43.5758 63.1848 43.6198 63.4321 43.63C65.5219 43.7079 67.3069 41.3301 67.4289 38.319C67.4898 36.8083 67.1206 35.3823 66.389 34.3018C65.7184 33.3094 64.8242 32.7438 63.869 32.7031C63.3576 32.6828 62.9613 32.2526 62.9816 31.7412C63.0019 31.2297 63.4253 30.8267 63.9435 30.8538C65.5016 30.9147 66.914 31.7717 67.9234 33.2654C68.8718 34.671 69.3561 36.4899 69.2782 38.3935C69.1157 42.4275 66.4635 45.608 63.3576 45.4827C63.2458 45.4793 63.134 45.4692 63.0222 45.4556C59.9738 54.2181 53.1319 59.9322 45.6734 59.9322L45.6802 59.9254Z" fill="var(--fill-0, black)"/>
<path id="Vector_15" d="M64.4064 41.4785C63.1125 41.4785 62.0625 42.5251 62.0625 43.819C62.0625 45.1129 63.1091 46.1629 64.403 46.1629C65.6969 46.1629 66.7469 45.1163 66.7469 43.8224C66.7469 42.5285 65.7003 41.4785 64.4064 41.4785Z" fill="var(--fill-0, #EDD41E)"/>
<path id="Vector_16" d="M64.408 47.0137C63.5545 47.0137 62.7551 46.6817 62.1522 46.0788C61.5493 45.4759 61.2173 44.6732 61.2207 43.823C61.2207 42.0651 62.6535 40.6357 64.4114 40.6357C66.1693 40.6357 67.5987 42.0685 67.5987 43.8264C67.5987 45.5843 66.1659 47.0137 64.408 47.0137ZM64.408 42.3259C63.5816 42.3259 62.9109 42.9966 62.9109 43.823C62.9109 44.2227 63.0667 44.5987 63.3478 44.8798C63.629 45.1609 64.0049 45.3167 64.4046 45.3167C65.2311 45.3167 65.9017 44.6461 65.9017 43.8196C65.9017 42.9932 65.2311 42.3225 64.4046 42.3225L64.408 42.3259Z" fill="var(--fill-0, black)"/>
<path id="Vector_17" d="M29.1173 42.3193C27.8234 42.3193 26.7734 43.366 26.7734 44.6598C26.7734 45.9537 27.8201 47.0037 29.1139 47.0037C30.4078 47.0037 31.4578 45.9571 31.4578 44.6632C31.4578 43.3693 30.4112 42.3193 29.1173 42.3193Z" fill="var(--fill-0, #EDD41E)"/>
<path id="Vector_18" d="M29.115 47.8496C28.2615 47.8496 27.4621 47.5177 26.8592 46.9148C26.2563 46.3119 25.9244 45.5091 25.9278 44.659C25.9278 42.901 27.3605 41.4717 29.1184 41.4717C30.8763 41.4717 32.3057 42.9044 32.3057 44.6623C32.3057 46.4203 30.8729 47.8496 29.115 47.8496ZM29.115 43.1652C28.2886 43.1652 27.6179 43.8359 27.6179 44.6623C27.6179 45.062 27.7737 45.438 28.0549 45.7191C28.336 46.0003 28.712 46.1561 29.1116 46.1561C29.9381 46.1561 30.6088 45.4854 30.6088 44.659C30.6088 43.8325 29.9381 43.1619 29.1116 43.1619L29.115 43.1652Z" fill="var(--fill-0, black)"/>
<path id="Vector_19" d="M35.9844 22.3151C36.5568 26.4778 41.2039 28.6253 44.9975 28.605C46.2846 28.5982 46.288 26.5964 44.9975 26.6032C43.4089 26.6099 41.817 26.2137 40.4384 25.3838C39.07 24.5641 38.1453 23.4294 37.915 21.7799C37.8405 21.2448 37.1563 20.9501 36.6855 21.0822C36.1097 21.2414 35.9132 21.7765 35.9878 22.3117L35.9844 22.3151Z" fill="var(--fill-0, black)"/>
<path id="Vector_20" d="M52.0447 25.6232C51.4147 25.5081 50.7847 25.376 50.1716 25.1829C50.0192 25.1355 49.8668 25.0847 49.7178 25.0271C49.6974 25.0203 49.4671 24.9289 49.5721 24.9729C49.6703 25.0136 49.4231 24.9052 49.4299 24.9086C49.1453 24.7765 48.8676 24.624 48.6068 24.4479C48.5594 24.4174 48.512 24.3835 48.4679 24.3497C48.241 24.1905 48.6102 24.4784 48.4002 24.2955C48.2918 24.2006 48.1834 24.1058 48.0818 24.0042C47.9802 23.9026 47.8853 23.7976 47.7905 23.6858C47.7363 23.6079 47.7295 23.6147 47.7905 23.6858C47.7498 23.6282 47.7092 23.5706 47.6686 23.5097C47.5907 23.3911 47.5195 23.2692 47.4518 23.1439C47.4179 23.0829 47.3908 23.0185 47.3603 22.9542C47.4484 23.1405 47.3671 22.9643 47.3536 22.9203C47.3061 22.7882 47.2689 22.6527 47.2384 22.5172C47.2181 22.4156 47.2079 22.3513 47.2248 22.4935C47.2147 22.4089 47.2113 22.3242 47.2045 22.2395C47.1808 21.7179 46.7608 21.2132 46.2053 21.2403C45.6837 21.264 45.179 21.6806 45.2061 22.2395C45.2806 23.8044 46.1579 25.1118 47.3908 26.0263C48.5831 26.9103 50.0802 27.2897 51.5163 27.5505C52.0312 27.6453 52.6205 27.4116 52.7458 26.8528C52.8576 26.3616 52.5968 25.7215 52.0481 25.6232H52.0447Z" fill="var(--fill-0, black)"/>
<path id="Vector_21" d="M54.325 24.4516C56.303 26.2096 58.7959 27.6762 60.3642 29.7694C61.1263 30.7889 61.6208 31.9541 61.719 33.1531C61.8308 34.5419 61.6039 35.8086 61.2889 37.1499C60.6385 39.9172 59.6529 42.698 60.0966 45.5771C60.4895 48.1344 62.366 49.8855 63.7174 51.9618C64.0832 52.5241 64.3915 53.0863 64.554 53.5978C64.5981 53.74 64.6353 53.8823 64.6658 54.0279C64.6794 54.0923 64.6929 54.1567 64.7031 54.221C64.72 54.3294 64.7031 54.1126 64.7065 54.2955C64.7065 54.4581 64.7166 54.6207 64.7065 54.7867C64.7065 54.8171 64.6861 54.9831 64.7065 54.8171C64.6929 54.9018 64.676 54.9831 64.6557 55.0644C64.51 55.6809 64.1408 56.2533 63.6395 56.7783C63.0536 57.3947 62.366 57.896 61.6784 58.3906C61.2414 58.7056 61.0281 59.261 61.3193 59.7589C61.5734 60.1925 62.2474 60.4364 62.6877 60.118C64.0257 59.156 65.4787 58.1162 66.2137 56.5886C66.7963 55.3794 66.8539 54.0381 66.3797 52.7781C65.9089 51.5283 65.1299 50.4579 64.3305 49.4011C63.9511 48.8999 63.5684 48.4019 63.2161 47.8871C63.0603 47.6568 62.9079 47.4231 62.7656 47.1826C62.6911 47.0539 62.6166 46.9218 62.5489 46.7897C62.5286 46.749 62.3626 46.3866 62.4303 46.5492C61.36 43.9445 62.3694 41.079 63.0366 38.4303C63.7716 35.5174 64.2289 32.4554 62.7047 29.7017C61.1127 26.826 58.1253 25.1562 55.7408 23.0324C55.3377 22.6734 54.7246 22.6362 54.325 23.0324C53.9591 23.3983 53.9185 24.0858 54.325 24.4483V24.4516Z" fill="var(--fill-0, black)"/>
<path id="Vector_22" d="M30.5113 23.249C28.0929 25.1661 27.4697 28.4787 27.7136 31.395C27.7847 32.2485 27.91 33.0987 28.0591 33.9387C28.1946 34.711 28.3775 35.4866 28.4147 36.2724C28.4723 37.5223 28.0455 38.6333 27.2834 39.646C26.4197 40.7875 25.241 41.6952 24.0623 42.4912C23.6152 42.7926 23.4187 43.3718 23.7032 43.8596C23.9641 44.3033 24.6212 44.5201 25.0716 44.2186C27.2936 42.7215 29.6476 40.7502 30.2607 38.01C30.6367 36.3266 30.193 34.6703 29.922 33.0073C29.6781 31.5034 29.5155 29.8979 29.8068 28.394C30.0913 26.9308 30.7451 25.603 31.9272 24.6648C32.3506 24.3295 32.2794 23.6012 31.9272 23.249C31.5072 22.829 30.9381 22.9137 30.5113 23.249Z" fill="var(--fill-0, black)"/>
<path id="Vector_23" d="M39.5759 3.49948C43.7217 1.83641 48.3722 1.42318 52.6298 2.93722C56.0745 4.15997 58.7199 6.74434 61.4092 9.12548C62.8183 10.3719 64.2713 11.5913 65.8599 12.6074C67.3773 13.5795 68.7694 14.6837 69.728 16.235C70.6798 17.7728 71.0524 19.4968 70.5782 21.2547C70.2801 22.3589 69.9278 23.4733 70.3241 24.6046C70.6764 25.6072 71.4148 26.3659 72.0922 27.1585C72.834 28.0256 73.3861 29.0316 73.5995 30.1595C73.7824 31.1248 73.6367 32.124 73.3488 33.0758C72.6951 35.2368 71.3369 37.1369 70.1446 39.0269C69.4536 40.1176 71.1845 41.1236 71.872 40.0363C74.138 36.446 76.9527 32.3103 74.9746 27.9578C74.4903 26.8909 73.7383 26.0238 72.9796 25.1432C72.7019 24.818 72.4072 24.4691 72.248 24.0694C72.0922 23.6731 72.1261 23.226 72.2277 22.8027C72.4885 21.7052 72.8238 20.6755 72.7933 19.5307C72.7662 18.5281 72.5461 17.5459 72.1633 16.6212C71.364 14.6973 69.9753 13.1189 68.3291 11.8657C67.5602 11.2797 66.7168 10.8055 65.9276 10.2432C65.1791 9.70807 64.4712 9.13564 63.7667 8.53274C60.8571 6.04321 58.1305 3.19464 54.5944 1.59253C49.6932 -0.629415 43.9859 -0.405865 39.0475 1.5756C38.5462 1.77544 38.1939 2.24286 38.3497 2.80512C38.4818 3.2827 39.0746 3.70609 39.5793 3.50287L39.5759 3.49948Z" fill="var(--fill-0, black)"/>
<path id="Vector_24" d="M33.6832 5.16538C31.5493 6.48297 29.5475 8.02411 27.7354 9.75831C25.9368 11.479 24.2297 13.4096 22.902 15.5198C22.2076 16.6206 21.6894 17.8434 21.6216 19.1542C21.5539 20.4413 22.1737 21.7826 21.8926 23.0561C21.6284 24.2518 20.8087 25.3153 20.1991 26.3552C19.5216 27.5136 18.8849 28.6957 18.4276 29.9625C17.5097 32.5164 17.5876 35.5038 19.4031 37.6444C19.752 38.0577 20.4565 38.0035 20.8189 37.6444C21.2287 37.2346 21.1712 36.6419 20.8189 36.2286C19.5149 34.6909 19.6876 32.4317 20.3074 30.6365C20.6902 29.5323 21.2626 28.506 21.8486 27.4966C22.4955 26.3891 23.2475 25.3052 23.6776 24.0892C24.1349 22.7886 23.8436 21.5252 23.6708 20.2076C23.5286 19.1101 23.7386 18.1279 24.2602 17.1592C25.3475 15.1472 26.9733 13.3419 28.5822 11.733C30.4248 9.88702 32.4706 8.27137 34.6925 6.89959C35.7866 6.22555 34.784 4.49135 33.6832 5.17216V5.16538Z" fill="var(--fill-0, black)"/>
<path id="Vector_25" d="M19.5046 45.5942C17.7399 47.2471 16.9135 49.6418 16.7881 52.0128C16.7204 53.3135 16.8728 54.692 17.5401 55.8369C18.0956 56.7887 18.9762 57.5237 19.9551 58.0114C21.0695 58.5669 22.2787 58.8785 23.4946 59.1224C24.023 59.2274 24.5751 58.97 24.7241 58.4246C24.8596 57.9301 24.5582 57.3001 24.0264 57.1951C21.8417 56.7548 19.3623 56.1417 18.8678 53.7064C18.6273 52.5175 18.7899 51.1965 19.1185 50.0415C19.4504 48.8797 20.0364 47.8331 20.917 47.0067C21.8586 46.1226 20.4428 44.7102 19.5012 45.5908L19.5046 45.5942Z" fill="var(--fill-0, black)"/>
<path id="Vector_26" d="M22.6456 54.3229C22.273 56.5347 23.3942 58.5737 25.1792 59.8405C27.0285 61.1513 29.4639 61.3579 31.6621 61.3105C32.9492 61.2834 32.9526 59.2816 31.6621 59.3087C29.9076 59.346 28.0311 59.2545 26.4934 58.3129C25.8803 57.9369 25.3519 57.4018 24.9929 56.7718C24.6542 56.179 24.4713 55.4677 24.5729 54.8547C24.661 54.3229 24.434 53.7776 23.8751 53.6251C23.3942 53.493 22.7337 53.7877 22.6456 54.3229Z" fill="var(--fill-0, black)"/>
</g>
</g>
<defs>
<clipPath id="clip0_300_1523">
<rect width="89.3521" height="110" rx="44.6761" fill="white"/>
</clipPath>
</defs>
</svg>
